{
	"asset":{
		"generator":"Khronos glTF Blender I/O v5.1.20",
		"version":"2.0"
	},
	"scene":0,
	"scenes":[
		{
			"name":"Scene",
			"nodes":[
				0
			]
		}
	],
	"nodes":[
		{
			"mesh":0,
			"name":"janus_phys"
		}
	],
	"meshes":[
		{
			"name":"janus_phys",
			"primitives":[
				{
					"attributes":{
						"POSITION":0
					},
					"indices":1
				}
			]
		}
	],
	"accessors":[
		{
			"bufferView":0,
			"componentType":5126,
			"count":5246,
			"max":[
				2.8864212036132812,
				8.673133850097656,
				2.9546618461608887
			],
			"min":[
				-2.8718247413635254,
				-0.0030036887619644403,
				-3.041717767715454
			],
			"type":"VEC3"
		},
		{
			"bufferView":1,
			"componentType":5123,
			"count":15420,
			"type":"SCALAR"
		}
	],
	"bufferViews":[
		{
			"buffer":0,
			"byteLength":62952,
			"byteOffset":0,
			"target":34962
		},
		{
			"buffer":0,
			"byteLength":30840,
			"byteOffset":62952,
			"target":34963
		}
	],
	"buffers":[
		{
			"byteLength":93792,
			"uri":"phys.bin"
		}
	]
}
