{
	"asset":{
		"generator":"Khronos glTF Blender I/O v4.0.44",
		"version":"2.0"
	},
	"scene":0,
	"scenes":[
		{
			"name":"Scene",
			"nodes":[
				0
			]
		}
	],
	"nodes":[
		{
			"mesh":0,
			"name":"teapot"
		}
	],
	"meshes":[
		{
			"name":"teapot",
			"primitives":[
				{
					"attributes":{
						"POSITION":0,
						"NORMAL":1,
						"TEXCOORD_0":2
					},
					"indices":3
				}
			]
		}
	],
	"accessors":[
		{
			"bufferView":0,
			"componentType":5126,
			"count":8461,
			"max":[
				0.5337299704551697,
				0.48958298563957214,
				0.31086501479148865
			],
			"min":[
				-0.46626999974250793,
				0,
				-0.31086501479148865
			],
			"type":"VEC3"
		},
		{
			"bufferView":1,
			"componentType":5126,
			"count":8461,
			"type":"VEC3"
		},
		{
			"bufferView":2,
			"componentType":5126,
			"count":8461,
			"type":"VEC2"
		},
		{
			"bufferView":3,
			"componentType":5123,
			"count":47694,
			"type":"SCALAR"
		}
	],
	"bufferViews":[
		{
			"buffer":0,
			"byteLength":101532,
			"byteOffset":0,
			"target":34962
		},
		{
			"buffer":0,
			"byteLength":101532,
			"byteOffset":101532,
			"target":34962
		},
		{
			"buffer":0,
			"byteLength":67688,
			"byteOffset":203064,
			"target":34962
		},
		{
			"buffer":0,
			"byteLength":95388,
			"byteOffset":270752,
			"target":34963
		}
	],
	"buffers":[
		{
			"byteLength":366140,
			"uri":"teapot.bin"
		}
	]
}
