{
	"asset":{
		"generator":"Khronos glTF Blender I/O v5.1.20",
		"version":"2.0"
	},
	"extensionsUsed":[
		"EXT_texture_webp"
	],
	"extensionsRequired":[
		"EXT_texture_webp"
	],
	"scene":0,
	"scenes":[
		{
			"name":"Scene",
			"nodes":[
				0
			]
		}
	],
	"nodes":[
		{
			"mesh":0,
			"name":"hula"
		}
	],
	"materials":[
		{
			"name":"hula",
			"normalTexture":{
				"index":0
			},
			"pbrMetallicRoughness":{
				"baseColorTexture":{
					"index":1
				}
			}
		}
	],
	"meshes":[
		{
			"name":"hula",
			"primitives":[
				{
					"attributes":{
						"POSITION":0,
						"NORMAL":1,
						"TEXCOORD_0":2
					},
					"indices":3,
					"material":0
				}
			]
		}
	],
	"textures":[
		{
			"extensions":{
				"EXT_texture_webp":{
					"source":0
				}
			},
			"sampler":0
		},
		{
			"extensions":{
				"EXT_texture_webp":{
					"source":1
				}
			},
			"sampler":0
		}
	],
	"images":[
		{
			"mimeType":"image/webp",
			"name":"normal",
			"uri":"textures/normal.webp"
		},
		{
			"mimeType":"image/webp",
			"name":"baseColor",
			"uri":"textures/base.webp"
		}
	],
	"accessors":[
		{
			"bufferView":0,
			"componentType":5126,
			"count":2625,
			"max":[
				48.684974670410156,
				48.69734573364258,
				1.7499512434005737
			],
			"min":[
				-48.6719970703125,
				-48.697357177734375,
				-1.7121444940567017
			],
			"type":"VEC3"
		},
		{
			"bufferView":1,
			"componentType":5126,
			"count":2625,
			"type":"VEC3"
		},
		{
			"bufferView":2,
			"componentType":5126,
			"count":2625,
			"type":"VEC2"
		},
		{
			"bufferView":3,
			"componentType":5123,
			"count":7764,
			"type":"SCALAR"
		}
	],
	"bufferViews":[
		{
			"buffer":0,
			"byteLength":31500,
			"byteOffset":0,
			"target":34962
		},
		{
			"buffer":0,
			"byteLength":31500,
			"byteOffset":31500,
			"target":34962
		},
		{
			"buffer":0,
			"byteLength":21000,
			"byteOffset":63000,
			"target":34962
		},
		{
			"buffer":0,
			"byteLength":15528,
			"byteOffset":84000,
			"target":34963
		}
	],
	"samplers":[
		{
			"magFilter":9729,
			"minFilter":9987
		}
	],
	"buffers":[
		{
			"byteLength":99528,
			"uri":"hula.bin"
		}
	]
}
