<?xml version="1.0"?><svg xmlns="http://www.w3.org/2000/svg"  viewBox="0 0 50 50" width="128px" height="128px">    <path fill="#ffffff" d="M 2.0996094 7.0390625 L 2.0996094 43.019531 L 48 43.019531 L 48 7.0390625 L 2.0996094 7.0390625 z M 4.0996094 9.0390625 L 25.820312 9.0390625 C 24.700312 10.799063 23.699844 12.640781 22.839844 14.550781 C 20.919844 18.780781 19.669375 23.260859 19.109375 27.880859 L 18.980469 29 L 27.179688 29 C 26.770829 30.406074 26.402605 32.111752 26.261719 34.035156 C 25.851359 34.037415 25.440981 34.044348 25.03125 34.03125 C 20.67825 33.89325 16.440547 32.923438 12.435547 31.148438 L 11.625 32.976562 C 15.866 34.856563 20.355797 35.883297 24.966797 36.029297 C 25.335797 36.041297 25.702313 36.048828 26.070312 36.048828 C 26.110014 36.048828 26.149746 36.045057 26.189453 36.044922 C 26.189481 36.046911 26.189424 36.048791 26.189453 36.050781 C 26.199453 37.060781 26.269922 38.120703 26.419922 39.220703 C 26.499922 39.820703 26.61 40.419531 26.75 41.019531 L 4.0996094 41.019531 L 4.0996094 9.0390625 z M 28.210938 9.0390625 L 46 9.0390625 L 46 41.019531 L 28.800781 41.019531 C 28.630781 40.329531 28.500391 39.639453 28.400391 38.939453 C 28.260391 37.909453 28.189688 36.930469 28.179688 35.980469 C 28.179688 35.980469 28.179688 35.978516 28.179688 35.978516 C 32.38193 35.726628 36.56379 34.731836 40.431641 33.039062 L 39.630859 31.207031 C 36.037608 32.778687 32.162506 33.710467 28.259766 33.966797 C 28.460034 31.678566 28.990298 29.759015 29.5 28.339844 L 29.990234 27 L 21.25 27 C 21.83 22.98 22.980156 19.069141 24.660156 15.369141 C 25.660156 13.159141 26.850938 11.039062 28.210938 9.0390625 z M 34.007812 14.009766 L 34.007812 18.984375 L 36.007812 18.984375 L 36.007812 14.009766 L 34.007812 14.009766 z M 13.998047 14.119141 L 13.998047 18.984375 L 15.970703 18.984375 L 15.970703 14.119141 L 13.998047 14.119141 z"/></svg>