# WaveFront *.obj file (generated by Cheetah3D)

mtllib pear_lod.mtl

g pear.002_Cube.002
v 0.036470 0.410425 -0.003235
v 0.021705 0.384940 -0.003225
v 0.018170 0.374600 0.002265
v 0.039980 0.399695 0.005015
v 0.061880 0.437620 -0.003680
v 0.030685 0.385315 -0.008580
v 0.070695 0.451620 -0.012660
v 0.062375 0.427270 -0.015960
v 0.088590 0.457140 -0.020130
v 0.086645 0.463550 -0.017730
v 0.090295 0.462810 -0.005730
v 0.093380 0.453950 -0.019955
v 0.087485 0.465400 -0.010700
v 0.096510 0.455340 -0.007890
v 0.000330 0.295790 0.007760
v 0.011920 0.295515 0.002080
v 0.008655 0.335305 0.004395
v 0.015195 0.342355 0.000315
v -0.001265 0.319680 0.001810
v -0.003930 0.295150 -0.007920
v -0.006265 0.295230 -0.000515
v 0.003195 0.336870 -0.004555
v 0.010100 0.295360 -0.007535
v 0.010060 0.334835 -0.008085
v 0.076810 0.447380 -0.020560
v 0.092515 0.450920 -0.016000
v 0.068620 0.428630 -0.006730
v 0.070520 0.431190 -0.013620
v 0.066055 0.418560 -0.007485
v 0.019665 0.361290 -0.006360
v 0.019890 0.363800 0.002985
v 0.047785 0.397315 -0.001660
v 0.066675 0.432900 -0.002895
v 0.020290 -0.170040 -0.002065
v 0.037020 -0.184170 0.005785
v 0.018335 -0.171345 0.005525
v -0.007815 -0.176155 -0.005870
v -0.009625 -0.173250 -0.006615
v -0.004515 -0.165925 -0.019445
v -0.002460 -0.171105 0.010570
v 0.002545 -0.172990 0.012725
v 0.007845 -0.179345 0.022350
v 0.007720 -0.169610 0.014190
v 0.009465 -0.168245 0.011555
v -0.004260 -0.167675 0.005095
v -0.013120 -0.172790 0.000455
v -0.010510 -0.174925 0.001380
v 0.017415 -0.176315 0.004045
v -0.001115 -0.166605 0.002345
v 0.003275 -0.169790 -0.006450
v 0.011135 -0.169220 -0.018625
v 0.017935 -0.163150 -0.011820
v 0.011490 -0.174890 -0.017390
v 0.007550 -0.166375 -0.020800
v 0.001215 -0.177505 -0.017420
v -0.002820 -0.174520 -0.018860
v 0.017440 -0.170520 -0.009155
v -0.041950 0.260475 -0.040170
v -0.060035 0.253095 -0.004180
v -0.042950 0.283015 -0.006920
v -0.036340 0.279700 -0.026835
v -0.005690 0.296695 -0.026870
v -0.021410 0.297060 0.006630
v -0.009345 0.298165 -0.011945
v -0.083715 0.182710 0.020430
v -0.058275 0.254280 0.021120
v -0.069715 0.218630 0.003035
v -0.092825 0.175655 -0.009770
v -0.072380 0.180365 0.046395
v -0.057150 0.172700 0.071920
v -0.052040 0.204605 0.060955
v -0.050930 0.248325 0.045885
v 0.076755 0.223165 0.018150
v 0.101635 0.171070 0.011045
v 0.093865 0.175425 -0.023335
v 0.071740 0.226020 -0.018095
v 0.059655 0.214000 -0.046340
v 0.071925 0.179050 -0.054175
v 0.056845 0.269435 -0.029010
v 0.048660 0.258770 -0.045570
v 0.067635 0.257715 0.010545
v -0.010475 0.262305 -0.055050
v -0.029295 0.160420 -0.089605
v -0.027260 0.202680 -0.069105
v 0.003660 0.155975 -0.096410
v -0.060675 0.168910 -0.069695
v -0.053525 0.208720 -0.045805
v 0.132845 -0.133280 0.059135
v 0.143165 -0.127855 0.010250
v 0.163160 -0.095885 0.023495
v 0.158225 -0.088415 0.068760
v 0.103280 -0.162280 0.010230
v 0.179405 -0.054195 0.025150
v 0.185415 -0.022425 0.030700
v 0.172360 -0.024950 0.076865
v 0.149995 -0.048925 0.113160
v 0.129900 -0.101430 0.107665
v 0.112695 -0.057905 0.149830
v 0.130200 -0.014890 0.147400
v 0.109730 -0.135380 0.091090
v -0.067810 -0.117035 0.141895
v -0.031925 -0.130840 0.142045
v -0.026235 -0.092790 0.165715
v -0.065555 -0.080170 0.164540
v 0.012770 -0.133455 0.137365
v -0.056550 -0.143480 0.118540
v -0.004340 -0.025565 0.185720
v -0.066930 0.001945 0.179820
v -0.103435 -0.010375 0.164940
v -0.097420 -0.080650 0.149175
v -0.135855 -0.027095 0.133440
v -0.124830 -0.077845 0.125075
v -0.106945 -0.119105 0.105090
v -0.107305 -0.144270 0.060450
v -0.113310 -0.143645 -0.052525
v -0.119300 -0.148780 0.006385
v -0.184530 -0.068480 0.004895
v -0.147525 -0.089540 -0.074765
v -0.170830 -0.050325 -0.065635
v -0.196495 -0.009670 0.003365
v -0.185455 -0.012200 -0.052065
v -0.155840 -0.026870 -0.110095
v -0.129405 -0.029760 -0.137455
v -0.099310 -0.086615 -0.136485
v -0.104895 -0.122055 -0.099830
v -0.073145 -0.144050 -0.101920
v -0.067390 0.099555 -0.150770
v -0.016515 0.104240 -0.156290
v -0.061255 0.048775 -0.178795
v 0.029470 0.049405 -0.183415
v -0.007435 0.035575 -0.187835
v 0.000565 -0.012510 -0.187150
v -0.064185 -0.021135 -0.175740
v -0.106005 0.023420 -0.162195
v -0.104450 0.060080 -0.154650
v -0.140910 0.037305 -0.137160
v -0.121500 0.091430 -0.124400
v 0.007095 0.299675 0.022400
v 0.029340 0.296010 -0.000850
v 0.014155 0.299070 -0.022210
v -0.076840 0.140230 0.093845
v -0.114270 0.095850 0.126830
v -0.059130 0.086680 0.163165
v -0.030290 0.167540 0.089955
v 0.005130 0.143725 0.123905
v -0.001430 0.159790 0.104250
v 0.047255 0.046295 0.180655
v 0.101635 -0.012415 0.166825
v 0.123330 0.047890 0.149765
v 0.047745 -0.013380 0.185400
v 0.116130 0.083955 0.134650
v 0.066535 0.096225 0.152980
v 0.023590 0.089900 0.167685
v -0.015560 0.056490 0.180460
v -0.006085 0.022460 0.187630
v 0.091440 -0.067420 -0.153000
v 0.132470 -0.014795 -0.136000
v 0.127780 -0.085925 -0.115175
v 0.091490 -0.002650 -0.166525
v 0.074060 -0.117930 -0.134325
v 0.026460 -0.077815 -0.168450
v 0.092995 -0.141170 -0.096685
v 0.060130 -0.147430 -0.112945
v -0.006900 -0.116325 -0.149510
v -0.008340 -0.142965 -0.125085
v 0.039755 -0.007690 -0.186695
v -0.025915 0.201605 0.076900
v 0.007905 0.201225 0.082215
v 0.002495 0.260280 0.068480
v -0.025170 0.248470 0.068180
v 0.083890 0.154750 -0.073470
v 0.112580 0.096405 -0.119375
v 0.065950 0.125845 -0.122555
v 0.021535 0.116995 -0.143255
v 0.028740 0.156310 -0.094175
v 0.026900 0.218975 -0.068315
v 0.022820 0.260480 -0.058415
v 0.084825 -0.103485 0.140385
v 0.066630 -0.141700 0.113435
v 0.054760 -0.065730 0.171330
v 0.059495 0.086150 -0.158035
v 0.088890 0.038615 -0.162940
v 0.134540 0.040800 -0.125855
v 0.062535 0.209005 0.053940
v 0.048985 0.189725 0.071905
v 0.086875 0.177280 0.043365
v 0.054400 0.260600 0.042310
v -0.184195 0.015245 0.068685
v -0.141620 0.014485 0.131595
v -0.155830 0.056245 0.108615
v -0.176765 0.055425 0.070670
v -0.114210 0.050110 0.152580
v -0.173950 -0.039920 0.075635
v -0.156925 0.086845 0.087145
v -0.139225 0.112520 0.079890
v -0.182305 0.082615 -0.002640
v -0.157695 0.119740 0.000060
v -0.189935 -0.040125 0.036915
v -0.082690 0.181490 -0.031915
v -0.066030 0.216880 -0.021580
v -0.081020 0.172855 -0.051275
v 0.150775 0.109860 0.037485
v 0.111650 0.134240 0.078405
v 0.147215 0.077560 0.102330
v 0.167405 0.093540 -0.002590
v 0.065385 0.164050 0.082650
v -0.145625 -0.118680 0.043985
v -0.164265 -0.090575 0.053820
v 0.153880 -0.087325 -0.058705
v 0.124595 -0.119210 -0.079940
v 0.113000 -0.149540 -0.035840
v 0.156995 -0.027700 -0.097620
v 0.167835 -0.051300 -0.057745
v 0.180525 0.006405 -0.039880
v 0.154440 0.070720 -0.080495
v 0.159355 0.022605 -0.095580
v 0.124360 0.123120 -0.072255
v 0.140105 0.116840 -0.042515
v 0.179725 0.048185 -0.029925
v -0.141125 0.119615 -0.068495
v -0.006735 0.284655 -0.043100
v 0.024855 0.288820 -0.038800
v 0.040985 0.288980 -0.024940
v 0.050870 0.288045 0.004770
v -0.040360 0.280585 0.026635
v 0.000015 0.288345 0.045355
v 0.027445 0.262515 0.060840
v 0.041365 0.286495 0.028395
v 0.019625 0.298375 0.027275
v -0.017100 0.288775 0.041920
v -0.005370 -0.185870 0.021085
v -0.030700 -0.189760 0.010550
v -0.006765 -0.190605 0.043810
v -0.046705 -0.190975 0.022240
v -0.029905 -0.193640 -0.011795
v -0.045255 -0.195730 -0.014080
v -0.066945 -0.187750 -0.003300
v -0.093225 -0.165690 0.008045
v -0.082965 -0.161205 -0.049155
v -0.055075 -0.183765 -0.048770
v -0.051635 -0.161560 -0.086985
v -0.028530 -0.187855 -0.028655
v -0.013920 -0.172790 -0.090050
v 0.006805 -0.185725 -0.072005
v -0.030305 -0.187370 -0.065485
v 0.009535 -0.186590 -0.057200
v -0.016690 -0.189770 -0.048720
v 0.081660 -0.179950 -0.020720
v 0.083675 -0.181095 0.010445
v 0.061305 -0.191375 -0.008015
v 0.051835 -0.187590 -0.033970
v 0.057725 -0.178635 -0.065330
v 0.034540 -0.194030 -0.050160
v 0.015170 -0.183770 0.047145
v 0.047180 -0.189420 0.043420
v 0.031565 -0.183125 0.064755
v 0.022955 -0.188475 0.019370
v 0.034660 -0.193930 0.025435
v 0.012715 -0.181285 0.035725
v -0.018140 -0.187050 0.060050
v 0.020910 -0.187860 -0.028515
v 0.032930 -0.180045 -0.022740
v 0.030440 -0.182755 -0.008740
v 0.058405 -0.188645 0.021765
v 0.007625 -0.180445 -0.039385
v 0.006870 -0.167675 -0.024840
v -0.008810 -0.178145 -0.031420
v -0.051490 -0.183650 0.040385
v -0.043400 -0.161655 0.089610
v 0.013305 -0.177300 0.077840
v 0.072485 -0.161915 0.069060
v 0.038305 -0.176700 -0.081245
v 0.027990 0.166495 0.098725
v 0.182735 0.024225 0.042085
v 0.174575 0.025750 0.078590
v 0.170275 0.073815 0.046185
v 0.159235 0.032485 0.108150
v -0.068180 0.051655 0.176315
v -0.188385 0.040280 -0.047910
v -0.177025 0.083980 -0.044595
v -0.162645 0.073930 -0.093220
v -0.167175 0.024960 -0.105185
v -0.045510 -0.078415 -0.162250
v -0.071735 -0.115405 -0.131245
v -0.094020 -0.043050 -0.158070
v -0.102440 0.153585 0.045940

vt 0.495765 0.176472
vt 0.496614 0.147707
vt 0.484296 0.168109
vt 0.525794 0.127595
vt 0.518742 0.097736
vt 0.511725 0.112965
vt 0.465006 0.098817
vt 0.470776 0.093893
vt 0.475741 0.084473
vt 0.461613 0.149019
vt 0.462911 0.123539
vt 0.469194 0.126147
vt 0.503404 0.097996
vt 0.506483 0.082742
vt 0.488069 0.086752
vt 0.474705 0.182999
vt 0.487401 0.195379
vt 0.468414 0.148528
vt 0.490407 0.120067
vt 0.478486 0.118636
vt 0.480290 0.100083
vt 0.506440 0.170197
vt 0.504855 0.198356
vt 0.514449 0.190865
vt 0.520046 0.172800
vt 0.508049 0.148465
vt 0.514959 0.138063
vt 0.472532 0.192457
vt 0.476333 0.205936
vt 0.483754 0.206182
vt 0.143377 0.737817
vt 0.179195 0.727095
vt 0.199687 0.708139
vt 0.405327 0.550386
vt 0.406888 0.493335
vt 0.365600 0.486623
vt 0.410083 0.419621
vt 0.379096 0.408158
vt 0.340791 0.439243
vt 0.344490 0.392974
vt 0.254237 0.508615
vt 0.250678 0.412489
vt 0.219294 0.458135
vt 0.216202 0.396908
vt 0.194003 0.573165
vt 0.254573 0.565371
vt 0.218971 0.518998
vt 0.179884 0.508904
vt 0.150829 0.456226
vt 0.147832 0.540955
vt 0.177440 0.440163
vt 0.179119 0.373566
vt 0.153017 0.365227
vt 0.095454 0.271013
vt 0.035483 0.362385
vt 0.093622 0.360934
vt 0.051375 0.252627
vt 0.135881 0.231062
vt 0.086088 0.200746
vt 0.161649 0.194438
vt 0.106186 0.150622
vt 0.145500 0.289874
vt 0.174134 0.249918
vt 0.126412 0.339226
vt 0.120968 0.433021
vt 0.637288 0.725884
vt 0.605435 0.728666
vt 0.652549 0.810918
vt 0.680272 0.764175
vt 0.702530 0.900035
vt 0.725203 0.875572
vt 0.706595 0.796270
vt 0.682244 0.918119
vt 0.296881 0.651040
vt 0.311292 0.561975
vt 0.341726 0.642348
vt 0.351099 0.546419
vt 0.299839 0.725607
vt 0.273837 0.717810
vt 0.326744 0.722187
vt 0.247966 0.704274
vt 0.784569 0.575396
vt 0.755089 0.532194
vt 0.742025 0.695475
vt 0.822306 0.683198
vt 0.857342 0.546319
vt 0.813343 0.592697
vt 0.774820 0.704161
vt 0.806778 0.728733
vt 0.105259 0.565335
vt 0.067929 0.575325
vt 0.059157 0.615982
vt 0.116158 0.749043
vt 0.251603 0.914080
vt 0.252856 0.861074
vt 0.219667 0.881834
vt 0.234013 0.915240
vt 0.225681 0.966135
vt 0.243439 0.970214
vt 0.262994 0.950322
vt 0.258971 0.801058
vt 0.272960 0.866976
vt 0.313883 0.786570
vt 0.292557 0.865988
vt 0.742764 0.798566
vt 0.772054 0.807554
vt 0.800026 0.796116
vt 0.776761 0.879394
vt 0.795216 0.869926
vt 0.749233 0.861418
vt 0.179921 0.813716
vt 0.195856 0.908196
vt 0.209011 0.796523
vt 0.733231 0.308127
vt 0.740436 0.264780
vt 0.708651 0.255995
vt 0.704500 0.321368
vt 0.737810 0.203328
vt 0.734331 0.352940
vt 0.701619 0.396611
vt 0.731222 0.397172
vt 0.672100 0.298378
vt 0.677770 0.368035
vt 0.638646 0.341851
vt 0.649184 0.406459
vt 0.678674 0.237680
vt 0.427679 0.259179
vt 0.394119 0.182607
vt 0.374632 0.223770
vt 0.396326 0.295549
vt 0.413494 0.158818
vt 0.358140 0.179777
vt 0.463012 0.357849
vt 0.369268 0.308287
vt 0.343033 0.317586
vt 0.332736 0.246479
vt 0.293331 0.216775
vt 0.250444 0.333753
vt 0.253978 0.226009
vt 0.212951 0.231376
vt 0.200363 0.304232
vt 0.207989 0.351503
vt 0.087704 0.471844
vt 0.031244 0.510050
vt 0.036880 0.448828
vt 0.123476 0.491085
vt 0.732532 0.975224
vt 0.740784 0.992257
vt 0.750338 0.980467
vt 0.761192 0.980560
vt 0.754141 0.952722
vt 0.258503 0.976736
vt 0.265355 0.982370
vt 0.281004 0.970844
vt 0.776145 0.963301
vt 0.239269 0.997076
vt 0.248481 0.983236
vt 0.227245 0.984931
vt 0.360106 0.727326
vt 0.414964 0.653494
vt 0.395701 0.722735
vt 0.641132 0.487834
vt 0.619764 0.404149
vt 0.571320 0.478976
vt 0.569767 0.388991
vt 0.602569 0.559597
vt 0.643433 0.535873
vt 0.564727 0.557669
vt 0.529606 0.510060
vt 0.583822 0.653594
vt 0.522729 0.449756
vt 0.527065 0.359679
vt 0.828245 0.296556
vt 0.847373 0.383211
vt 0.872933 0.308029
vt 0.893153 0.388964
vt 0.926557 0.258892
vt 0.862419 0.229951
vt 0.821027 0.218619
vt 0.849789 0.185070
vt 0.910238 0.200249
vt 0.892856 0.148649
vt 0.937785 0.369363
vt 0.968800 0.358108
vt 0.339518 0.802190
vt 0.361364 0.815506
vt 0.318495 0.884078
vt 0.327668 0.915975
vt 0.881250 0.616669
vt 0.864354 0.727152
vt 0.926581 0.603969
vt 0.885544 0.743316
vt 0.830556 0.839851
vt 0.848694 0.851808
vt 0.815309 0.901530
vt 0.633359 0.264740
vt 0.647193 0.183640
vt 0.589909 0.308032
vt 0.549739 0.252613
vt 0.596939 0.167055
vt 0.895525 0.447313
vt 0.915811 0.529435
vt 0.848371 0.461993
vt 0.950247 0.466132
vt 0.973085 0.445227
vt 0.954826 0.559941
vt 0.712086 0.715375
vt 0.323106 0.481352
vt 0.292099 0.438578
vt 0.295941 0.479427
vt 0.300415 0.377217
vt 0.311085 0.521261
vt 0.273596 0.377220
vt 0.234672 0.800458
vt 0.221482 0.721628
vt 0.678327 0.620077
vt 0.720294 0.569895
vt 0.679682 0.530717
vt 0.670523 0.698981
vt 0.284926 0.305819
vt 0.278633 0.262951
vt 0.802003 0.257200
vt 0.784472 0.305899
vt 0.773090 0.223225
vt 0.784242 0.351458
vt 0.812438 0.376930
vt 0.772594 0.420501
vt 0.813058 0.438754
vt 0.810940 0.502438
vt 0.767453 0.474172
vt 0.181548 0.926847
vt 0.210072 0.948200
vt 0.789902 0.936076
vt 0.805715 0.949084
vt 0.788644 0.964910
vt 0.774288 0.921609
vt 0.751316 0.917258
vt 0.276669 0.916143
vt 0.708220 0.962849
vt 0.734188 0.923523
vt 0.730743 0.955576
vt 0.715027 0.980724
vt 0.301592 0.955786
vt 0.292372 0.945036
vt 0.275823 0.048397
vt 0.262551 0.023689
vt 0.250841 0.031149
vt 0.261123 0.087959
vt 0.298138 0.054548
vt 0.268698 0.107110
vt 0.237905 0.087595
vt 0.236774 0.109508
vt 0.208502 0.182657
vt 0.255756 0.190881
vt 0.247924 0.142309
vt 0.206274 0.129900
vt 0.165852 0.153538
vt 0.216663 0.085552
vt 0.140130 0.094504
vt 0.182836 0.095243
vt 0.153011 0.053763
vt 0.191126 0.071652
vt 0.169695 0.039299
vt 0.738868 0.160818
vt 0.765786 0.159539
vt 0.776863 0.115163
vt 0.755307 0.126426
vt 0.806266 0.139593
vt 0.797816 0.095612
vt 0.682029 0.081707
vt 0.707177 0.102317
vt 0.692439 0.041116
vt 0.720652 0.078378
vt 0.724607 0.055044
vt 0.705717 0.018857
vt 0.668072 0.039269
vt 0.725822 0.008996
vt 0.739353 0.027354
vt 0.230155 0.025410
vt 0.241856 0.032166
vt 0.782819 0.067696
vt 0.770057 0.078421
vt 0.756043 0.073392
vt 0.740749 0.077922
vt 0.731111 0.113418
vt 0.765291 0.029740
vt 0.749876 0.029127
vt 0.767936 0.021013
vt 0.806219 0.039802
vt 0.778935 0.011994
vt 0.817573 0.056209
vt 0.768860 0.012979
vt 0.294244 0.014250
vt 0.275751 0.002658
vt 0.277753 0.014928
vt 0.315068 0.027568
vt 0.313185 0.072085
vt 0.267643 0.017679
vt 0.201731 0.055124
vt 0.217681 0.006840
vt 0.184743 0.027663
vt 0.226770 0.007941
vt 0.285319 0.125491
vt 0.336553 0.139142
vt 0.658714 0.066247
vt 0.689111 0.157183
vt 0.837332 0.064785
vt 0.828284 0.119226
vt 0.866931 0.082733
vt 0.347542 0.054649
vt 0.725589 0.451223
vt 0.701490 0.457892
vt 0.719075 0.518840
vt 0.676514 0.470712
vt 0.455703 0.502429
vt 0.469104 0.444928
vt 0.456435 0.559930
vt 0.468293 0.829411
vt 0.482737 0.847776
vt 0.519103 0.819561
vt 0.510453 0.802849
vt 0.552854 0.797314
vt 0.491015 0.883139
vt 0.550837 0.873877
vt 0.578521 0.830374
vt 0.629022 0.880197
vt 0.617624 0.864854
vt 0.611473 0.871250
vt 0.610087 0.885331
vt 0.624273 0.867763
vt 0.622066 0.902749
vt 0.416893 0.933213
vt 0.376858 0.916213
vt 0.376123 0.941098
vt 0.428643 0.908561
vt 0.374443 0.827264
vt 0.373937 0.854913
vt 0.395899 0.827029
vt 0.417450 0.853062
vt 0.390895 0.814507
vt 0.376101 0.891669
vt 0.416775 0.885792
vt 0.600352 0.815995
vt 0.599157 0.787651
vt 0.601094 0.841230
vt 0.602118 0.864966
vt 0.585021 0.872854
vt 0.611728 0.900144
vt 0.598315 0.909114
vt 0.554234 0.929790
vt 0.598606 0.942662
vt 0.560093 0.902114
vt 0.535147 0.917421
vt 0.455623 0.927280
vt 0.453795 0.892354
vt 0.512595 0.922528
vt 0.551633 0.978150
vt 0.597138 0.984329
vt 0.552744 0.961075
vt 0.436402 0.823196
vt 0.510565 0.949592
vt 0.476407 0.946084

vn -0.123044 -0.908604 -0.399123
vn -0.309840 -0.936408 -0.164738
vn -0.344580 -0.908204 -0.237551
vn -0.790546 -0.381103 -0.479372
vn -0.700484 -0.552345 -0.451925
vn -0.713494 -0.608374 -0.347574
vn 0.156565 -0.758903 -0.632103
vn -0.023121 -0.836918 -0.546839
vn 0.000923 -0.819112 -0.573633
vn -0.335844 -0.728104 -0.597556
vn -0.645754 -0.593886 -0.479897
vn -0.541901 -0.543967 -0.640658
vn 0.535768 -0.538360 -0.650478
vn 0.113178 -0.802245 -0.586168
vn 0.441169 -0.712030 -0.546244
vn -0.410633 -0.109824 0.905163
vn 0.945864 -0.247127 0.210402
vn 0.949950 -0.236596 0.204004
vn 0.921017 -0.361355 -0.145431
vn 0.541426 -0.302195 0.784561
vn 0.644472 -0.073394 0.761097
vn 0.448963 -0.330344 0.830244
vn 0.375084 -0.783652 0.495178
vn 0.580483 -0.683390 0.442738
vn 0.646598 -0.554723 0.523634
vn 0.515328 -0.749429 0.415685
vn 0.614216 -0.708044 0.348442
vn 0.789557 -0.136669 0.598265
vn 0.769716 0.191559 0.608969
vn 0.249719 -0.680796 0.688591
vn 0.357597 -0.517519 0.777366
vn -0.201522 -0.978306 0.048015
vn -0.293363 -0.896689 -0.331492
vn -0.209517 -0.861643 -0.462248
vn 0.559041 -0.223431 -0.798469
vn 0.844648 -0.175047 -0.505894
vn 0.590656 -0.136254 -0.795336
vn 0.120424 -0.238021 -0.963766
vn 0.087645 -0.334804 -0.938203
vn 0.436126 -0.211000 -0.874799
vn -0.013761 -0.215066 -0.976503
vn -0.498303 -0.815540 -0.294260
vn -0.754992 -0.548500 -0.359352
vn 0.337537 -0.798621 0.498271
vn 0.123541 -0.860649 0.493985
vn -0.695576 -0.684120 -0.219441
vn -0.610343 -0.786608 -0.093427
vn -0.138511 -0.859115 -0.492683
vn -0.114466 -0.089911 -0.989350
vn 0.896982 -0.440991 -0.030834
vn 0.857885 -0.349453 -0.376716
vn 0.689073 -0.171999 -0.703985
vn 0.246884 -0.855807 0.454580
vn 0.039127 -0.894085 0.446185
vn -0.526425 -0.688966 -0.498200
vn -0.347228 -0.909348 -0.229170
vn -0.708754 -0.701288 -0.076569
vn -0.397410 -0.882976 -0.249836
vn -0.251049 0.561143 0.788729
vn -0.278672 0.233767 0.931501
vn -0.562565 0.255543 0.786269
vn -0.272746 -0.031291 0.961577
vn -0.561221 -0.104803 0.821004
vn -0.758702 -0.004376 0.651423
vn -0.729211 -0.169374 0.662996
vn -0.926090 0.366072 0.091374
vn -0.999680 -0.022893 -0.010716
vn -0.963865 0.132768 -0.230946
vn -0.941874 -0.149302 -0.300970
vn -0.658735 0.679124 -0.323819
vn -0.732538 0.678954 0.049084
vn -0.861618 0.460549 -0.213327
vn -0.798507 0.369707 -0.475081
vn -0.681379 0.125093 -0.721162
vn -0.539945 0.552458 -0.635019
vn -0.875153 0.021784 -0.483356
vn -0.792460 -0.252254 -0.555315
vn -0.630050 -0.213361 -0.746669
vn -0.205668 -0.381811 -0.901067
vn -0.065440 -0.178908 -0.981687
vn -0.265877 -0.180582 -0.946942
vn 0.096723 -0.370670 -0.923715
vn -0.350787 -0.584752 -0.731447
vn -0.058663 -0.595843 -0.800956
vn -0.360985 -0.749352 -0.555123
vn -0.080722 -0.713240 -0.696256
vn -0.519815 -0.430949 -0.737614
vn -0.582390 -0.609467 -0.537933
vn -0.446270 -0.255378 -0.857686
vn -0.485644 -0.002886 -0.874152
vn 0.204117 0.624141 0.754178
vn -0.098981 0.631822 0.768767
vn 0.039194 0.357693 0.933016
vn 0.484627 0.423508 0.765361
vn 0.395144 0.437957 0.807499
vn 0.751064 0.424054 0.506045
vn 0.609008 0.264788 0.747661
vn -0.011064 0.475520 0.879635
vn -0.596542 0.716486 0.361643
vn -0.639516 0.676934 0.364389
vn -0.429608 0.706954 0.561830
vn -0.507826 0.583123 0.634098
vn -0.740363 0.466595 0.483892
vn -0.805338 0.557597 0.201288
vn -0.544190 0.516193 0.661364
vn -0.781042 0.618115 -0.088917
vn 0.777477 0.591440 -0.213842
vn 0.863241 0.499586 -0.072303
vn 0.812096 0.582313 0.037579
vn 0.465383 0.708766 -0.530161
vn 0.581140 0.508226 -0.635596
vn 0.682181 0.615507 -0.394690
vn 0.778799 0.547648 -0.305865
vn 0.581561 0.535563 -0.612338
vn -0.294402 0.613184 -0.733030
vn -0.026538 0.610483 -0.791584
vn -0.292335 0.591124 -0.751740
vn 0.097924 0.701146 -0.706262
vn -0.018049 0.623365 -0.781723
vn -0.202715 0.625572 -0.753370
vn -0.497941 0.688064 -0.527847
vn -0.725777 0.673330 -0.140979
vn -0.917806 0.364596 -0.157171
vn -0.686512 0.406506 -0.602872
vn -0.554961 0.684952 -0.472079
vn -0.262477 0.894209 -0.362625
vn -0.042659 0.998237 0.041275
vn -0.231074 0.972936 0.000345
vn -0.931699 0.361653 -0.033824
vn -0.900112 0.397479 0.178349
vn -0.603971 0.289090 0.742729
vn -0.745265 0.374605 0.551589
vn 0.926733 0.361602 0.102033
vn 0.912544 0.304972 -0.272498
vn 0.686358 0.286402 -0.668496
vn 0.833937 0.409737 -0.369681
vn 0.569499 0.407169 -0.714062
vn 0.927691 0.369968 0.050125
vn -0.533599 0.366503 -0.762199
vn -0.343232 0.547248 -0.763355
vn -0.310427 0.378419 -0.872029
vn -0.209095 0.384073 -0.899315
vn -0.478716 0.478536 -0.736094
vn -0.667818 0.439590 -0.600649
vn 0.895836 -0.444374 0.002936
vn 0.769818 -0.632908 -0.082515
vn 0.683231 -0.687328 0.246527
vn 0.871711 -0.378785 0.310873
vn 0.627844 -0.767187 0.131289
vn 0.965169 -0.257834 0.044396
vn 0.931533 -0.129277 0.339903
vn 0.996044 -0.061301 0.064328
vn 0.672401 -0.490597 0.554248
vn 0.813379 -0.223220 0.537203
vn 0.516271 -0.305051 0.800255
vn 0.697523 -0.080963 0.711974
vn 0.483612 -0.724621 0.490963
vn -0.049978 -0.436442 0.898344
vn -0.097634 -0.725107 0.681680
vn -0.385696 -0.581817 0.716050
vn -0.259719 -0.322430 0.910267
vn 0.130903 -0.668197 0.732378
vn -0.342842 -0.787044 0.512856
vn -0.047337 -0.178650 0.982773
vn -0.480034 -0.344468 0.806789
vn -0.676743 -0.402157 0.616676
vn -0.592175 -0.641021 0.488283
vn -0.523104 -0.796250 0.303890
vn -0.889401 -0.447729 -0.092222
vn -0.658121 -0.752694 0.018141
vn -0.618779 -0.740188 -0.263124
vn -0.765649 -0.487214 -0.420005
vn -0.878179 -0.322323 -0.353425
vn -0.227381 0.273135 -0.934717
vn 0.168635 0.286113 -0.943240
vn -0.058570 0.082610 -0.994859
vn -0.473093 0.339206 -0.813094
vn -0.029853 0.999548 -0.003555
vn 0.016903 0.977804 -0.208839
vn -0.084269 0.972075 -0.219017
vn -0.402570 -0.910866 0.090885
vn -0.004589 0.993317 0.115323
vn 0.183197 0.982821 -0.022380
vn -0.173509 0.984713 -0.015317
vn 0.039502 0.986079 0.161516
vn 0.232322 0.970414 0.065750
vn -0.118898 0.990927 -0.062668
vn -0.011057 0.967742 0.251700
vn 0.094909 0.989436 -0.109586
vn -0.019764 0.926037 0.376915
vn 0.204319 0.895326 0.395784
vn 0.173400 0.934436 0.311064
vn 0.108587 0.993852 -0.021630
vn 0.121712 0.966196 0.227269
vn -0.300233 0.562471 0.770381
vn -0.020644 0.697360 0.716424
vn 0.582201 0.245598 0.775063
vn 0.432137 -0.041251 0.900864
vn 0.212131 0.225702 0.950820
vn 0.201075 -0.100725 0.974384
vn 0.296145 0.556702 0.776132
vn 0.534906 0.561293 0.631526
vn 0.064412 0.489164 0.869810
vn -0.059940 0.259991 0.963749
vn -0.030037 0.074150 0.996795
vn 0.725843 -0.405217 -0.555834
vn 0.705555 -0.095210 -0.702231
vn 0.445445 -0.300429 -0.843398
vn 0.486152 0.014406 -0.873755
vn 0.351380 -0.550943 -0.756963
vn 0.550258 -0.684576 -0.478092
vn 0.217435 -0.734194 -0.643181
vn 0.194079 -0.095780 -0.976299
vn -0.317441 0.277860 0.906656
vn -0.414633 0.369793 0.831464
vn 0.298177 0.697432 -0.651674
vn 0.258881 0.583856 -0.769476
vn 0.303487 0.309166 -0.901284
vn -0.134182 0.380486 -0.915000
vn 0.231191 0.375491 -0.897528
vn 0.377022 -0.555132 0.741406
vn 0.308550 -0.760703 0.571076
vn 0.190100 -0.368019 0.910178
vn 0.489187 0.249448 -0.835746
vn 0.287568 0.499687 -0.817079
vn 0.729446 0.175374 -0.661175
vn 0.727458 0.501479 0.468319
vn -0.788698 0.209471 0.577995
vn -0.933972 0.041733 0.354902
vn -0.906228 0.263409 0.330707
vn -0.843447 -0.210161 0.494399
vn -0.756475 0.461160 0.463764
vn -0.949275 -0.212681 0.231613
vn -0.858954 0.384395 -0.338289
vn -0.714187 0.616937 -0.330645
vn 0.616530 0.651028 0.442780
vn 0.769812 0.597395 0.224742
vn 0.771043 0.452659 0.447875
vn 0.448162 0.650855 0.612813
vn -0.808755 -0.474057 0.348116
vn -0.714600 -0.665439 0.215725
vn 0.737395 -0.592537 -0.324266
vn 0.855497 -0.447297 -0.260866
vn 0.653084 -0.726266 -0.214522
vn 0.925270 -0.272530 -0.263825
vn 0.871022 -0.103396 -0.480239
vn 0.972299 -0.057404 -0.226583
vn 0.887219 0.103700 -0.449543
vn 0.827827 0.391653 -0.401635
vn 0.972661 0.186092 -0.138922
vn -0.228902 0.635401 -0.737475
vn 0.052604 0.996886 0.058752
vn 0.223212 0.731205 -0.644605
vn 0.096645 0.977677 -0.186566
vn 0.492832 0.793185 -0.357735
vn 0.661217 0.746441 0.074960
vn -0.667246 0.652396 0.359391
vn -0.349971 0.936605 0.017065
vn 0.120214 0.722847 0.680471
vn 0.479111 0.696874 0.533685
vn 0.206670 0.898835 0.386501
vn 0.163067 0.960206 0.226747
vn -0.272047 0.800924 0.533395
vn 0.194232 0.928599 0.316194
vn -0.273378 0.960908 0.043823
vn 0.454395 -0.762553 -0.460475
vn 0.638789 -0.529509 -0.558184
vn 0.613262 -0.698092 -0.369564
vn 0.491510 -0.640108 -0.590491
vn 0.215609 -0.932668 -0.289211
vn 0.335854 -0.935307 -0.111364
vn 0.190992 -0.981228 -0.026719
vn 0.216273 -0.960881 -0.173012
vn -0.106677 -0.981871 0.156683
vn 0.714807 -0.698702 -0.029450
vn 0.499564 -0.865688 0.031950
vn 0.406242 -0.912596 0.046219
vn -0.063271 -0.989810 -0.127566
vn 0.314867 -0.948907 0.020852
vn -0.539402 -0.790930 -0.288920
vn -0.575053 -0.817830 -0.021638
vn -0.519039 -0.854365 0.025677
vn -0.405337 -0.882982 -0.236736
vn -0.332908 -0.906629 -0.259221
vn -0.399476 -0.773178 -0.492559
vn 0.226213 -0.947825 -0.224620
vn -0.280577 -0.923267 -0.262401
vn -0.096392 -0.782316 -0.615378
vn -0.188996 -0.905736 -0.379372
vn -0.012635 -0.946121 -0.323565
vn 0.091315 -0.985413 0.143607
vn -0.070951 -0.993574 0.088183
vn 0.160217 -0.983506 -0.083944
vn 0.505212 -0.852740 0.132651
vn 0.522715 -0.836035 -0.166778
vn 0.199279 -0.977097 -0.074630
vn 0.062067 -0.997707 -0.026986
vn 0.426010 -0.833806 -0.351116
vn 0.246903 -0.947231 -0.204431
vn 0.149516 -0.905396 0.397369
vn 0.210091 -0.940985 0.265348
vn -0.107565 -0.990657 0.083841
vn -0.180351 -0.973120 0.143217
vn -0.080872 -0.992055 -0.096364
vn -0.532014 -0.778869 -0.332150
vn -0.701010 -0.701072 -0.130701
vn -0.260815 -0.960759 0.094436
vn -0.116780 -0.981265 0.153239
vn -0.065458 -0.940292 0.334014
vn 0.709730 -0.689745 -0.143298
vn 0.391840 -0.910236 -0.133912
vn 0.687200 -0.715476 0.125896
vn 0.659622 -0.744897 0.100137
vn 0.470998 -0.881763 -0.025585
vn 0.283546 -0.952884 -0.107765
vn 0.677985 -0.691800 0.248493
vn 0.545715 -0.832986 0.091263
vn 0.196560 -0.978476 0.062837
vn -0.014495 -0.998055 0.060626
vn -0.187780 -0.826645 0.530468
vn -0.031468 -0.728914 0.683882
vn 0.048829 -0.641085 0.765915
vn 0.098285 -0.851510 0.515044
vn -0.588417 -0.804516 -0.080740
vn 0.083020 -0.990548 -0.109187
vn -0.380227 -0.913063 -0.147456
vn -0.655973 -0.710678 -0.254236
vn -0.323508 -0.934554 -0.148164
vn 0.165131 -0.986265 -0.003734
vn -0.806437 -0.548925 -0.219863
vn -0.457478 -0.889069 0.016440
vn -0.156977 -0.565802 0.809461
vn -0.174181 -0.730805 0.659989
vn -0.629798 -0.592753 0.501995
vn -0.416210 -0.753358 0.509137
vn -0.692350 -0.630552 0.350792
vn -0.736101 -0.571209 0.363146
vn -0.407022 -0.871355 0.273998
vn -0.110404 -0.993608 -0.023534
vn -0.185214 -0.975925 0.115176
vn -0.402948 -0.910339 0.094418
vn -0.392431 -0.831674 0.392832
vn -0.700720 -0.636289 0.322688
vn -0.257323 -0.760755 0.595849
vn 0.505048 -0.815998 -0.281202
vn 0.805789 -0.469111 -0.361440
vn 0.560597 -0.637849 -0.528091
vn 0.074466 -0.990500 0.115603
vn -0.014224 -0.994592 0.102884
vn 0.143458 -0.792035 -0.593380
vn 0.519936 -0.561134 -0.644046
vn -0.271920 -0.912882 -0.304477
vn -0.065809 -0.976288 -0.206229
vn 0.273563 -0.911362 0.307544
vn -0.271699 -0.885255 -0.377495
vn 0.290015 -0.778273 0.556941
vn 0.216842 -0.820052 0.529617
vn 0.142012 -0.820599 0.553579
vn 0.190012 -0.840938 0.506675
vn -0.001083 -0.951877 0.306478
vn 0.443341 -0.769459 0.459763
vn 0.370037 -0.841985 0.392600
vn 0.358368 -0.928627 0.096044
vn -0.393473 -0.857558 0.331320
vn -0.239332 -0.842806 0.482077
vn -0.001490 -0.833150 0.553044
vn 0.424998 -0.830205 0.360745
vn 0.430188 -0.845895 0.315279
vn 0.166387 -0.821842 -0.544876
vn 0.058789 -0.974543 -0.216356
vn -0.029732 -0.992932 -0.114899
vn 0.153355 -0.945582 -0.286978
vn 0.984979 0.094190 0.144723
vn 0.939114 0.114517 0.323961
vn 0.917313 0.337459 0.211326
vn 0.858539 0.112052 0.500355
vn -0.792564 0.366426 0.487416
vn -0.881497 0.417989 0.219655
vn -0.646809 0.504618 0.571838
vn -0.297655 0.282062 0.912054
vn -0.403064 0.509154 0.760462
vn -0.546478 0.294224 -0.784088
vn -0.503212 0.253685 -0.826088
vn -0.499039 0.241411 -0.832275
vn -0.600567 0.304117 -0.739480
vn -0.600413 0.361184 -0.713477
vn 0.761636 0.583296 -0.282269
vn 0.873270 0.424338 -0.239450
vn 0.740491 0.590824 -0.320313
vn 0.619103 0.719782 -0.314047
vn 0.846464 0.481261 -0.227786
vn 0.704397 0.660913 -0.258882
vn 0.427819 -0.051486 0.902397
vn 0.487311 -0.010814 0.873161
vn 0.439705 -0.016166 0.897997
vn 0.616768 -0.122128 0.777613
vn -0.930028 0.218301 -0.295622
vn -0.949243 0.199567 -0.243129
vn -0.964904 0.247445 -0.087926
vn -0.955691 0.291939 0.037775
vn -0.709252 0.202369 0.675284
vn -0.652308 0.141887 0.744555
vn -0.781331 0.101219 0.615854
vn 0.933273 -0.041590 -0.356752
vn 0.979973 -0.075463 -0.184280
vn 0.957255 -0.157409 -0.242663
vn 0.899889 -0.162340 -0.404779
vn -0.201420 0.066943 -0.977215
vn 0.027636 -0.013898 -0.999521
vn -0.275387 0.099307 -0.956190
vn -0.446987 0.174345 -0.877386
vn -0.606858 0.724738 0.326309
vn -0.502930 0.616610 0.605685
vn -0.573805 0.605293 0.551695
vn -0.656932 0.719392 0.225646
vn -0.727148 0.666225 -0.165529
vn -0.624466 0.652359 -0.429500
vn -0.085624 0.146762 -0.985459
vn -0.395206 0.386239 -0.833446
vn -0.372244 0.285849 -0.883020
vn -0.636704 0.488781 -0.596407
vn -0.490454 0.367005 -0.790419
vn -0.513353 0.563805 -0.646987
vn 0.173474 -0.189949 -0.966347
vn 0.036496 -0.000021 -0.999334
vn 0.793226 -0.605912 -0.060521
vn 0.640380 -0.670891 -0.373924
vn 0.670411 -0.715813 -0.195350
vn 0.381621 -0.596505 -0.706079
vn 0.630778 -0.698294 -0.338387
vn -0.894907 0.386496 0.223074
vn 0.822873 -0.529764 0.205501
vn 0.717163 -0.572143 -0.397908
vn 0.800234 -0.598139 0.043079
vn 0.311094 -0.470973 -0.825472
vn 0.417542 -0.496858 -0.760783
vn 0.343577 -0.645076 -0.682518
vn 0.505437 -0.591387 -0.628327
vn 0.464931 -0.500968 -0.729980
vn 0.532576 -0.563692 -0.631359
vn 0.848741 -0.527435 0.038081
vn 0.788985 -0.267283 0.553229
vn 0.586668 -0.587008 -0.557891
vn 0.906973 -0.412625 0.084502
vn 0.827944 -0.552000 -0.099014
vn 0.939911 -0.329896 0.087957
vn 0.705652 -0.572648 -0.417289
vn 0.890904 -0.432214 -0.139575
vn 0.626701 -0.623484 -0.467455
vn 0.083345 0.088199 0.992610
vn 0.184218 -0.128501 0.974449
vn 0.240984 -0.142319 0.960038
vn 0.105561 0.029854 0.993965
vn 0.323813 -0.043659 0.945113
vn -0.056412 0.186044 0.980921
vn 0.614367 -0.353632 0.705335
vn 0.592924 -0.314836 0.741161
vn 0.338558 -0.303728 0.890577
vn 0.776075 -0.454593 0.437096
vn 0.878318 -0.375537 0.295855
vn 0.808405 -0.325487 0.490449
vn 0.921771 -0.325939 0.210004
vn 0.980428 -0.188641 -0.056355
vn 0.946628 -0.318104 -0.052010
vn -0.838140 0.403039 0.367533
vn -0.933929 0.228121 0.275204
vn -0.347266 0.137958 0.927563
vn -0.597616 0.149827 0.787659
vn -0.443927 0.245302 0.861833
vn -0.128614 0.182931 0.974677
vn 0.436332 -0.155225 0.886295
vn 0.562212 -0.300152 0.770601
vn 0.413995 -0.151690 0.897551
vn 0.431796 -0.188199 0.882119
vn 0.560187 -0.313437 0.766778
vn -0.100132 0.050300 0.993702
vn -0.318807 0.170507 0.932357
vn -0.008928 0.085278 0.996317
vn 0.124503 -0.089327 0.988190
vn 0.801509 -0.167759 0.573969
vn 0.560830 -0.087064 0.823341
vn 0.843055 -0.327782 0.426399
vn -0.555373 0.272189 0.785795

usemtl Pear_Flower
f 48/3/3 50/2/2 57/1/1
f 37/6/6 38/5/5 39/4/4
f 40/9/9 41/8/8 42/7/7
f 43/11/12 44/10/11 42/7/10
f 42/7/15 41/8/14 43/12/13
f 45/15/16 46/14/16 47/13/16
f 34/17/19 36/16/18 48/3/17
f 36/16/22 44/18/21 48/3/20
f 49/19/25 45/15/24 50/2/23
f 37/6/26 50/2/23 45/15/24
f 45/15/24 47/13/27 37/6/26
f 44/18/21 43/12/29 48/3/28
f 41/20/30 48/3/31 43/12/30
f 49/19/33 50/2/32 48/3/3
f 48/3/3 41/20/34 49/19/33
f 41/20/8 40/21/9 49/19/33
f 51/24/37 52/23/36 53/22/35
f 54/25/38 51/24/37 53/22/35
f 54/25/38 53/22/40 55/26/39
f 54/25/38 55/26/39 56/27/41
f 56/27/43 55/26/42 37/6/6
f 53/22/45 50/2/23 55/26/44
f 55/26/44 50/2/23 37/6/26
f 39/4/4 56/27/43 37/6/6
f 37/6/6 47/13/47 46/14/46
f 46/14/46 38/5/5 37/6/6
f 45/15/48 49/19/33 40/21/9
f 54/25/38 56/27/41 39/4/49
f 57/1/51 34/17/19 48/3/50
f 52/23/36 57/1/51 53/22/52
f 57/1/51 52/23/36 34/17/19
f 53/22/45 57/1/54 50/2/53
f 34/30/57 35/29/56 36/28/55

usemtl Pear_Skin
f 201/33/58 86/32/58 83/31/58
f 192/36/61 278/35/60 143/34/59
f 192/36/61 109/38/63 108/37/62
f 108/37/62 278/35/60 192/36/61
f 192/36/61 189/39/64 109/38/63
f 189/39/64 111/40/65 109/38/63
f 279/43/68 120/42/67 196/41/66
f 120/42/67 279/43/68 121/44/69
f 280/47/72 197/46/71 220/45/70
f 280/47/72 279/43/68 196/41/66
f 197/46/71 280/47/72 196/41/66
f 281/48/73 279/43/68 280/47/72
f 281/48/73 137/50/75 136/49/74
f 281/48/73 280/47/72 220/45/70
f 137/50/75 281/48/73 220/45/70
f 281/48/73 282/51/76 279/43/68
f 282/51/76 122/52/77 121/44/69
f 121/44/69 279/43/68 282/51/76
f 282/51/76 281/48/73 136/49/74
f 136/49/74 123/53/78 122/52/77
f 122/52/77 282/51/76 136/49/74
f 133/56/81 132/55/80 283/54/79
f 161/57/82 283/54/79 132/55/80
f 283/54/79 164/59/84 284/58/83
f 164/59/84 165/61/86 126/60/85
f 126/60/85 284/58/83 164/59/84
f 164/59/84 283/54/79 161/57/82
f 124/62/87 283/54/79 284/58/83
f 284/58/83 125/63/88 124/62/87
f 125/63/88 284/58/83 126/60/85
f 124/62/87 285/64/89 133/56/81
f 133/56/81 283/54/79 124/62/87
f 285/64/89 134/65/90 133/56/81
f 124/62/87 123/53/78 285/64/89
f 134/65/90 285/64/89 123/53/78
f 168/68/93 146/67/92 273/66/91
f 185/69/94 168/68/93 273/66/91
f 227/70/95 168/68/93 185/69/94
f 184/72/97 187/71/96 227/70/95
f 227/70/95 185/69/94 184/72/97
f 227/70/95 169/73/98 168/68/93
f 195/75/100 286/74/99 197/46/71
f 195/75/100 142/77/102 141/76/101
f 141/76/101 286/74/99 195/75/100
f 65/79/104 286/74/99 69/78/103
f 141/76/101 70/80/105 69/78/103
f 69/78/103 286/74/99 141/76/101
f 286/74/99 65/79/104 197/46/71
f 68/81/106 197/46/71 65/79/104
f 74/84/109 205/83/108 218/82/107
f 217/87/112 172/86/111 171/85/110
f 217/87/112 171/85/110 75/88/113
f 75/88/113 218/82/107 217/87/112
f 171/85/110 78/89/114 75/88/113
f 74/84/109 218/82/107 75/88/113
f 83/31/117 128/91/116 127/90/115
f 85/93/119 174/92/118 128/91/116
f 128/91/116 83/31/120 85/93/119
f 201/33/121 83/31/117 127/90/115
f 127/90/115 137/50/75 201/33/121
f 58/96/124 59/95/123 60/94/122
f 60/94/122 61/97/125 58/96/124
f 60/94/122 62/98/126 61/97/125
f 63/100/128 64/99/127 62/98/126
f 62/98/126 60/94/122 63/100/128
f 65/79/104 66/102/130 67/101/129
f 67/101/129 68/81/106 65/79/104
f 69/78/103 66/102/130 65/79/104
f 69/78/103 70/80/105 71/103/131
f 69/78/103 72/104/132 66/102/130
f 72/104/132 69/78/103 71/103/131
f 66/102/130 59/95/123 67/101/129
f 73/105/133 74/84/109 75/88/113
f 75/88/113 76/106/134 73/105/133
f 77/107/135 76/106/134 75/88/113
f 75/88/113 78/89/114 77/107/135
f 77/107/135 79/108/136 76/106/134
f 77/107/135 80/109/137 79/108/136
f 79/108/136 81/110/138 76/106/134
f 73/105/133 76/106/134 81/110/138
f 82/112/141 83/31/140 84/111/139
f 82/112/142 85/93/119 83/31/117
f 83/31/117 86/32/143 84/111/139
f 87/113/144 84/111/139 86/32/143
f 82/112/142 84/111/139 58/96/124
f 58/96/124 84/111/139 87/113/144
f 88/116/147 89/115/146 90/114/145
f 90/114/145 91/117/148 88/116/147
f 88/116/147 92/118/149 89/115/146
f 90/114/145 93/119/150 91/117/148
f 93/119/150 94/121/152 95/120/151
f 95/120/151 91/117/148 93/119/150
f 91/117/148 96/123/154 97/122/153
f 96/123/154 98/124/155 97/122/153
f 96/123/154 91/117/148 95/120/151
f 96/123/154 99/125/156 98/124/155
f 97/122/153 100/126/157 88/116/147
f 88/116/147 91/117/148 97/122/153
f 101/129/160 102/128/159 103/127/158
f 103/127/158 104/130/161 101/129/160
f 102/128/159 105/131/162 103/127/158
f 102/128/159 101/129/160 106/132/163
f 103/127/158 107/133/164 104/130/161
f 108/37/62 104/130/161 107/133/164
f 108/37/62 109/38/63 110/134/165
f 110/134/165 104/130/161 108/37/62
f 109/38/63 111/40/65 112/135/166
f 112/135/166 110/134/165 109/38/63
f 101/129/160 104/130/161 110/134/165
f 112/135/166 113/136/167 101/129/160
f 101/129/160 110/134/165 112/135/166
f 113/136/167 114/137/168 106/132/163
f 106/132/163 101/129/160 113/136/167
f 115/140/171 116/139/170 117/138/169
f 117/138/169 118/141/172 115/140/171
f 119/142/173 118/141/172 117/138/169
f 117/138/169 120/42/67 121/44/69
f 121/44/69 119/142/173 117/138/169
f 119/142/173 122/52/77 118/141/172
f 122/52/77 123/53/78 124/62/87
f 124/62/87 118/141/172 122/52/77
f 122/52/77 119/142/173 121/44/69
f 118/141/172 125/63/88 115/140/171
f 125/63/88 126/60/85 115/140/171
f 125/63/88 118/141/172 124/62/87
f 127/90/115 128/91/116 129/143/174
f 130/144/175 129/143/174 128/91/116
f 131/145/176 132/55/80 133/56/81
f 133/56/81 129/143/174 131/145/176
f 131/145/176 129/143/174 130/144/175
f 129/143/174 134/65/90 135/146/177
f 136/49/74 135/146/177 134/65/90
f 134/65/90 129/143/174 133/56/81
f 134/65/90 123/53/78 136/49/74
f 135/146/177 137/50/75 127/90/115
f 127/90/115 129/143/174 135/146/177
f 137/50/75 135/146/177 136/49/74
f 16/149/180 15/148/179 138/147/178
f 138/147/181 23/150/181 16/149/181
f 138/147/178 139/151/183 23/150/182
f 21/152/186 64/99/185 63/100/184
f 63/100/187 138/154/178 15/153/179
f 15/153/179 21/152/186 63/100/128
f 139/151/183 140/155/189 23/150/188
f 64/99/192 20/157/191 23/156/190
f 140/158/193 64/99/185 23/156/188
f 20/157/191 64/99/194 21/152/186
f 141/76/101 142/77/102 143/34/59
f 143/34/59 144/159/195 141/76/101
f 145/160/196 144/159/195 143/34/59
f 144/159/195 145/160/196 146/161/92
f 144/159/195 70/80/105 141/76/101
f 147/164/199 148/163/198 149/162/197
f 148/163/198 99/125/156 149/162/197
f 148/163/198 147/164/199 150/165/200
f 149/162/197 151/167/202 152/166/201
f 152/166/201 147/164/199 149/162/197
f 152/166/201 153/168/203 147/164/199
f 154/169/204 147/164/199 153/168/203
f 152/166/201 145/170/196 153/168/203
f 154/169/204 155/171/205 147/164/199
f 155/171/205 107/172/164 150/165/200
f 150/165/200 147/164/199 155/171/205
f 156/175/208 157/174/207 158/173/206
f 157/174/207 156/175/208 159/176/209
f 160/178/210 161/177/82 156/175/208
f 158/173/206 162/179/211 160/178/210
f 160/178/210 156/175/208 158/173/206
f 163/180/212 160/178/210 162/179/211
f 160/178/210 164/181/84 161/177/82
f 163/180/212 165/182/86 164/181/84
f 164/181/84 160/178/210 163/180/212
f 161/177/82 166/183/213 156/175/208
f 159/176/209 156/175/208 166/183/213
f 161/177/82 132/184/80 166/183/213
f 71/103/131 70/80/105 144/159/195
f 144/159/195 167/185/214 71/103/131
f 144/159/195 146/161/92 168/186/93
f 168/186/93 167/185/214 144/159/195
f 168/186/93 169/188/98 170/187/215
f 170/187/215 167/185/214 168/186/93
f 71/103/131 167/185/214 170/187/215
f 170/187/215 72/104/132 71/103/131
f 171/85/110 172/86/111 173/189/216
f 173/189/216 174/191/118 175/190/217
f 85/192/119 175/190/217 174/191/118
f 171/85/110 173/189/216 175/190/217
f 175/190/217 78/89/114 171/85/110
f 77/107/135 78/89/114 175/190/217
f 175/190/217 176/193/218 77/107/135
f 175/190/217 85/192/119 82/194/219
f 82/194/219 176/193/218 175/190/217
f 82/194/142 177/195/220 176/193/218
f 177/195/220 80/109/137 77/107/135
f 77/107/135 176/193/218 177/195/220
f 178/196/221 100/126/157 97/122/153
f 100/126/157 178/196/221 179/197/222
f 178/196/221 98/124/155 180/198/223
f 98/124/155 148/163/198 150/165/200
f 150/165/200 180/198/223 98/124/155
f 98/124/155 178/196/221 97/122/153
f 98/124/155 99/125/156 148/163/198
f 180/198/223 107/172/164 103/199/158
f 107/172/164 180/198/223 150/165/200
f 180/198/223 105/200/162 178/196/221
f 179/197/222 178/196/221 105/200/162
f 105/200/162 180/198/223 103/199/158
f 181/202/225 172/86/111 182/201/224
f 183/203/226 182/201/224 172/86/111
f 172/86/111 181/202/225 173/189/216
f 183/203/226 157/174/207 159/176/209
f 159/176/209 182/201/224 183/203/226
f 182/201/224 130/204/175 181/202/225
f 159/176/209 166/183/213 130/204/175
f 130/204/175 182/201/224 159/176/209
f 166/183/213 132/184/80 131/205/176
f 131/205/176 130/204/175 166/183/213
f 181/202/225 174/191/118 173/189/216
f 130/204/175 128/206/116 181/202/225
f 174/191/118 181/202/225 128/206/116
f 184/72/97 185/69/94 186/207/227
f 186/207/227 74/84/109 73/105/133
f 187/71/96 186/207/227 73/105/133
f 73/105/133 81/110/138 187/71/96
f 184/72/97 186/207/227 187/71/96
f 188/209/229 189/39/64 190/208/228
f 190/208/228 191/210/230 188/209/229
f 192/36/61 190/208/228 189/39/64
f 193/211/231 111/40/65 189/39/64
f 189/39/64 188/209/229 193/211/231
f 194/212/232 191/210/230 190/208/228
f 192/36/61 142/77/102 194/212/232
f 194/212/232 190/208/228 192/36/61
f 195/75/100 194/212/232 142/77/102
f 194/212/232 196/41/66 191/210/230
f 195/75/100 197/46/71 196/41/66
f 196/41/66 194/212/232 195/75/100
f 188/209/229 198/213/233 193/211/231
f 196/41/66 120/42/67 188/209/229
f 188/209/229 191/210/230 196/41/66
f 198/213/233 188/209/229 120/42/67
f 199/215/235 200/214/234 87/113/144
f 87/113/144 201/33/121 199/215/235
f 87/113/144 86/32/143 201/33/121
f 199/215/235 68/81/106 200/214/234
f 67/101/129 200/214/234 68/81/106
f 200/214/234 59/95/123 58/96/124
f 59/95/123 200/214/234 67/101/129
f 87/113/144 200/214/234 58/96/124
f 202/217/237 186/207/227 203/216/236
f 203/216/236 204/218/238 202/217/237
f 74/84/109 186/207/227 202/217/237
f 202/217/237 205/83/108 74/84/109
f 186/207/227 206/219/239 203/216/236
f 186/207/227 185/69/94 206/219/239
f 207/221/241 113/136/167 208/220/240
f 112/135/166 208/220/240 113/136/167
f 113/136/167 207/221/241 114/137/168
f 193/211/231 208/220/240 112/135/166
f 111/40/65 193/211/231 112/135/166
f 193/211/231 198/213/233 208/220/240
f 117/138/169 208/220/240 198/213/233
f 198/213/233 120/42/67 117/138/169
f 207/221/241 116/139/170 114/137/168
f 117/138/169 116/139/170 207/221/241
f 207/221/241 208/220/240 117/138/169
f 158/173/206 209/223/243 210/222/242
f 210/222/242 162/179/211 158/173/206
f 211/224/244 162/179/211 210/222/242
f 158/173/206 212/226/246 213/225/245
f 213/225/245 209/223/243 158/173/206
f 158/173/206 157/174/207 212/226/246
f 213/225/245 93/119/150 90/114/145
f 90/114/145 209/223/243 213/225/245
f 212/226/246 214/227/247 213/225/245
f 214/227/247 94/121/152 93/119/150
f 93/119/150 213/225/245 214/227/247
f 209/223/243 89/115/146 210/222/242
f 211/224/244 210/222/242 89/115/146
f 89/115/146 209/223/243 90/114/145
f 89/115/146 92/118/149 211/224/244
f 183/203/226 215/229/249 216/228/248
f 212/226/246 157/174/207 183/203/226
f 183/203/226 216/228/248 212/226/246
f 215/229/249 217/87/112 218/82/107
f 183/203/226 172/86/111 215/229/249
f 217/87/112 215/229/249 172/86/111
f 215/229/249 205/83/108 219/230/250
f 205/83/108 215/229/249 218/82/107
f 219/230/250 214/227/247 216/228/248
f 216/228/248 215/229/249 219/230/250
f 212/226/246 216/228/248 214/227/247
f 219/230/250 94/121/152 214/227/247
f 201/33/121 137/50/75 220/45/70
f 220/45/70 197/46/71 68/81/106
f 199/215/235 220/45/70 68/81/106
f 201/33/121 220/45/70 199/215/235
f 221/232/251 177/231/220 82/112/142
f 82/112/142 58/96/124 221/232/251
f 61/97/125 221/232/251 58/96/124
f 62/98/126 221/232/251 61/97/125
f 64/99/252 140/158/189 62/98/126
f 221/234/251 222/233/253 177/195/220
f 221/234/251 62/235/126 222/233/253
f 140/155/254 222/233/253 62/235/126
f 140/155/189 223/236/255 222/233/253
f 222/233/253 80/109/137 177/195/220
f 223/236/255 80/109/137 222/233/253
f 140/155/189 139/151/183 223/236/255
f 223/236/255 139/151/183 224/237/256
f 63/100/258 60/94/122 225/238/257
f 226/239/259 169/73/98 227/70/95
f 228/240/260 226/239/259 227/70/95
f 227/70/95 187/71/96 228/240/260
f 229/241/261 226/239/259 228/240/260
f 229/241/262 139/151/183 138/147/178
f 229/241/264 230/242/263 226/239/259
f 230/242/263 229/241/264 138/147/178
f 230/244/263 169/188/98 226/243/259
f 169/188/98 230/244/263 170/187/215
f 230/244/263 138/154/178 63/100/128
f 63/100/265 225/238/257 230/244/263
f 225/238/257 72/104/132 170/187/215
f 170/187/215 230/244/263 225/238/257
f 187/71/96 81/110/138 224/237/256
f 224/237/256 228/240/260 187/71/96
f 224/237/256 229/241/264 228/240/260
f 229/241/264 224/237/256 139/151/183
f 79/108/136 80/109/137 223/236/255
f 223/236/255 224/237/256 79/108/136
f 81/110/138 79/108/136 224/237/256
f 66/102/130 72/104/132 225/238/257
f 66/102/130 225/238/257 60/94/122
f 59/95/123 66/102/130 60/94/122
f 46/247/268 45/246/267 231/245/266
f 232/248/270 46/247/269 231/245/266
f 231/245/266 233/249/272 232/248/271
f 234/250/274 232/248/273 233/249/272
f 232/248/277 235/251/276 46/247/275
f 234/250/274 236/252/278 235/251/276
f 235/251/276 232/248/279 234/250/274
f 237/255/282 238/254/281 239/253/280
f 238/254/281 116/139/170 115/140/171
f 115/140/171 239/253/280 238/254/281
f 240/256/283 237/255/282 239/253/280
f 239/253/280 241/257/285 240/256/284
f 115/140/171 126/60/85 239/253/280
f 241/257/285 239/253/280 126/60/85
f 240/256/287 242/258/286 236/252/278
f 236/252/278 237/255/282 240/256/284
f 126/60/85 165/61/86 243/259/288
f 243/259/288 241/257/285 126/60/85
f 243/259/288 244/261/290 245/260/289
f 244/261/290 246/263/292 247/262/291
f 247/262/291 245/260/289 244/261/290
f 247/262/291 242/258/293 240/256/284
f 240/256/284 245/260/289 247/262/291
f 241/257/285 243/259/288 245/260/289
f 241/257/285 245/260/289 240/256/284
f 248/265/295 92/118/149 249/264/294
f 92/118/149 248/265/295 211/224/244
f 248/265/295 250/267/297 251/266/296
f 250/267/297 248/265/295 249/264/294
f 252/268/298 248/265/295 251/266/296
f 251/266/296 253/269/299 252/268/298
f 252/268/298 162/179/211 211/224/244
f 211/224/244 248/265/295 252/268/298
f 254/272/302 255/271/301 256/270/300
f 257/274/305 258/273/304 254/272/303
f 254/272/307 259/275/306 257/274/305
f 255/271/301 254/272/302 258/273/308
f 256/270/300 260/276/309 254/272/302
f 257/274/305 259/275/306 44/277/11
f 44/277/11 36/278/55 257/274/305
f 235/251/276 242/258/311 39/279/310
f 39/279/313 38/280/312 235/251/276
f 242/258/315 235/251/314 236/252/278
f 235/251/317 38/280/312 46/247/316
f 261/281/320 253/269/319 251/266/318
f 251/266/323 262/282/322 261/281/321
f 251/266/325 250/267/297 263/283/324
f 263/283/324 262/282/327 251/266/326
f 250/267/297 264/285/329 35/284/328
f 35/284/56 263/283/324 250/267/297
f 52/286/330 262/282/327 263/283/324
f 263/283/324 34/287/57 52/286/330
f 34/287/57 263/283/324 35/284/331
f 261/281/333 262/282/322 52/286/332
f 265/289/336 261/281/335 51/288/334
f 51/288/334 266/290/337 265/289/336
f 246/291/340 253/269/339 261/281/338
f 261/281/342 265/289/336 246/291/341
f 54/292/343 266/290/337 51/288/334
f 261/281/344 52/286/332 51/288/334
f 42/295/347 44/294/346 259/293/345
f 259/293/345 254/296/348 233/249/272
f 260/297/309 233/249/272 254/296/349
f 231/245/266 259/293/345 233/249/272
f 260/297/309 234/250/274 233/249/272
f 42/295/15 259/293/345 231/245/266
f 231/245/266 40/298/350 42/295/15
f 231/245/266 45/246/267 40/298/351
f 264/285/329 258/273/353 35/284/352
f 257/274/305 35/284/352 258/273/353
f 264/285/329 255/271/354 258/273/304
f 36/278/55 35/284/355 257/274/305
f 266/300/358 39/279/357 267/299/356
f 267/299/356 265/301/359 266/300/358
f 247/262/291 246/263/292 265/301/359
f 265/301/359 267/299/356 247/262/291
f 266/300/358 54/302/360 39/279/357
f 39/279/362 242/258/361 267/299/356
f 247/262/291 267/299/356 242/258/363
f 234/250/274 268/303/364 237/255/282
f 237/255/282 236/252/278 234/250/274
f 114/137/168 268/303/364 269/304/365
f 114/137/168 238/254/281 237/255/282
f 237/255/282 268/303/364 114/137/168
f 114/137/168 116/139/170 238/254/281
f 256/270/300 105/200/162 270/305/366
f 105/200/162 256/270/300 179/197/222
f 270/305/366 260/276/309 256/270/300
f 256/270/300 255/271/354 271/306/367
f 179/197/222 256/270/300 271/306/367
f 271/306/367 100/126/157 179/197/222
f 264/285/329 250/267/297 249/264/294
f 92/118/149 271/306/367 255/271/354
f 255/271/368 249/264/294 92/118/149
f 88/116/147 100/126/157 271/306/367
f 271/306/367 92/118/149 88/116/147
f 264/285/329 249/264/294 255/271/354
f 243/309/288 272/308/369 244/307/290
f 243/309/288 165/182/86 163/180/212
f 163/180/212 272/308/369 243/309/288
f 163/180/212 162/179/211 252/268/298
f 252/268/298 272/308/369 163/180/212
f 272/308/369 253/269/370 244/307/290
f 246/291/340 244/307/290 253/269/371
f 253/269/372 272/308/369 252/268/298
f 270/310/366 269/304/365 260/297/309
f 269/304/365 102/128/159 106/132/163
f 270/310/366 105/131/162 102/128/159
f 102/128/159 269/304/365 270/310/366
f 268/303/364 260/297/309 269/304/365
f 106/132/163 114/137/168 269/304/365
f 268/303/364 234/250/274 260/297/309
f 273/66/91 145/170/196 152/166/201
f 145/170/196 273/66/91 146/67/92
f 152/166/201 151/167/202 206/219/239
f 203/216/236 206/219/239 151/167/202
f 273/66/91 152/166/201 206/219/239
f 206/219/239 185/69/94 273/66/91
f 95/120/151 94/121/152 274/311/373
f 274/311/373 275/312/374 95/120/151
f 219/230/250 274/311/373 94/121/152
f 276/313/375 275/312/374 274/311/373
f 219/230/250 205/83/108 276/313/375
f 276/313/375 274/311/373 219/230/250
f 202/217/237 276/313/375 205/83/108
f 276/313/375 204/218/238 277/314/376
f 277/314/376 275/312/374 276/313/375
f 204/218/238 151/167/202 149/162/197
f 149/162/197 277/314/376 204/218/238
f 204/218/238 276/313/375 202/217/237
f 204/218/238 203/216/236 151/167/202
f 277/314/376 96/123/154 95/120/151
f 95/120/151 275/312/374 277/314/376
f 149/162/197 99/125/156 277/314/376
f 96/123/154 277/314/376 99/125/156
f 108/37/62 155/316/205 154/315/204
f 154/315/204 278/35/60 108/37/62
f 108/37/62 107/133/164 155/316/205
f 143/34/59 278/35/60 154/315/204
f 154/315/204 153/317/203 143/34/59
f 153/317/203 145/160/196 143/34/59
f 143/34/59 142/77/102 192/36/61

usemtl Pear_Tail
f 1/320/379 2/319/378 3/318/377
f 5/322/381 1/320/379 4/321/380
f 6/323/384 2/319/383 1/320/382
f 1/320/382 7/325/386 8/324/385
f 8/324/385 6/323/384 1/320/382
f 9/328/389 10/327/388 11/326/387
f 11/326/387 12/329/390 9/328/389
f 13/330/391 11/326/387 10/327/388
f 11/326/387 14/331/392 12/329/390
f 15/334/395 16/333/394 17/332/393
f 18/335/396 17/332/393 16/333/394
f 19/338/399 20/337/398 21/336/397
f 20/337/398 19/338/399 22/339/400
f 21/336/403 15/340/402 19/338/401
f 18/335/406 16/333/405 23/341/404
f 23/341/404 24/342/407 18/335/406
f 24/342/410 23/341/409 20/337/408
f 22/339/411 24/342/410 20/337/408
f 5/322/414 11/344/413 13/343/412
f 13/343/412 7/325/415 5/322/414
f 13/343/412 10/345/417 7/325/416
f 25/347/420 10/345/419 9/346/418
f 10/345/423 25/347/422 7/325/421
f 9/346/418 12/329/425 25/347/424
f 26/348/428 12/329/427 14/331/426
f 12/329/427 26/349/430 25/347/429
f 2/319/378 22/339/400 3/318/431
f 26/349/428 14/351/426 27/350/432
f 27/350/434 28/352/433 26/349/428
f 26/349/437 28/352/436 25/347/435
f 29/353/440 8/324/439 28/352/438
f 28/352/438 8/324/439 25/347/435
f 29/353/442 28/352/441 27/350/432
f 6/323/443 8/324/439 29/353/440
f 30/355/446 6/323/445 31/354/444
f 32/356/449 31/354/448 6/323/447
f 6/323/447 29/353/440 32/356/449
f 14/351/452 11/358/451 5/357/450
f 5/357/455 33/359/454 14/351/453
f 14/351/458 33/359/457 27/350/456
f 33/359/457 29/353/442 27/350/459
f 25/347/422 8/324/385 7/325/421
f 7/325/415 1/320/379 5/322/414
f 30/355/462 24/342/461 6/323/460
f 22/339/411 2/319/383 6/323/384
f 6/323/384 24/342/410 22/339/411
f 30/355/446 31/354/444 18/335/463
f 18/335/406 24/342/407 30/355/464
f 22/339/400 19/338/466 3/318/465
f 3/318/469 19/338/468 17/360/467
f 19/338/401 15/340/402 17/360/467
f 33/359/454 5/357/455 4/361/470
f 32/356/472 29/353/442 33/359/471
f 33/359/471 4/361/473 32/356/472
f 32/356/472 4/361/475 31/354/474
f 4/361/380 3/362/477 31/354/476
f 31/354/479 3/362/477 17/332/478
f 31/354/482 17/332/481 18/335/480
f 1/320/379 3/318/483 4/321/380

usemtl default

