{
	"asset":{
		"generator":"Khronos glTF Blender I/O v5.1.20",
		"version":"2.0"
	},
	"extensionsUsed":[
		"EXT_texture_webp"
	],
	"extensionsRequired":[
		"EXT_texture_webp"
	],
	"scene":0,
	"scenes":[
		{
			"name":"Scene",
			"nodes":[
				0
			]
		}
	],
	"nodes":[
		{
			"mesh":0,
			"name":"ball",
			"rotation":[
				0.7071068286895752,
				0,
				0,
				0.7071068286895752
			],
			"scale":[
				0.009999999776482582,
				0.009999999776482582,
				0.009999999776482582
			],
			"translation":[
				-7.892394933151081e-06,
				0.009220901876688004,
				-0.0004573689657263458
			]
		}
	],
	"materials":[
		{
			"alphaMode":"BLEND",
			"doubleSided":true,
			"name":"Material.001",
			"normalTexture":{
				"index":0
			},
			"pbrMetallicRoughness":{
				"baseColorTexture":{
					"index":1
				},
				"metallicFactor":0
			}
		}
	],
	"meshes":[
		{
			"name":"ball",
			"primitives":[
				{
					"attributes":{
						"POSITION":0,
						"NORMAL":1,
						"TEXCOORD_0":2
					},
					"indices":3,
					"material":0
				}
			]
		}
	],
	"textures":[
		{
			"extensions":{
				"EXT_texture_webp":{
					"source":0
				}
			},
			"sampler":0
		},
		{
			"extensions":{
				"EXT_texture_webp":{
					"source":1
				}
			},
			"sampler":0
		}
	],
	"images":[
		{
			"mimeType":"image/webp",
			"name":"norm",
			"uri":"textures/norm.webp"
		},
		{
			"mimeType":"image/webp",
			"name":"base",
			"uri":"textures/base.webp"
		}
	],
	"accessors":[
		{
			"bufferView":0,
			"componentType":5126,
			"count":2062,
			"max":[
				98.92984771728516,
				98.95601654052734,
				100.91239166259766
			],
			"min":[
				-98.95436096191406,
				-99.08361053466797,
				-102.68199157714844
			],
			"type":"VEC3"
		},
		{
			"bufferView":1,
			"componentType":5126,
			"count":2062,
			"type":"VEC3"
		},
		{
			"bufferView":2,
			"componentType":5126,
			"count":2062,
			"type":"VEC2"
		},
		{
			"bufferView":3,
			"componentType":5123,
			"count":8964,
			"type":"SCALAR"
		}
	],
	"bufferViews":[
		{
			"buffer":0,
			"byteLength":24744,
			"byteOffset":0,
			"target":34962
		},
		{
			"buffer":0,
			"byteLength":24744,
			"byteOffset":24744,
			"target":34962
		},
		{
			"buffer":0,
			"byteLength":16496,
			"byteOffset":49488,
			"target":34962
		},
		{
			"buffer":0,
			"byteLength":17928,
			"byteOffset":65984,
			"target":34963
		}
	],
	"samplers":[
		{
			"magFilter":9729,
			"minFilter":9987
		}
	],
	"buffers":[
		{
			"byteLength":83912,
			"uri":"beachball.bin"
		}
	]
}
