{
 "asset": {
  "generator": "Khronos glTF Blender I/O v5.1.20",
  "version": "2.0"
 },
 "extensionsUsed": [
  "KHR_materials_specular",
  "KHR_materials_ior"
 ],
 "scene": 0,
 "scenes": [
  {
   "name": "Scene",
   "nodes": [
    0,
    1,
    2,
    3,
    4,
    5,
    6,
    7,
    8,
    9,
    10,
    11,
    12,
    13,
    14,
    15,
    16,
    17,
    18,
    19,
    20,
    21,
    22,
    23,
    24
   ]
  }
 ],
 "nodes": [
  {
   "mesh": 0,
   "name": "Box2",
   "scale": [
    14.387938499450684,
    14.387938499450684,
    14.387938499450684
   ],
   "translation": [
    -579.2071533203125,
    92.19963836669922,
    -5.04132080078125
   ]
  },
  {
   "mesh": 1,
   "name": "Object002",
   "scale": [
    14.387938499450684,
    14.387938499450684,
    14.387938499450684
   ],
   "translation": [
    -543.2535400390625,
    92.31370544433594,
    -6.4410400390625
   ]
  },
  {
   "mesh": 2,
   "name": "Object004",
   "scale": [
    14.387938499450684,
    14.387938499450684,
    14.387938499450684
   ],
   "translation": [
    -543.6678466796875,
    128.7708740234375,
    3.59844970703125
   ]
  },
  {
   "mesh": 3,
   "name": "Object006",
   "scale": [
    14.387938499450684,
    14.387938499450684,
    14.387938499450684
   ],
   "translation": [
    -468.90838623046875,
    165.59805297851562,
    -2.99237060546875
   ]
  },
  {
   "mesh": 4,
   "name": "Object008",
   "scale": [
    14.387938499450684,
    14.387938499450684,
    14.387938499450684
   ],
   "translation": [
    -543.5562744140625,
    18.892807006835938,
    2.517425537109375
   ]
  },
  {
   "mesh": 5,
   "name": "Object010",
   "scale": [
    14.387938499450684,
    14.387938499450684,
    14.387938499450684
   ],
   "translation": [
    -505.93426513671875,
    129.16281127929688,
    -6.129608154296875
   ]
  },
  {
   "mesh": 6,
   "name": "Object012",
   "scale": [
    14.387938499450684,
    14.387938499450684,
    14.387938499450684
   ],
   "translation": [
    -468.5954895019531,
    92.47138214111328,
    0.475128173828125
   ]
  },
  {
   "mesh": 7,
   "name": "Object014",
   "scale": [
    14.387938499450684,
    14.387938499450684,
    14.387938499450684
   ],
   "translation": [
    -543.114990234375,
    165.27310180664062,
    -0.87554931640625
   ]
  },
  {
   "mesh": 8,
   "name": "Object016",
   "scale": [
    14.387938499450684,
    14.387938499450684,
    14.387938499450684
   ],
   "translation": [
    -616.3455200195312,
    92.06480407714844,
    -2.347412109375
   ]
  },
  {
   "mesh": 9,
   "name": "Object018",
   "scale": [
    14.387938499450684,
    14.387938499450684,
    14.387938499450684
   ],
   "translation": [
    -505.12469482421875,
    55.383262634277344,
    1.07196044921875
   ]
  },
  {
   "mesh": 10,
   "name": "Object020",
   "scale": [
    14.387938499450684,
    14.387938499450684,
    14.387938499450684
   ],
   "translation": [
    -617.1038208007812,
    19.03192901611328,
    -0.802825927734375
   ]
  },
  {
   "mesh": 11,
   "name": "Object022",
   "scale": [
    14.387938499450684,
    14.387938499450684,
    14.387938499450684
   ],
   "translation": [
    -468.9692077636719,
    19.232826232910156,
    -2.63897705078125
   ]
  },
  {
   "mesh": 12,
   "name": "Object024",
   "scale": [
    14.387938499450684,
    14.387938499450684,
    14.387938499450684
   ],
   "translation": [
    -468.98223876953125,
    128.9081573486328,
    3.2952728271484375
   ]
  },
  {
   "mesh": 13,
   "name": "Object026",
   "scale": [
    14.387938499450684,
    14.387938499450684,
    14.387938499450684
   ],
   "translation": [
    -468.51495361328125,
    55.8831901550293,
    -6.776360034942627
   ]
  },
  {
   "mesh": 14,
   "name": "Object028",
   "scale": [
    14.387938499450684,
    14.387938499450684,
    14.387938499450684
   ],
   "translation": [
    -579.9961547851562,
    55.43661117553711,
    -0.17747879028320312
   ]
  },
  {
   "mesh": 15,
   "name": "Object030",
   "scale": [
    14.387938499450684,
    14.387938499450684,
    14.387938499450684
   ],
   "translation": [
    -505.26470947265625,
    91.86058044433594,
    1.6964492797851562
   ]
  },
  {
   "mesh": 16,
   "name": "Object032",
   "scale": [
    14.387938499450684,
    14.387938499450684,
    14.387938499450684
   ],
   "translation": [
    -506.78070068359375,
    19.08287811279297,
    -5.3199310302734375
   ]
  },
  {
   "mesh": 17,
   "name": "Object034",
   "scale": [
    14.387938499450684,
    14.387938499450684,
    14.387938499450684
   ],
   "translation": [
    -580.3792114257812,
    165.63290405273438,
    -4.2596588134765625
   ]
  },
  {
   "mesh": 18,
   "name": "Object036",
   "scale": [
    14.387938499450684,
    14.387938499450684,
    14.387938499450684
   ],
   "translation": [
    -579.5137329101562,
    18.983779907226562,
    1.89501953125
   ]
  },
  {
   "mesh": 19,
   "name": "Object038",
   "scale": [
    14.387938499450684,
    14.387938499450684,
    14.387938499450684
   ],
   "translation": [
    -543.1963500976562,
    55.53172302246094,
    4.08990478515625
   ]
  },
  {
   "mesh": 20,
   "name": "Object040",
   "scale": [
    14.387938499450684,
    14.387938499450684,
    14.387938499450684
   ],
   "translation": [
    -616.744873046875,
    165.47686767578125,
    0.846160888671875
   ]
  },
  {
   "mesh": 21,
   "name": "Object042",
   "scale": [
    14.387938499450684,
    14.387938499450684,
    14.387938499450684
   ],
   "translation": [
    -506.48297119140625,
    165.37989807128906,
    0.839630126953125
   ]
  },
  {
   "mesh": 22,
   "name": "Object044",
   "scale": [
    14.387938499450684,
    14.387938499450684,
    14.387938499450684
   ],
   "translation": [
    -617.1343994140625,
    55.82815170288086,
    6.37139892578125
   ]
  },
  {
   "mesh": 23,
   "name": "Object046",
   "scale": [
    14.387938499450684,
    14.387938499450684,
    14.387938499450684
   ],
   "translation": [
    -617.005126953125,
    128.74520874023438,
    -5.786376953125
   ]
  },
  {
   "mesh": 24,
   "name": "Object048",
   "scale": [
    14.387938499450684,
    14.387938499450684,
    14.387938499450684
   ],
   "translation": [
    -579.701416015625,
    129.32752990722656,
    5.8214111328125
   ]
  }
 ],
 "materials": [
  {
   "doubleSided": true,
   "extensions": {
    "KHR_materials_specular": {
     "specularColorFactor": [
      0.0,
      0.0,
      0.0
     ]
    },
    "KHR_materials_ior": {
     "ior": 1.600000023841858
    }
   },
   "name": "Stone cube granite panel n1_E:\\PRODAGA 3D MODELI two\\Decor 3d two\\STONE DECOR two\\Stone cube granite panel n1\\Tex Stone cube granite panel n1\\Stone cube granite panel n1 DifMap Final",
   "pbrMetallicRoughness": {
    "baseColorTexture": {
     "index": 0
    },
    "metallicFactor": 0,
    "roughnessFactor": 0
   }
  }
 ],
 "meshes": [
  {
   "name": "Box2",
   "primitives": [
    {
     "attributes": {
      "POSITION": 0,
      "NORMAL": 1,
      "TEXCOORD_0": 2
     },
     "indices": 3,
     "material": 0
    }
   ]
  },
  {
   "name": "Object002",
   "primitives": [
    {
     "attributes": {
      "POSITION": 4,
      "NORMAL": 5,
      "TEXCOORD_0": 6
     },
     "indices": 7,
     "material": 0
    }
   ]
  },
  {
   "name": "Object004",
   "primitives": [
    {
     "attributes": {
      "POSITION": 8,
      "NORMAL": 9,
      "TEXCOORD_0": 10
     },
     "indices": 11,
     "material": 0
    }
   ]
  },
  {
   "name": "Object006",
   "primitives": [
    {
     "attributes": {
      "POSITION": 12,
      "NORMAL": 13,
      "TEXCOORD_0": 14
     },
     "indices": 15,
     "material": 0
    }
   ]
  },
  {
   "name": "Object008",
   "primitives": [
    {
     "attributes": {
      "POSITION": 16,
      "NORMAL": 17,
      "TEXCOORD_0": 18
     },
     "indices": 19,
     "material": 0
    }
   ]
  },
  {
   "name": "Object010",
   "primitives": [
    {
     "attributes": {
      "POSITION": 20,
      "NORMAL": 21,
      "TEXCOORD_0": 22
     },
     "indices": 23,
     "material": 0
    }
   ]
  },
  {
   "name": "Object012",
   "primitives": [
    {
     "attributes": {
      "POSITION": 24,
      "NORMAL": 25,
      "TEXCOORD_0": 26
     },
     "indices": 27,
     "material": 0
    }
   ]
  },
  {
   "name": "Object014",
   "primitives": [
    {
     "attributes": {
      "POSITION": 28,
      "NORMAL": 29,
      "TEXCOORD_0": 30
     },
     "indices": 31,
     "material": 0
    }
   ]
  },
  {
   "name": "Object016",
   "primitives": [
    {
     "attributes": {
      "POSITION": 32,
      "NORMAL": 33,
      "TEXCOORD_0": 34
     },
     "indices": 35,
     "material": 0
    }
   ]
  },
  {
   "name": "Object018",
   "primitives": [
    {
     "attributes": {
      "POSITION": 36,
      "NORMAL": 37,
      "TEXCOORD_0": 38
     },
     "indices": 39,
     "material": 0
    }
   ]
  },
  {
   "name": "Object020",
   "primitives": [
    {
     "attributes": {
      "POSITION": 40,
      "NORMAL": 41,
      "TEXCOORD_0": 42
     },
     "indices": 43,
     "material": 0
    }
   ]
  },
  {
   "name": "Object022",
   "primitives": [
    {
     "attributes": {
      "POSITION": 44,
      "NORMAL": 45,
      "TEXCOORD_0": 46
     },
     "indices": 47,
     "material": 0
    }
   ]
  },
  {
   "name": "Object024",
   "primitives": [
    {
     "attributes": {
      "POSITION": 48,
      "NORMAL": 49,
      "TEXCOORD_0": 50
     },
     "indices": 51,
     "material": 0
    }
   ]
  },
  {
   "name": "Object026",
   "primitives": [
    {
     "attributes": {
      "POSITION": 52,
      "NORMAL": 53,
      "TEXCOORD_0": 54
     },
     "indices": 55,
     "material": 0
    }
   ]
  },
  {
   "name": "Object028",
   "primitives": [
    {
     "attributes": {
      "POSITION": 56,
      "NORMAL": 57,
      "TEXCOORD_0": 58
     },
     "indices": 59,
     "material": 0
    }
   ]
  },
  {
   "name": "Object030",
   "primitives": [
    {
     "attributes": {
      "POSITION": 60,
      "NORMAL": 61,
      "TEXCOORD_0": 62
     },
     "indices": 63,
     "material": 0
    }
   ]
  },
  {
   "name": "Object032",
   "primitives": [
    {
     "attributes": {
      "POSITION": 64,
      "NORMAL": 65,
      "TEXCOORD_0": 66
     },
     "indices": 67,
     "material": 0
    }
   ]
  },
  {
   "name": "Object034",
   "primitives": [
    {
     "attributes": {
      "POSITION": 68,
      "NORMAL": 69,
      "TEXCOORD_0": 70
     },
     "indices": 71,
     "material": 0
    }
   ]
  },
  {
   "name": "Object036",
   "primitives": [
    {
     "attributes": {
      "POSITION": 72,
      "NORMAL": 73,
      "TEXCOORD_0": 74
     },
     "indices": 75,
     "material": 0
    }
   ]
  },
  {
   "name": "Object038",
   "primitives": [
    {
     "attributes": {
      "POSITION": 76,
      "NORMAL": 77,
      "TEXCOORD_0": 78
     },
     "indices": 79,
     "material": 0
    }
   ]
  },
  {
   "name": "Object040",
   "primitives": [
    {
     "attributes": {
      "POSITION": 80,
      "NORMAL": 81,
      "TEXCOORD_0": 82
     },
     "indices": 83,
     "material": 0
    }
   ]
  },
  {
   "name": "Object042",
   "primitives": [
    {
     "attributes": {
      "POSITION": 84,
      "NORMAL": 85,
      "TEXCOORD_0": 86
     },
     "indices": 87,
     "material": 0
    }
   ]
  },
  {
   "name": "Object044",
   "primitives": [
    {
     "attributes": {
      "POSITION": 88,
      "NORMAL": 89,
      "TEXCOORD_0": 90
     },
     "indices": 91,
     "material": 0
    }
   ]
  },
  {
   "name": "Object046",
   "primitives": [
    {
     "attributes": {
      "POSITION": 92,
      "NORMAL": 93,
      "TEXCOORD_0": 94
     },
     "indices": 95,
     "material": 0
    }
   ]
  },
  {
   "name": "Object048",
   "primitives": [
    {
     "attributes": {
      "POSITION": 96,
      "NORMAL": 97,
      "TEXCOORD_0": 98
     },
     "indices": 99,
     "material": 0
    }
   ]
  }
 ],
 "textures": [
  {
   "sampler": 0,
   "source": 0
  }
 ],
 "images": [
  {
   "mimeType": "image/webp",
   "name": "diff",
   "uri": "textures/diff.webp"
  }
 ],
 "accessors": [
  {
   "bufferView": 0,
   "componentType": 5126,
   "count": 2220,
   "max": [
    1.4676655530929565,
    1.319779396057129,
    1.328948974609375
   ],
   "min": [
    -1.467665433883667,
    -1.319779396057129,
    -1.3289566040039062
   ],
   "type": "VEC3"
  },
  {
   "bufferView": 1,
   "componentType": 5126,
   "count": 2220,
   "type": "VEC3"
  },
  {
   "bufferView": 2,
   "componentType": 5126,
   "count": 2220,
   "type": "VEC2"
  },
  {
   "bufferView": 3,
   "componentType": 5123,
   "count": 12324,
   "type": "SCALAR"
  },
  {
   "bufferView": 4,
   "componentType": 5126,
   "count": 2301,
   "max": [
    1.3615760803222656,
    1.3454508781433105,
    1.3569908142089844
   ],
   "min": [
    -1.3615760803222656,
    -1.3454508781433105,
    -1.3569869995117188
   ],
   "type": "VEC3"
  },
  {
   "bufferView": 5,
   "componentType": 5126,
   "count": 2301,
   "type": "VEC3"
  },
  {
   "bufferView": 6,
   "componentType": 5126,
   "count": 2301,
   "type": "VEC2"
  },
  {
   "bufferView": 7,
   "componentType": 5123,
   "count": 12810,
   "type": "SCALAR"
  },
  {
   "bufferView": 8,
   "componentType": 5126,
   "count": 2225,
   "max": [
    1.356130838394165,
    1.3045179843902588,
    1.3486213684082031
   ],
   "min": [
    -1.356130838394165,
    -1.3045181035995483,
    -1.3486213684082031
   ],
   "type": "VEC3"
  },
  {
   "bufferView": 9,
   "componentType": 5126,
   "count": 2225,
   "type": "VEC3"
  },
  {
   "bufferView": 10,
   "componentType": 5126,
   "count": 2225,
   "type": "VEC2"
  },
  {
   "bufferView": 11,
   "componentType": 5123,
   "count": 12360,
   "type": "SCALAR"
  },
  {
   "bufferView": 12,
   "componentType": 5126,
   "count": 2278,
   "max": [
    1.363875389099121,
    1.3433685302734375,
    1.3570899963378906
   ],
   "min": [
    -1.3638758659362793,
    -1.3433685302734375,
    -1.3570899963378906
   ],
   "type": "VEC3"
  },
  {
   "bufferView": 13,
   "componentType": 5126,
   "count": 2278,
   "type": "VEC3"
  },
  {
   "bufferView": 14,
   "componentType": 5126,
   "count": 2278,
   "type": "VEC2"
  },
  {
   "bufferView": 15,
   "componentType": 5123,
   "count": 12672,
   "type": "SCALAR"
  },
  {
   "bufferView": 16,
   "componentType": 5126,
   "count": 2235,
   "max": [
    1.3464698791503906,
    1.2909555435180664,
    1.3317070007324219
   ],
   "min": [
    -1.3464698791503906,
    -1.2909550666809082,
    -1.3317089080810547
   ],
   "type": "VEC3"
  },
  {
   "bufferView": 17,
   "componentType": 5126,
   "count": 2235,
   "type": "VEC3"
  },
  {
   "bufferView": 18,
   "componentType": 5126,
   "count": 2235,
   "type": "VEC2"
  },
  {
   "bufferView": 19,
   "componentType": 5123,
   "count": 12408,
   "type": "SCALAR"
  },
  {
   "bufferView": 20,
   "componentType": 5126,
   "count": 2184,
   "max": [
    1.3902838230133057,
    1.3321757316589355,
    1.3395709991455078
   ],
   "min": [
    -1.3902837038040161,
    -1.332175612449646,
    -1.339569091796875
   ],
   "type": "VEC3"
  },
  {
   "bufferView": 21,
   "componentType": 5126,
   "count": 2184,
   "type": "VEC3"
  },
  {
   "bufferView": 22,
   "componentType": 5126,
   "count": 2184,
   "type": "VEC2"
  },
  {
   "bufferView": 23,
   "componentType": 5123,
   "count": 12144,
   "type": "SCALAR"
  },
  {
   "bufferView": 24,
   "componentType": 5126,
   "count": 2257,
   "max": [
    1.3477177619934082,
    1.3421213626861572,
    1.3390522003173828
   ],
   "min": [
    -1.3477182388305664,
    -1.3421213626861572,
    -1.33905029296875
   ],
   "type": "VEC3"
  },
  {
   "bufferView": 25,
   "componentType": 5126,
   "count": 2257,
   "type": "VEC3"
  },
  {
   "bufferView": 26,
   "componentType": 5126,
   "count": 2257,
   "type": "VEC2"
  },
  {
   "bufferView": 27,
   "componentType": 5123,
   "count": 12546,
   "type": "SCALAR"
  },
  {
   "bufferView": 28,
   "componentType": 5126,
   "count": 2206,
   "max": [
    1.3931834697723389,
    1.3265156745910645,
    1.3313045501708984
   ],
   "min": [
    -1.3931834697723389,
    -1.3265161514282227,
    -1.331308364868164
   ],
   "type": "VEC3"
  },
  {
   "bufferView": 29,
   "componentType": 5126,
   "count": 2206,
   "type": "VEC3"
  },
  {
   "bufferView": 30,
   "componentType": 5126,
   "count": 2206,
   "type": "VEC2"
  },
  {
   "bufferView": 31,
   "componentType": 5123,
   "count": 12270,
   "type": "SCALAR"
  },
  {
   "bufferView": 32,
   "componentType": 5126,
   "count": 2270,
   "max": [
    1.4238338470458984,
    1.327648401260376,
    1.3351707458496094
   ],
   "min": [
    -1.4238333702087402,
    -1.327648401260376,
    -1.3351726531982422
   ],
   "type": "VEC3"
  },
  {
   "bufferView": 33,
   "componentType": 5126,
   "count": 2270,
   "type": "VEC3"
  },
  {
   "bufferView": 34,
   "componentType": 5126,
   "count": 2270,
   "type": "VEC2"
  },
  {
   "bufferView": 35,
   "componentType": 5123,
   "count": 12630,
   "type": "SCALAR"
  },
  {
   "bufferView": 36,
   "componentType": 5126,
   "count": 2204,
   "max": [
    1.3211395740509033,
    1.3459006547927856,
    1.3313465118408203
   ],
   "min": [
    -1.3211394548416138,
    -1.3459012508392334,
    -1.3313465118408203
   ],
   "type": "VEC3"
  },
  {
   "bufferView": 37,
   "componentType": 5126,
   "count": 2204,
   "type": "VEC3"
  },
  {
   "bufferView": 38,
   "componentType": 5126,
   "count": 2204,
   "type": "VEC2"
  },
  {
   "bufferView": 39,
   "componentType": 5123,
   "count": 12258,
   "type": "SCALAR"
  },
  {
   "bufferView": 40,
   "componentType": 5126,
   "count": 2208,
   "max": [
    1.4504809379577637,
    1.343343734741211,
    1.298685073852539
   ],
   "min": [
    -1.4504809379577637,
    -1.3433432579040527,
    -1.2986841201782227
   ],
   "type": "VEC3"
  },
  {
   "bufferView": 41,
   "componentType": 5126,
   "count": 2208,
   "type": "VEC3"
  },
  {
   "bufferView": 42,
   "componentType": 5126,
   "count": 2208,
   "type": "VEC2"
  },
  {
   "bufferView": 43,
   "componentType": 5123,
   "count": 12264,
   "type": "SCALAR"
  },
  {
   "bufferView": 44,
   "componentType": 5126,
   "count": 2234,
   "max": [
    1.4031696319580078,
    1.34814453125,
    1.3625612258911133
   ],
   "min": [
    -1.4031696319580078,
    -1.34814453125,
    -1.3625602722167969
   ],
   "type": "VEC3"
  },
  {
   "bufferView": 45,
   "componentType": 5126,
   "count": 2234,
   "type": "VEC3"
  },
  {
   "bufferView": 46,
   "componentType": 5126,
   "count": 2234,
   "type": "VEC2"
  },
  {
   "bufferView": 47,
   "componentType": 5123,
   "count": 12444,
   "type": "SCALAR"
  },
  {
   "bufferView": 48,
   "componentType": 5126,
   "count": 2200,
   "max": [
    1.3974823951721191,
    1.3184430599212646,
    1.3153419494628906
   ],
   "min": [
    -1.397481918334961,
    -1.3184430599212646,
    -1.3153419494628906
   ],
   "type": "VEC3"
  },
  {
   "bufferView": 49,
   "componentType": 5126,
   "count": 2200,
   "type": "VEC3"
  },
  {
   "bufferView": 50,
   "componentType": 5126,
   "count": 2200,
   "type": "VEC2"
  },
  {
   "bufferView": 51,
   "componentType": 5123,
   "count": 12216,
   "type": "SCALAR"
  },
  {
   "bufferView": 52,
   "componentType": 5126,
   "count": 2165,
   "max": [
    1.32002592086792,
    1.323277235031128,
    1.3615694046020508
   ],
   "min": [
    -1.32002592086792,
    -1.323277473449707,
    -1.3615694046020508
   ],
   "type": "VEC3"
  },
  {
   "bufferView": 53,
   "componentType": 5126,
   "count": 2165,
   "type": "VEC3"
  },
  {
   "bufferView": 54,
   "componentType": 5126,
   "count": 2165,
   "type": "VEC2"
  },
  {
   "bufferView": 55,
   "componentType": 5123,
   "count": 12012,
   "type": "SCALAR"
  },
  {
   "bufferView": 56,
   "componentType": 5126,
   "count": 2147,
   "max": [
    1.3435521125793457,
    1.327406644821167,
    1.3720059394836426
   ],
   "min": [
    -1.3435521125793457,
    -1.3274071216583252,
    -1.3720059394836426
   ],
   "type": "VEC3"
  },
  {
   "bufferView": 57,
   "componentType": 5126,
   "count": 2147,
   "type": "VEC3"
  },
  {
   "bufferView": 58,
   "componentType": 5126,
   "count": 2147,
   "type": "VEC2"
  },
  {
   "bufferView": 59,
   "componentType": 5123,
   "count": 11934,
   "type": "SCALAR"
  },
  {
   "bufferView": 60,
   "componentType": 5126,
   "count": 2121,
   "max": [
    1.3659858703613281,
    1.3535118103027344,
    1.3447942733764648
   ],
   "min": [
    -1.3659859895706177,
    -1.3535118103027344,
    -1.3447937965393066
   ],
   "type": "VEC3"
  },
  {
   "bufferView": 61,
   "componentType": 5126,
   "count": 2121,
   "type": "VEC3"
  },
  {
   "bufferView": 62,
   "componentType": 5126,
   "count": 2121,
   "type": "VEC2"
  },
  {
   "bufferView": 63,
   "componentType": 5123,
   "count": 11778,
   "type": "SCALAR"
  },
  {
   "bufferView": 64,
   "componentType": 5126,
   "count": 2114,
   "max": [
    1.3640546798706055,
    1.3214640617370605,
    1.320631504058838
   ],
   "min": [
    -1.3640546798706055,
    -1.3214635848999023,
    -1.3206305503845215
   ],
   "type": "VEC3"
  },
  {
   "bufferView": 65,
   "componentType": 5126,
   "count": 2114,
   "type": "VEC3"
  },
  {
   "bufferView": 66,
   "componentType": 5126,
   "count": 2114,
   "type": "VEC2"
  },
  {
   "bufferView": 67,
   "componentType": 5123,
   "count": 11730,
   "type": "SCALAR"
  },
  {
   "bufferView": 68,
   "componentType": 5126,
   "count": 2185,
   "max": [
    1.384289026260376,
    1.334752082824707,
    1.357858657836914
   ],
   "min": [
    -1.384289264678955,
    -1.334752082824707,
    -1.3578567504882812
   ],
   "type": "VEC3"
  },
  {
   "bufferView": 69,
   "componentType": 5126,
   "count": 2185,
   "type": "VEC3"
  },
  {
   "bufferView": 70,
   "componentType": 5126,
   "count": 2185,
   "type": "VEC2"
  },
  {
   "bufferView": 71,
   "componentType": 5123,
   "count": 12162,
   "type": "SCALAR"
  },
  {
   "bufferView": 72,
   "componentType": 5126,
   "count": 2256,
   "max": [
    1.37944495677948,
    1.3506669998168945,
    1.318979263305664
   ],
   "min": [
    -1.3794450759887695,
    -1.3506674766540527,
    -1.3189783096313477
   ],
   "type": "VEC3"
  },
  {
   "bufferView": 73,
   "componentType": 5126,
   "count": 2256,
   "type": "VEC3"
  },
  {
   "bufferView": 74,
   "componentType": 5126,
   "count": 2256,
   "type": "VEC2"
  },
  {
   "bufferView": 75,
   "componentType": 5123,
   "count": 12564,
   "type": "SCALAR"
  },
  {
   "bufferView": 76,
   "componentType": 5126,
   "count": 2153,
   "max": [
    1.3338288068771362,
    1.301543116569519,
    1.359696388244629
   ],
   "min": [
    -1.3338288068771362,
    -1.3015434741973877,
    -1.3596973419189453
   ],
   "type": "VEC3"
  },
  {
   "bufferView": 77,
   "componentType": 5126,
   "count": 2153,
   "type": "VEC3"
  },
  {
   "bufferView": 78,
   "componentType": 5126,
   "count": 2153,
   "type": "VEC2"
  },
  {
   "bufferView": 79,
   "componentType": 5123,
   "count": 11982,
   "type": "SCALAR"
  },
  {
   "bufferView": 80,
   "componentType": 5126,
   "count": 2140,
   "max": [
    1.332252025604248,
    1.3246922492980957,
    1.3600616455078125
   ],
   "min": [
    -1.3322525024414062,
    -1.324692726135254,
    -1.3600616455078125
   ],
   "type": "VEC3"
  },
  {
   "bufferView": 81,
   "componentType": 5126,
   "count": 2140,
   "type": "VEC3"
  },
  {
   "bufferView": 82,
   "componentType": 5126,
   "count": 2140,
   "type": "VEC2"
  },
  {
   "bufferView": 83,
   "componentType": 5123,
   "count": 11910,
   "type": "SCALAR"
  },
  {
   "bufferView": 84,
   "componentType": 5126,
   "count": 2150,
   "max": [
    1.3673491477966309,
    1.3642029762268066,
    1.3087291717529297
   ],
   "min": [
    -1.3673491477966309,
    -1.3642024993896484,
    -1.3087291717529297
   ],
   "type": "VEC3"
  },
  {
   "bufferView": 85,
   "componentType": 5126,
   "count": 2150,
   "type": "VEC3"
  },
  {
   "bufferView": 86,
   "componentType": 5126,
   "count": 2150,
   "type": "VEC2"
  },
  {
   "bufferView": 87,
   "componentType": 5123,
   "count": 11928,
   "type": "SCALAR"
  },
  {
   "bufferView": 88,
   "componentType": 5126,
   "count": 2208,
   "max": [
    1.3454546928405762,
    1.3409500122070312,
    1.3420696258544922
   ],
   "min": [
    -1.3454546928405762,
    -1.3409504890441895,
    -1.3420696258544922
   ],
   "type": "VEC3"
  },
  {
   "bufferView": 89,
   "componentType": 5126,
   "count": 2208,
   "type": "VEC3"
  },
  {
   "bufferView": 90,
   "componentType": 5126,
   "count": 2208,
   "type": "VEC2"
  },
  {
   "bufferView": 91,
   "componentType": 5123,
   "count": 12270,
   "type": "SCALAR"
  },
  {
   "bufferView": 92,
   "componentType": 5126,
   "count": 2239,
   "max": [
    1.3811240196228027,
    1.3528528213500977,
    1.3271827697753906
   ],
   "min": [
    -1.3811240196228027,
    -1.3528528213500977,
    -1.3271865844726562
   ],
   "type": "VEC3"
  },
  {
   "bufferView": 93,
   "componentType": 5126,
   "count": 2239,
   "type": "VEC3"
  },
  {
   "bufferView": 94,
   "componentType": 5126,
   "count": 2239,
   "type": "VEC2"
  },
  {
   "bufferView": 95,
   "componentType": 5123,
   "count": 12456,
   "type": "SCALAR"
  },
  {
   "bufferView": 96,
   "componentType": 5126,
   "count": 2236,
   "max": [
    1.3370361328125,
    1.3390367031097412,
    1.3668594360351562
   ],
   "min": [
    -1.3370361328125,
    -1.3390367031097412,
    -1.3668708801269531
   ],
   "type": "VEC3"
  },
  {
   "bufferView": 97,
   "componentType": 5126,
   "count": 2236,
   "type": "VEC3"
  },
  {
   "bufferView": 98,
   "componentType": 5126,
   "count": 2236,
   "type": "VEC2"
  },
  {
   "bufferView": 99,
   "componentType": 5123,
   "count": 12426,
   "type": "SCALAR"
  }
 ],
 "bufferViews": [
  {
   "buffer": 0,
   "byteLength": 26640,
   "byteOffset": 0,
   "target": 34962
  },
  {
   "buffer": 0,
   "byteLength": 26640,
   "byteOffset": 26640,
   "target": 34962
  },
  {
   "buffer": 0,
   "byteLength": 17760,
   "byteOffset": 53280,
   "target": 34962
  },
  {
   "buffer": 0,
   "byteLength": 24648,
   "byteOffset": 71040,
   "target": 34963
  },
  {
   "buffer": 0,
   "byteLength": 27612,
   "byteOffset": 95688,
   "target": 34962
  },
  {
   "buffer": 0,
   "byteLength": 27612,
   "byteOffset": 123300,
   "target": 34962
  },
  {
   "buffer": 0,
   "byteLength": 18408,
   "byteOffset": 150912,
   "target": 34962
  },
  {
   "buffer": 0,
   "byteLength": 25620,
   "byteOffset": 169320,
   "target": 34963
  },
  {
   "buffer": 0,
   "byteLength": 26700,
   "byteOffset": 194940,
   "target": 34962
  },
  {
   "buffer": 0,
   "byteLength": 26700,
   "byteOffset": 221640,
   "target": 34962
  },
  {
   "buffer": 0,
   "byteLength": 17800,
   "byteOffset": 248340,
   "target": 34962
  },
  {
   "buffer": 0,
   "byteLength": 24720,
   "byteOffset": 266140,
   "target": 34963
  },
  {
   "buffer": 0,
   "byteLength": 27336,
   "byteOffset": 290860,
   "target": 34962
  },
  {
   "buffer": 0,
   "byteLength": 27336,
   "byteOffset": 318196,
   "target": 34962
  },
  {
   "buffer": 0,
   "byteLength": 18224,
   "byteOffset": 345532,
   "target": 34962
  },
  {
   "buffer": 0,
   "byteLength": 25344,
   "byteOffset": 363756,
   "target": 34963
  },
  {
   "buffer": 0,
   "byteLength": 26820,
   "byteOffset": 389100,
   "target": 34962
  },
  {
   "buffer": 0,
   "byteLength": 26820,
   "byteOffset": 415920,
   "target": 34962
  },
  {
   "buffer": 0,
   "byteLength": 17880,
   "byteOffset": 442740,
   "target": 34962
  },
  {
   "buffer": 0,
   "byteLength": 24816,
   "byteOffset": 460620,
   "target": 34963
  },
  {
   "buffer": 0,
   "byteLength": 26208,
   "byteOffset": 485436,
   "target": 34962
  },
  {
   "buffer": 0,
   "byteLength": 26208,
   "byteOffset": 511644,
   "target": 34962
  },
  {
   "buffer": 0,
   "byteLength": 17472,
   "byteOffset": 537852,
   "target": 34962
  },
  {
   "buffer": 0,
   "byteLength": 24288,
   "byteOffset": 555324,
   "target": 34963
  },
  {
   "buffer": 0,
   "byteLength": 27084,
   "byteOffset": 579612,
   "target": 34962
  },
  {
   "buffer": 0,
   "byteLength": 27084,
   "byteOffset": 606696,
   "target": 34962
  },
  {
   "buffer": 0,
   "byteLength": 18056,
   "byteOffset": 633780,
   "target": 34962
  },
  {
   "buffer": 0,
   "byteLength": 25092,
   "byteOffset": 651836,
   "target": 34963
  },
  {
   "buffer": 0,
   "byteLength": 26472,
   "byteOffset": 676928,
   "target": 34962
  },
  {
   "buffer": 0,
   "byteLength": 26472,
   "byteOffset": 703400,
   "target": 34962
  },
  {
   "buffer": 0,
   "byteLength": 17648,
   "byteOffset": 729872,
   "target": 34962
  },
  {
   "buffer": 0,
   "byteLength": 24540,
   "byteOffset": 747520,
   "target": 34963
  },
  {
   "buffer": 0,
   "byteLength": 27240,
   "byteOffset": 772060,
   "target": 34962
  },
  {
   "buffer": 0,
   "byteLength": 27240,
   "byteOffset": 799300,
   "target": 34962
  },
  {
   "buffer": 0,
   "byteLength": 18160,
   "byteOffset": 826540,
   "target": 34962
  },
  {
   "buffer": 0,
   "byteLength": 25260,
   "byteOffset": 844700,
   "target": 34963
  },
  {
   "buffer": 0,
   "byteLength": 26448,
   "byteOffset": 869960,
   "target": 34962
  },
  {
   "buffer": 0,
   "byteLength": 26448,
   "byteOffset": 896408,
   "target": 34962
  },
  {
   "buffer": 0,
   "byteLength": 17632,
   "byteOffset": 922856,
   "target": 34962
  },
  {
   "buffer": 0,
   "byteLength": 24516,
   "byteOffset": 940488,
   "target": 34963
  },
  {
   "buffer": 0,
   "byteLength": 26496,
   "byteOffset": 965004,
   "target": 34962
  },
  {
   "buffer": 0,
   "byteLength": 26496,
   "byteOffset": 991500,
   "target": 34962
  },
  {
   "buffer": 0,
   "byteLength": 17664,
   "byteOffset": 1017996,
   "target": 34962
  },
  {
   "buffer": 0,
   "byteLength": 24528,
   "byteOffset": 1035660,
   "target": 34963
  },
  {
   "buffer": 0,
   "byteLength": 26808,
   "byteOffset": 1060188,
   "target": 34962
  },
  {
   "buffer": 0,
   "byteLength": 26808,
   "byteOffset": 1086996,
   "target": 34962
  },
  {
   "buffer": 0,
   "byteLength": 17872,
   "byteOffset": 1113804,
   "target": 34962
  },
  {
   "buffer": 0,
   "byteLength": 24888,
   "byteOffset": 1131676,
   "target": 34963
  },
  {
   "buffer": 0,
   "byteLength": 26400,
   "byteOffset": 1156564,
   "target": 34962
  },
  {
   "buffer": 0,
   "byteLength": 26400,
   "byteOffset": 1182964,
   "target": 34962
  },
  {
   "buffer": 0,
   "byteLength": 17600,
   "byteOffset": 1209364,
   "target": 34962
  },
  {
   "buffer": 0,
   "byteLength": 24432,
   "byteOffset": 1226964,
   "target": 34963
  },
  {
   "buffer": 0,
   "byteLength": 25980,
   "byteOffset": 1251396,
   "target": 34962
  },
  {
   "buffer": 0,
   "byteLength": 25980,
   "byteOffset": 1277376,
   "target": 34962
  },
  {
   "buffer": 0,
   "byteLength": 17320,
   "byteOffset": 1303356,
   "target": 34962
  },
  {
   "buffer": 0,
   "byteLength": 24024,
   "byteOffset": 1320676,
   "target": 34963
  },
  {
   "buffer": 0,
   "byteLength": 25764,
   "byteOffset": 1344700,
   "target": 34962
  },
  {
   "buffer": 0,
   "byteLength": 25764,
   "byteOffset": 1370464,
   "target": 34962
  },
  {
   "buffer": 0,
   "byteLength": 17176,
   "byteOffset": 1396228,
   "target": 34962
  },
  {
   "buffer": 0,
   "byteLength": 23868,
   "byteOffset": 1413404,
   "target": 34963
  },
  {
   "buffer": 0,
   "byteLength": 25452,
   "byteOffset": 1437272,
   "target": 34962
  },
  {
   "buffer": 0,
   "byteLength": 25452,
   "byteOffset": 1462724,
   "target": 34962
  },
  {
   "buffer": 0,
   "byteLength": 16968,
   "byteOffset": 1488176,
   "target": 34962
  },
  {
   "buffer": 0,
   "byteLength": 23556,
   "byteOffset": 1505144,
   "target": 34963
  },
  {
   "buffer": 0,
   "byteLength": 25368,
   "byteOffset": 1528700,
   "target": 34962
  },
  {
   "buffer": 0,
   "byteLength": 25368,
   "byteOffset": 1554068,
   "target": 34962
  },
  {
   "buffer": 0,
   "byteLength": 16912,
   "byteOffset": 1579436,
   "target": 34962
  },
  {
   "buffer": 0,
   "byteLength": 23460,
   "byteOffset": 1596348,
   "target": 34963
  },
  {
   "buffer": 0,
   "byteLength": 26220,
   "byteOffset": 1619808,
   "target": 34962
  },
  {
   "buffer": 0,
   "byteLength": 26220,
   "byteOffset": 1646028,
   "target": 34962
  },
  {
   "buffer": 0,
   "byteLength": 17480,
   "byteOffset": 1672248,
   "target": 34962
  },
  {
   "buffer": 0,
   "byteLength": 24324,
   "byteOffset": 1689728,
   "target": 34963
  },
  {
   "buffer": 0,
   "byteLength": 27072,
   "byteOffset": 1714052,
   "target": 34962
  },
  {
   "buffer": 0,
   "byteLength": 27072,
   "byteOffset": 1741124,
   "target": 34962
  },
  {
   "buffer": 0,
   "byteLength": 18048,
   "byteOffset": 1768196,
   "target": 34962
  },
  {
   "buffer": 0,
   "byteLength": 25128,
   "byteOffset": 1786244,
   "target": 34963
  },
  {
   "buffer": 0,
   "byteLength": 25836,
   "byteOffset": 1811372,
   "target": 34962
  },
  {
   "buffer": 0,
   "byteLength": 25836,
   "byteOffset": 1837208,
   "target": 34962
  },
  {
   "buffer": 0,
   "byteLength": 17224,
   "byteOffset": 1863044,
   "target": 34962
  },
  {
   "buffer": 0,
   "byteLength": 23964,
   "byteOffset": 1880268,
   "target": 34963
  },
  {
   "buffer": 0,
   "byteLength": 25680,
   "byteOffset": 1904232,
   "target": 34962
  },
  {
   "buffer": 0,
   "byteLength": 25680,
   "byteOffset": 1929912,
   "target": 34962
  },
  {
   "buffer": 0,
   "byteLength": 17120,
   "byteOffset": 1955592,
   "target": 34962
  },
  {
   "buffer": 0,
   "byteLength": 23820,
   "byteOffset": 1972712,
   "target": 34963
  },
  {
   "buffer": 0,
   "byteLength": 25800,
   "byteOffset": 1996532,
   "target": 34962
  },
  {
   "buffer": 0,
   "byteLength": 25800,
   "byteOffset": 2022332,
   "target": 34962
  },
  {
   "buffer": 0,
   "byteLength": 17200,
   "byteOffset": 2048132,
   "target": 34962
  },
  {
   "buffer": 0,
   "byteLength": 23856,
   "byteOffset": 2065332,
   "target": 34963
  },
  {
   "buffer": 0,
   "byteLength": 26496,
   "byteOffset": 2089188,
   "target": 34962
  },
  {
   "buffer": 0,
   "byteLength": 26496,
   "byteOffset": 2115684,
   "target": 34962
  },
  {
   "buffer": 0,
   "byteLength": 17664,
   "byteOffset": 2142180,
   "target": 34962
  },
  {
   "buffer": 0,
   "byteLength": 24540,
   "byteOffset": 2159844,
   "target": 34963
  },
  {
   "buffer": 0,
   "byteLength": 26868,
   "byteOffset": 2184384,
   "target": 34962
  },
  {
   "buffer": 0,
   "byteLength": 26868,
   "byteOffset": 2211252,
   "target": 34962
  },
  {
   "buffer": 0,
   "byteLength": 17912,
   "byteOffset": 2238120,
   "target": 34962
  },
  {
   "buffer": 0,
   "byteLength": 24912,
   "byteOffset": 2256032,
   "target": 34963
  },
  {
   "buffer": 0,
   "byteLength": 26832,
   "byteOffset": 2280944,
   "target": 34962
  },
  {
   "buffer": 0,
   "byteLength": 26832,
   "byteOffset": 2307776,
   "target": 34962
  },
  {
   "buffer": 0,
   "byteLength": 17888,
   "byteOffset": 2334608,
   "target": 34962
  },
  {
   "buffer": 0,
   "byteLength": 24852,
   "byteOffset": 2352496,
   "target": 34963
  }
 ],
 "samplers": [
  {
   "magFilter": 9729,
   "minFilter": 9987
  }
 ],
 "buffers": [
  {
   "byteLength": 2377348,
   "uri": "rocks_convex.bin"
  }
 ]
}
