# WaveFront *.obj file (generated by Cheetah3D)

mtllib orange1_lod.mtl

g Orange
v 0.136310 0.173905 -0.052990
v -0.171015 -0.147520 -0.027185
v -0.193240 0.122250 0.007790
v -0.194380 0.091775 -0.080065
v -0.104025 0.202560 0.000200
v -0.103755 -0.204820 -0.018465
v -0.222440 -0.055920 -0.002880
v -0.204195 0.006220 -0.107670
v -0.034255 -0.219260 -0.051600
v -0.133250 0.171080 -0.069065
v -0.019585 0.221580 -0.042055
v -0.126410 -0.050755 -0.185350
v -0.056015 0.204030 -0.084440
v -0.105550 0.128365 -0.157680
v -0.149270 -0.129500 -0.118495
v -0.046120 -0.168480 -0.148070
v -0.059800 0.033795 -0.220175
v -0.019210 -0.064120 -0.216765
v 0.021265 0.154285 -0.166355
v -0.035165 0.104200 -0.199300
v 0.017375 -0.141345 -0.176410
v 0.035890 0.202055 -0.102635
v 0.061850 -0.200725 -0.088750
v 0.078470 0.061720 -0.204770
v 0.064240 -0.046360 -0.215410
v 0.096140 -0.145540 -0.146190
v 0.040070 0.221450 -0.022325
v 0.132735 -0.049220 -0.179875
v 0.112495 0.129790 -0.151165
v 0.173215 0.024205 -0.144585
v 0.186060 -0.087305 -0.099450
v 0.170945 0.114195 -0.101390
v 0.216110 0.020485 -0.067370
v 0.181805 -0.133480 -0.049000
v 0.226850 -0.023605 -0.005465
v 0.101670 0.203910 0.024335
v 0.121750 -0.194760 0.009090
v 0.216725 0.070180 0.010895
v 0.178880 -0.111330 0.093215
v 0.170400 0.144480 0.052790
v 0.015485 0.222595 0.039860
v 0.191290 0.065850 0.102235
v 0.196490 -0.030690 0.115955
v 0.095655 -0.178305 0.105015
v 0.084405 0.150120 0.150455
v 0.132775 0.049135 0.179860
v 0.036040 0.202280 0.099985
v 0.097430 -0.089090 0.186540
v 0.007960 -0.101430 0.203610
v 0.042805 0.109005 0.194875
v 0.039015 -0.200000 0.107220
v 0.032220 0.001495 0.226765
v -0.046420 0.199790 0.099810
v -0.062800 0.065775 0.208030
v -0.065740 -0.022285 0.216265
v -0.021000 0.132925 0.185830
v -0.049185 -0.166385 0.149720
v -0.114635 0.128105 0.151155
v -0.124205 -0.080660 0.174710
v -0.143120 0.026000 0.174390
v -0.044710 0.222095 0.012340
v -0.168915 0.112325 0.103400
v -0.145795 -0.158695 0.080320
v -0.216965 0.025760 0.073370
v -0.114195 0.191210 0.057030
v -0.193340 -0.065905 0.099075
v -0.007765 0.217395 0.007170
v 0.011030 0.217265 0.000905
v 0.051695 -0.219595 0.008840
v -0.030245 -0.219235 0.047880
v 0.008130 -0.215585 -0.002390
v -0.005110 -0.215785 -0.006265
v -0.004190 0.217195 -0.009215
v 0.000010 0.207685 -0.000090
v -0.003240 -0.215435 0.008015
v -0.004210 0.218975 0.005235
v 0.002150 0.214745 -0.006320
v -0.000160 0.215590 0.003180
v 0.008165 0.214575 0.000685
v -0.006550 0.214440 -0.003790

vt 0.778235 0.777858
vt 0.811668 0.872234
vt 0.863274 0.774422
vt 0.181536 0.309456
vt 0.221287 0.266832
vt 0.135973 0.236470
vt 0.562777 0.706384
vt 0.567010 0.633003
vt 0.475290 0.731057
vt 0.434589 0.608152
vt 0.100359 0.303799
vt 0.168565 0.385731
vt 0.654601 0.607074
vt 0.626530 0.707199
vt 0.234631 0.330865
vt 0.024921 0.325131
vt 0.155255 0.502585
vt 0.539362 0.539847
vt 0.657038 0.499692
vt 0.600592 0.441621
vt 0.699067 0.573257
vt 0.290902 0.357116
vt 0.268842 0.308113
vt 0.735375 0.648536
vt 0.300113 0.503488
vt 0.265954 0.411719
vt 0.210034 0.445378
vt 0.765356 0.591297
vt 0.740795 0.475515
vt 0.281151 0.573125
vt 0.368820 0.562640
vt 0.330413 0.428575
vt 0.868003 0.602937
vt 0.912147 0.507617
vt 0.821144 0.510143
vt 0.427634 0.502391
vt 0.504722 0.436025
vt 0.399107 0.412193
vt 0.353583 0.291753
vt 0.304866 0.306752
vt 0.785365 0.709674
vt 0.843677 0.666425
vt 0.966034 0.684874
vt 0.977176 0.601213
vt 0.422042 0.288645
vt 0.366994 0.351888
vt 0.567618 0.344829
vt 0.490227 0.338343
vt 0.496032 0.246254
vt 0.728623 0.779752
vt 0.381927 0.197551
vt 0.330091 0.231204
vt 0.300680 0.269047
vt 0.891204 0.935623
vt 0.938881 0.820748
vt 0.470902 0.147336
vt 0.370252 0.138281
vt 0.413668 0.049927
vt 0.725148 0.713193
vt 0.686432 0.741674
vt 0.311427 0.139957
vt 0.674217 0.824983
vt 0.726065 0.887966
vt 0.277224 0.215866
vt 0.284407 0.000000
vt 0.286567 0.073768
vt 0.595769 0.885929
vt 0.646312 0.971175
vt 0.234773 0.140398
vt 0.224602 0.225128
vt 0.264228 0.273863
vt 0.595174 0.783931
vt 0.441537 0.853901
vt 0.513330 0.829637
vt 0.174136 0.165629
vt 0.699076 0.714935
vt 0.680545 0.689496
vt 0.284108 0.284441
vt 0.290476 0.288077
vt 0.703473 0.710173
vt 0.697244 0.708906
vt 0.286691 0.287753
vt 0.283537 0.291310
vt 0.079299 0.137320
vt 0.010551 0.205417
vt 0.049411 0.447328
vt 0.561563 0.213788
vt 0.533333 0.951399
vt 0.756310 0.978584
vt 0.187521 0.050369
vt 0.297133 0.689844
vt 0.118503 0.709681
vt 0.156084 0.759953
vt 0.154853 0.887122
vt 0.314215 0.850123

vn 0.468033 -0.739259 0.484190
vn 0.451606 -0.398475 0.798291
vn 0.677592 -0.590059 0.438976
vn -0.605530 0.736516 -0.301459
vn -0.487292 0.871556 -0.054197
vn -0.812814 0.581147 0.040025
vn -0.770551 -0.630566 -0.092940
vn -0.696373 -0.542171 -0.470229
vn -0.968730 -0.246081 -0.031720
vn -0.820610 0.038642 -0.570181
vn -0.895308 0.348065 -0.277984
vn -0.474885 0.545613 -0.690501
vn -0.237916 -0.726952 -0.644156
vn -0.460724 -0.877151 -0.135426
vn -0.259150 0.888149 -0.379517
vn -0.266479 0.141431 -0.953408
vn -0.510673 -0.260628 -0.819320
vn -0.130019 -0.328500 -0.935512
vn 0.106809 -0.617144 -0.779567
vn 0.216043 0.892321 -0.396344
vn -0.047780 0.997081 -0.059548
vn 0.268475 -0.878166 -0.395911
vn 0.370356 0.262778 -0.890946
vn 0.036857 0.676758 -0.735283
vn -0.098666 0.458786 -0.883052
vn 0.466096 -0.600642 -0.649603
vn 0.239806 -0.218860 -0.945830
vn 0.592252 -0.193739 -0.782114
vn 0.469021 0.612138 -0.636636
vn 0.829773 -0.307757 -0.465578
vn 0.761965 0.092244 -0.641016
vn 0.942480 0.091909 -0.321380
vn 0.786732 0.452783 -0.419571
vn 0.424974 0.899619 0.100416
vn 0.096583 0.992197 -0.078852
vn 0.511663 -0.855473 0.079793
vn 0.760909 -0.621675 -0.185841
vn 0.993167 -0.114164 0.024201
vn 0.806097 -0.571919 -0.152044
vn 0.758905 0.627546 0.173923
vn 0.588912 0.768297 -0.250805
vn 0.949493 0.312969 0.022663
vn 0.849362 0.290779 0.440489
vn 0.761573 -0.531375 0.371009
vn 0.186299 -0.849793 0.493097
vn 0.434303 0.656055 0.617229
vn 0.152876 0.871716 0.465554
vn 0.022458 0.997839 0.061757
vn 0.565680 0.191218 0.802148
vn 0.834742 -0.144163 0.531435
vn 0.875035 -0.161876 0.456191
vn 0.219199 0.418221 0.881500
vn 0.117473 0.058007 0.991381
vn 0.086140 -0.996193 0.013395
vn -0.135618 -0.976379 0.168202
vn -0.058522 0.591465 0.804204
vn -0.237769 -0.737938 0.631596
vn -0.005770 -0.459848 0.887979
vn -0.193657 0.876333 0.441065
vn -0.285603 -0.099346 0.953185
vn -0.281113 0.267415 0.921664
vn -0.517435 -0.375268 0.769048
vn -0.531295 0.511262 0.675527
vn -0.516999 0.810494 0.275339
vn -0.118774 0.992670 0.022342
vn -0.644814 -0.688181 0.332597
vn -0.926212 0.151308 0.345306
vn -0.842960 -0.268571 0.466142
vn -0.753799 0.483653 0.444822
vn 0.019033 -0.999158 -0.036341
vn -0.047861 -0.994064 -0.097708
vn 0.061833 0.991696 -0.112760
vn -0.109972 0.993719 0.020727
vn -0.053851 -0.996857 0.058099
vn 0.033580 -0.998676 0.038968
vn -0.486165 0.483649 0.727824
vn 0.828094 0.532845 0.174176
vn -0.950580 0.153107 0.270102
vn 0.883042 -0.464289 -0.068354
vn 0.805253 -0.511394 0.300073
vn 0.910279 -0.166972 0.378832
vn -0.649931 0.086152 0.755095
vn -0.854534 0.134450 0.501693
vn 0.049892 0.994651 0.090439
vn -0.284789 0.417233 -0.863025
vn 0.245915 -0.270791 0.930698
vn 0.059013 0.972938 -0.223403
vn -0.022378 0.998805 0.043451
vn 0.135771 0.870691 -0.472719
vn -0.397511 -0.774415 0.492205

usemtl Skin
f 39/3/3 48/2/2 44/1/1
f 3/6/6 5/5/5 10/4/4
f 7/9/9 15/8/8 2/7/7
f 7/9/9 8/10/10 15/8/8
f 3/6/6 10/4/4 4/11/11
f 4/11/11 10/4/4 14/12/12
f 6/14/14 15/8/8 16/13/13
f 13/15/15 14/12/12 10/4/4
f 14/12/12 17/17/16 8/16/10
f 15/8/8 12/18/17 16/13/13
f 12/18/17 17/20/16 18/19/18
f 18/19/18 21/21/19 16/13/13
f 11/23/21 22/22/20 13/15/15
f 16/13/13 21/21/19 23/24/22
f 20/27/25 19/26/24 24/25/23
f 21/21/19 25/29/27 26/28/26
f 24/25/23 28/31/28 25/30/27
f 19/26/24 22/22/20 29/32/29
f 28/35/28 30/34/31 31/33/30
f 28/35/28 31/33/30 26/28/26
f 32/38/33 33/37/32 30/36/31
f 27/40/35 36/39/34 22/22/20
f 23/24/22 34/42/37 37/41/36
f 33/44/32 35/43/38 31/33/30
f 31/33/30 35/43/38 34/42/39
f 1/46/41 36/39/34 40/45/40
f 1/46/41 40/45/40 32/38/33
f 33/37/32 38/48/42 35/47/38
f 38/48/42 40/45/40 42/49/43
f 39/3/44 44/1/1 37/41/36
f 37/41/36 44/1/1 51/50/45
f 40/45/40 36/39/34 45/51/46
f 36/39/34 41/53/48 47/52/47
f 43/55/50 46/54/49 48/2/2
f 43/55/51 48/2/2 39/3/44
f 44/1/1 48/2/2 51/50/45
f 45/51/46 50/57/52 46/56/49
f 50/57/52 52/58/53 46/56/49
f 51/50/45 70/60/55 69/59/54
f 45/51/46 47/52/47 56/61/56
f 49/63/58 57/62/57 51/50/45
f 47/52/47 41/53/48 53/64/59
f 52/58/53 54/66/61 55/65/60
f 56/61/56 54/66/61 52/58/53
f 51/50/45 57/62/57 70/60/55
f 55/68/60 59/67/62 49/63/58
f 53/64/59 58/69/63 56/61/56
f 61/71/65 65/70/64 53/64/59
f 70/60/55 63/72/66 6/14/14
f 53/64/59 65/70/64 58/69/63
f 65/70/64 61/71/65 5/5/5
f 66/74/68 64/73/67 7/9/9
f 62/75/69 65/70/64 3/6/6
f 9/77/71 75/76/70 70/60/55
f 41/53/48 68/79/73 67/78/72
f 69/59/54 75/76/70 71/80/74
f 7/9/9 2/7/7 63/72/66
f 5/5/5 3/6/6 65/70/64
f 70/60/55 75/76/70 69/59/54
f 23/24/22 69/59/54 9/77/71
f 9/77/71 71/80/74 72/81/75
f 6/14/14 9/77/71 70/60/55
f 9/77/71 72/81/75 75/76/70
f 73/83/76 74/82/76 68/79/76
f 67/78/77 74/82/77 73/83/77
f 13/15/15 5/5/5 61/71/65
f 61/71/65 11/23/21 13/15/15
f 7/85/9 64/84/78 4/11/11
f 4/11/11 8/16/10 7/85/9
f 19/26/24 14/12/12 13/15/15
f 13/15/15 22/22/20 19/26/24
f 2/7/7 15/8/8 6/14/14
f 10/4/4 5/5/5 13/15/15
f 15/8/8 8/10/10 12/18/17
f 4/11/11 14/12/12 8/16/10
f 8/16/10 17/17/16 12/86/17
f 9/77/71 6/14/14 16/13/13
f 14/12/12 20/27/25 17/17/16
f 14/12/12 19/26/24 20/27/25
f 12/18/17 18/19/18 16/13/13
f 24/25/23 29/32/29 32/38/33
f 32/38/33 30/36/31 24/25/23
f 17/17/16 24/25/23 25/30/27
f 9/77/71 16/13/13 23/24/22
f 18/19/18 17/20/16 25/29/27
f 21/21/19 18/19/18 25/29/27
f 17/17/16 20/27/25 24/25/23
f 19/26/24 29/32/29 24/25/23
f 11/23/21 27/40/35 22/22/20
f 23/24/22 21/21/19 26/28/26
f 25/29/27 28/35/28 26/28/26
f 34/42/39 35/43/38 43/55/51
f 43/55/81 39/3/80 34/42/79
f 28/31/28 24/25/23 30/36/31
f 23/24/22 26/28/26 34/42/37
f 29/32/29 22/22/20 1/46/41
f 29/32/29 1/46/41 32/38/33
f 26/28/26 31/33/30 34/42/39
f 1/46/41 22/22/20 36/39/34
f 31/33/30 30/34/31 33/44/32
f 69/59/54 23/24/22 37/41/36
f 32/38/33 38/48/42 33/37/32
f 38/48/42 32/38/33 40/45/40
f 35/47/38 38/48/42 42/49/43
f 42/49/43 43/87/51 35/47/38
f 37/41/36 34/42/39 39/3/44
f 36/39/34 27/40/35 41/53/48
f 42/49/43 40/45/40 45/51/46
f 45/51/46 46/56/49 42/49/43
f 66/74/68 59/67/62 60/88/82
f 60/88/82 64/73/67 66/74/68
f 43/87/51 42/49/43 46/56/49
f 3/6/6 4/11/11 64/84/78
f 45/51/46 36/39/34 47/52/47
f 46/54/49 52/89/53 48/2/2
f 48/2/2 49/63/58 51/50/45
f 48/2/2 52/89/53 49/63/58
f 45/51/46 56/61/56 50/57/52
f 52/58/53 50/57/52 56/61/56
f 47/52/47 53/64/59 56/61/56
f 49/63/58 52/89/53 55/68/60
f 57/62/57 49/63/58 59/67/62
f 56/61/56 58/69/63 54/66/61
f 54/66/61 58/69/63 60/90/82
f 53/64/59 41/53/48 61/71/65
f 55/65/60 54/66/61 60/90/82
f 55/68/60 60/88/82 59/67/62
f 57/62/57 59/67/62 63/72/66
f 57/62/57 63/72/66 70/60/55
f 64/84/67 60/90/82 58/69/63
f 58/69/63 62/75/69 64/84/83
f 62/75/69 58/69/63 65/70/64
f 59/67/62 66/74/68 63/72/66
f 68/79/73 27/40/35 11/23/21
f 11/23/21 73/83/84 68/79/73
f 66/74/68 7/9/9 63/72/66
f 64/84/67 62/75/69 3/6/6
f 73/83/84 11/23/21 61/71/65
f 61/71/65 67/78/72 73/83/84
f 61/71/65 41/53/48 67/78/72
f 41/53/48 27/40/35 68/79/73
f 63/72/66 2/7/7 6/14/14
f 37/41/36 51/50/45 69/59/54
f 9/77/71 69/59/54 71/80/74
f 67/78/85 68/79/85 74/82/85

usemtl default
f 76/93/86 78/92/86 79/91/86
f 77/95/88 80/94/87 79/91/87
f 76/93/89 79/91/87 80/94/87
f 75/76/70 72/81/75 71/80/74
f 76/93/90 80/94/90 78/92/90

usemtl default

