{
	"asset":{
		"generator":"Khronos glTF Blender I/O v5.1.20",
		"version":"2.0"
	},
	"scene":0,
	"scenes":[
		{
			"name":"Scene",
			"nodes":[
				0
			]
		}
	],
	"nodes":[
		{
			"mesh":0,
			"name":"aniel",
			"rotation":[
				0,
				-1,
				0,
				7.549789415861596e-08
			],
			"scale":[
				0.009999999776482582,
				0.009999999776482582,
				0.009999999776482582
			]
		}
	],
	"materials":[
		{
			"doubleSided":true,
			"name":"wings",
			"normalTexture":{
				"index":0
			},
			"pbrMetallicRoughness":{
				"baseColorTexture":{
					"index":1
				},
				"metallicFactor":0,
				"roughnessFactor":0.5
			}
		},
		{
			"doubleSided":true,
			"name":"Body",
			"normalTexture":{
				"index":2
			},
			"pbrMetallicRoughness":{
				"baseColorTexture":{
					"index":3
				},
				"metallicFactor":0,
				"roughnessFactor":0.5
			}
		},
		{
			"doubleSided":true,
			"name":"hair",
			"normalTexture":{
				"index":4
			},
			"pbrMetallicRoughness":{
				"baseColorTexture":{
					"index":5
				},
				"metallicFactor":0,
				"roughnessFactor":0.5
			}
		}
	],
	"meshes":[
		{
			"name":"aniel",
			"primitives":[
				{
					"attributes":{
						"POSITION":0,
						"NORMAL":1,
						"TEXCOORD_0":2
					},
					"indices":3,
					"material":0
				},
				{
					"attributes":{
						"POSITION":4,
						"NORMAL":5,
						"TEXCOORD_0":6
					},
					"indices":7,
					"material":1
				},
				{
					"attributes":{
						"POSITION":8,
						"NORMAL":9,
						"TEXCOORD_0":10
					},
					"indices":11,
					"material":2
				}
			]
		}
	],
	"textures":[
		{
			"sampler":0,
			"source":0
		},
		{
			"sampler":0,
			"source":1
		},
		{
			"sampler":0,
			"source":2
		},
		{
			"sampler":0,
			"source":3
		},
		{
			"sampler":0,
			"source":4
		},
		{
			"sampler":0,
			"source":5
		}
	],
	"images":[
		{
			"mimeType":"image/png",
			"name":"wings_norm",
			"uri":"textures/wings_norm.png"
		},
		{
			"mimeType":"image/png",
			"name":"wings_diff",
			"uri":"textures/wings_diff.png"
		},
		{
			"mimeType":"image/png",
			"name":"body_norm",
			"uri":"textures/body_norm.png"
		},
		{
			"mimeType":"image/png",
			"name":"body_diff",
			"uri":"textures/body_diff.png"
		},
		{
			"mimeType":"image/png",
			"name":"hair_norm",
			"uri":"textures/hair_norm.png"
		},
		{
			"mimeType":"image/png",
			"name":"hair_diff",
			"uri":"textures/hair_diff.png"
		}
	],
	"accessors":[
		{
			"bufferView":0,
			"componentType":5126,
			"count":4510,
			"max":[
				52.5230712890625,
				153.9853057861328,
				-4.101771354675293
			],
			"min":[
				-52.53778839111328,
				49.17695999145508,
				-37.41836929321289
			],
			"type":"VEC3"
		},
		{
			"bufferView":1,
			"componentType":5126,
			"count":4510,
			"type":"VEC3"
		},
		{
			"bufferView":2,
			"componentType":5126,
			"count":4510,
			"type":"VEC2"
		},
		{
			"bufferView":3,
			"componentType":5123,
			"count":25632,
			"type":"SCALAR"
		},
		{
			"bufferView":4,
			"componentType":5126,
			"count":5708,
			"max":[
				30.942852020263672,
				174.7257843017578,
				23.053955078125
			],
			"min":[
				-29.32115936279297,
				-0.04884585365653038,
				-32.20949172973633
			],
			"type":"VEC3"
		},
		{
			"bufferView":5,
			"componentType":5126,
			"count":5708,
			"type":"VEC3"
		},
		{
			"bufferView":6,
			"componentType":5126,
			"count":5708,
			"type":"VEC2"
		},
		{
			"bufferView":7,
			"componentType":5123,
			"count":30945,
			"type":"SCALAR"
		},
		{
			"bufferView":8,
			"componentType":5126,
			"count":992,
			"max":[
				14.375065803527832,
				175.793701171875,
				1.9161347150802612
			],
			"min":[
				-12.183453559875488,
				135.413330078125,
				-17.616100311279297
			],
			"type":"VEC3"
		},
		{
			"bufferView":9,
			"componentType":5126,
			"count":992,
			"type":"VEC3"
		},
		{
			"bufferView":10,
			"componentType":5126,
			"count":992,
			"type":"VEC2"
		},
		{
			"bufferView":11,
			"componentType":5123,
			"count":5466,
			"type":"SCALAR"
		}
	],
	"bufferViews":[
		{
			"buffer":0,
			"byteLength":54120,
			"byteOffset":0,
			"target":34962
		},
		{
			"buffer":0,
			"byteLength":54120,
			"byteOffset":54120,
			"target":34962
		},
		{
			"buffer":0,
			"byteLength":36080,
			"byteOffset":108240,
			"target":34962
		},
		{
			"buffer":0,
			"byteLength":51264,
			"byteOffset":144320,
			"target":34963
		},
		{
			"buffer":0,
			"byteLength":68496,
			"byteOffset":195584,
			"target":34962
		},
		{
			"buffer":0,
			"byteLength":68496,
			"byteOffset":264080,
			"target":34962
		},
		{
			"buffer":0,
			"byteLength":45664,
			"byteOffset":332576,
			"target":34962
		},
		{
			"buffer":0,
			"byteLength":61890,
			"byteOffset":378240,
			"target":34963
		},
		{
			"buffer":0,
			"byteLength":11904,
			"byteOffset":440132,
			"target":34962
		},
		{
			"buffer":0,
			"byteLength":11904,
			"byteOffset":452036,
			"target":34962
		},
		{
			"buffer":0,
			"byteLength":7936,
			"byteOffset":463940,
			"target":34962
		},
		{
			"buffer":0,
			"byteLength":10932,
			"byteOffset":471876,
			"target":34963
		}
	],
	"samplers":[
		{
			"magFilter":9729,
			"minFilter":9987
		}
	],
	"buffers":[
		{
			"byteLength":482808,
			"uri":"aniel.bin"
		}
	]
}
