{
	"asset":{
		"generator":"Khronos glTF Blender I/O v5.1.20",
		"version":"2.0"
	},
	"scene":0,
	"scenes":[
		{
			"name":"Scene",
			"nodes":[
				0
			]
		}
	],
	"nodes":[
		{
			"mesh":0,
			"name":"aniel_phys",
			"rotation":[
				0,
				-1,
				0,
				7.549789415861596e-08
			],
			"scale":[
				0.009999999776482582,
				0.009999999776482582,
				0.009999999776482582
			]
		}
	],
	"meshes":[
		{
			"name":"aniel_phys",
			"primitives":[
				{
					"attributes":{
						"POSITION":0
					},
					"indices":1
				}
			]
		}
	],
	"accessors":[
		{
			"bufferView":0,
			"componentType":5126,
			"count":805,
			"max":[
				53.17671585083008,
				175.540771484375,
				23.10342788696289
			],
			"min":[
				-53.132686614990234,
				0.3381430208683014,
				-37.83140182495117
			],
			"type":"VEC3"
		},
		{
			"bufferView":1,
			"componentType":5123,
			"count":3102,
			"type":"SCALAR"
		}
	],
	"bufferViews":[
		{
			"buffer":0,
			"byteLength":9660,
			"byteOffset":0,
			"target":34962
		},
		{
			"buffer":0,
			"byteLength":6204,
			"byteOffset":9660,
			"target":34963
		}
	],
	"buffers":[
		{
			"byteLength":15864,
			"uri":"phys.bin"
		}
	]
}
