{
	"asset":{
		"generator":"Khronos glTF Blender I/O v5.1.20",
		"version":"2.0"
	},
	"extensionsUsed":[
		"KHR_materials_specular",
		"KHR_materials_ior",
		"EXT_texture_webp",
		"KHR_lights_punctual"
	],
	"extensionsRequired":[
		"EXT_texture_webp",
		"KHR_lights_punctual"
	],
	"extensions":{
		"KHR_lights_punctual":{
			"lights":[
				{
					"color":[
						1,
						1,
						1
					],
					"intensity":1.9894367886486917,
					"type":"point",
					"name":"Point.001"
				},
				{
					"color":[
						1,
						1,
						1
					],
					"intensity":1.9894367886486917,
					"spot":{
						"innerConeAngle":0.13089969754219055,
						"outerConeAngle":0.2617993950843811
					},
					"type":"spot",
					"name":"Spot.001"
				},
				{
					"color":[
						1,
						1,
						1
					],
					"intensity":1.9894367886486917,
					"spot":{
						"innerConeAngle":0.13089969754219055,
						"outerConeAngle":0.2617993950843811
					},
					"type":"spot",
					"name":"Spot.002"
				},
				{
					"color":[
						1,
						1,
						1
					],
					"intensity":1.9894367886486917,
					"spot":{
						"innerConeAngle":0.13089969754219055,
						"outerConeAngle":0.2617993950843811
					},
					"type":"spot",
					"name":"Spot.003"
				},
				{
					"color":[
						1,
						1,
						1
					],
					"intensity":1.9894367886486917,
					"spot":{
						"innerConeAngle":0.13089969754219055,
						"outerConeAngle":0.2617993950843811
					},
					"type":"spot",
					"name":"Spot.004"
				},
				{
					"color":[
						1,
						1,
						1
					],
					"intensity":1.9894367886486917,
					"spot":{
						"innerConeAngle":0.13089969754219055,
						"outerConeAngle":0.2617993950843811
					},
					"type":"spot",
					"name":"Spot.005"
				},
				{
					"color":[
						1,
						1,
						1
					],
					"intensity":1.9894367886486917,
					"spot":{
						"innerConeAngle":0.13089969754219055,
						"outerConeAngle":0.2617993950843811
					},
					"type":"spot",
					"name":"Spot.006"
				},
				{
					"color":[
						1,
						1,
						1
					],
					"intensity":1.9894367886486917,
					"spot":{
						"innerConeAngle":0.13089969754219055,
						"outerConeAngle":0.2617993950843811
					},
					"type":"spot",
					"name":"Spot.007"
				},
				{
					"color":[
						1,
						1,
						1
					],
					"intensity":1.9894367886486917,
					"spot":{
						"innerConeAngle":0.13089969754219055,
						"outerConeAngle":0.2617993950843811
					},
					"type":"spot",
					"name":"Spot.008"
				},
				{
					"color":[
						1,
						1,
						1
					],
					"intensity":1.9894367886486917,
					"spot":{
						"innerConeAngle":0.13089969754219055,
						"outerConeAngle":0.2617993950843811
					},
					"type":"spot",
					"name":"Spot.009"
				},
				{
					"color":[
						1,
						1,
						1
					],
					"intensity":1.9894367886486917,
					"spot":{
						"innerConeAngle":0.13089969754219055,
						"outerConeAngle":0.2617993950843811
					},
					"type":"spot",
					"name":"Spot.010"
				},
				{
					"color":[
						1,
						1,
						1
					],
					"intensity":1.1936620731892151,
					"spot":{
						"innerConeAngle":0.2748893601572622,
						"outerConeAngle":0.39269909262657166
					},
					"type":"spot",
					"name":"Spot.011"
				}
			]
		}
	},
	"scene":0,
	"scenes":[
		{
			"name":"Scene",
			"nodes":[
				14,
				21,
				48
			]
		}
	],
	"nodes":[
		{
			"mesh":0,
			"name":"evora"
		},
		{
			"extensions":{
				"KHR_lights_punctual":{
					"light":0
				}
			},
			"name":"Point",
			"rotation":[
				-0.7071068286895752,
				0,
				0,
				0.7071068286895752
			],
			"translation":[
				0,
				7,
				1
			]
		},
		{
			"extensions":{
				"KHR_lights_punctual":{
					"light":1
				}
			},
			"name":"Spot.001",
			"rotation":[
				-0.01542538870126009,
				-0.7069385051727295,
				0.7069385051727295,
				0.01542544923722744
			],
			"translation":[
				6.5,
				0,
				1.3179025650024414
			]
		},
		{
			"extensions":{
				"KHR_lights_punctual":{
					"light":2
				}
			},
			"name":"Spot.002",
			"rotation":[
				-0.01542538870126009,
				-0.7069385051727295,
				0.7069385051727295,
				0.01542544923722744
			],
			"translation":[
				6.5,
				0,
				-1.0035805702209473
			]
		},
		{
			"extensions":{
				"KHR_lights_punctual":{
					"light":3
				}
			},
			"name":"Spot.003",
			"rotation":[
				-0.01542538870126009,
				-0.7069385051727295,
				0.7069385051727295,
				0.01542544923722744
			],
			"translation":[
				6.5,
				0,
				-3.6428143978118896
			]
		},
		{
			"extensions":{
				"KHR_lights_punctual":{
					"light":4
				}
			},
			"name":"Spot.004",
			"rotation":[
				0.706938624382019,
				0.015425450168550014,
				0.01542544737458229,
				0.7069383859634399
			],
			"translation":[
				-6.549998760223389,
				0,
				-3.8376998901367188
			]
		},
		{
			"extensions":{
				"KHR_lights_punctual":{
					"light":5
				}
			},
			"name":"Spot.005",
			"rotation":[
				0.706938624382019,
				0.015425450168550014,
				0.01542544737458229,
				0.7069383859634399
			],
			"translation":[
				-6.549998760223389,
				0,
				-1.2687571048736572
			]
		},
		{
			"extensions":{
				"KHR_lights_punctual":{
					"light":6
				}
			},
			"name":"Spot.006",
			"rotation":[
				0.4889736771583557,
				-0.48897358775138855,
				0.5107885599136353,
				0.5107884407043457
			],
			"translation":[
				-5.634317398071289,
				0,
				-4.349999904632568
			]
		},
		{
			"extensions":{
				"KHR_lights_punctual":{
					"light":7
				}
			},
			"name":"Spot.007",
			"rotation":[
				0.4889736771583557,
				-0.48897358775138855,
				0.5107885599136353,
				0.5107884407043457
			],
			"translation":[
				-2.764188289642334,
				0,
				-4.349999904632568
			]
		},
		{
			"extensions":{
				"KHR_lights_punctual":{
					"light":8
				}
			},
			"name":"Spot.008",
			"rotation":[
				0.4889736771583557,
				-0.48897358775138855,
				0.5107885599136353,
				0.5107884407043457
			],
			"translation":[
				0.17680788040161133,
				0,
				-4.349999904632568
			]
		},
		{
			"extensions":{
				"KHR_lights_punctual":{
					"light":9
				}
			},
			"name":"Spot.009",
			"rotation":[
				0.4889736771583557,
				-0.48897358775138855,
				0.5107885599136353,
				0.5107884407043457
			],
			"translation":[
				2.9052019119262695,
				0,
				-4.349999904632568
			]
		},
		{
			"extensions":{
				"KHR_lights_punctual":{
					"light":10
				}
			},
			"name":"Spot.010",
			"rotation":[
				0.4889736771583557,
				-0.48897358775138855,
				0.5107885599136353,
				0.5107884407043457
			],
			"translation":[
				5.66903018951416,
				0,
				-4.349999904632568
			]
		},
		{
			"extensions":{
				"KHR_lights_punctual":{
					"light":11
				}
			},
			"name":"Spot.011",
			"rotation":[
				-0.36833375692367554,
				-0.1689658761024475,
				-0.06826663017272949,
				0.9116581082344055
			],
			"translation":[
				-3.0523946285247803,
				9.370057106018066,
				7.900763511657715
			]
		},
		{
			"children":[
				1,
				2,
				3,
				4,
				5,
				6,
				7,
				8,
				9,
				10,
				11,
				12
			],
			"name":"lights"
		},
		{
			"children":[
				0,
				13
			],
			"name":"environment"
		},
		{
			"mesh":1,
			"name":"diana",
			"translation":[
				-4.501288414001465,
				1.4568841457366943,
				-2.4580516815185547
			]
		},
		{
			"mesh":2,
			"name":"janus",
			"translation":[
				0.010635670274496078,
				1.6071094274520874,
				0.028943728655576706
			]
		},
		{
			"mesh":3,
			"name":"lion",
			"rotation":[
				0,
				-0.7071066498756409,
				-0.70710688829422,
				3.090861255827804e-08
			],
			"translation":[
				4.6767754554748535,
				0.7114014029502869,
				-2.4843859672546387
			]
		},
		{
			"mesh":4,
			"name":"plinth1"
		},
		{
			"mesh":5,
			"name":"plinth2",
			"translation":[
				5.463283538818359,
				0.0019930980633944273,
				3.8449552059173584
			]
		},
		{
			"mesh":6,
			"name":"teapot",
			"translation":[
				5.477653980255127,
				1.5271981954574585,
				3.8296759128570557
			]
		},
		{
			"children":[
				15,
				16,
				17,
				18,
				19,
				20
			],
			"name":"dynamics"
		},
		{
			"mesh":7,
			"name":"Box019",
			"translation":[
				-5.333987712860107,
				-2.0500078201293945,
				-0.8049319386482239
			]
		},
		{
			"mesh":8,
			"name":"Object433",
			"translation":[
				-5.333987712860107,
				-2.0500078201293945,
				-0.8049319386482239
			]
		},
		{
			"mesh":9,
			"name":"Object434",
			"translation":[
				-5.333987712860107,
				-2.0500078201293945,
				-0.8049319386482239
			]
		},
		{
			"mesh":10,
			"name":"Object435",
			"translation":[
				-5.333987712860107,
				-2.0500078201293945,
				-0.8049319386482239
			]
		},
		{
			"mesh":11,
			"name":"Object436",
			"translation":[
				-5.333987712860107,
				-2.0500078201293945,
				-0.8049319386482239
			]
		},
		{
			"mesh":12,
			"name":"Object437",
			"translation":[
				-5.333987712860107,
				-2.0500078201293945,
				-0.8049319386482239
			]
		},
		{
			"mesh":13,
			"name":"Object438",
			"translation":[
				-5.333987712860107,
				-2.0500078201293945,
				-0.8049319386482239
			]
		},
		{
			"mesh":14,
			"name":"Object439",
			"translation":[
				-5.333987712860107,
				-2.0500078201293945,
				-0.8049319386482239
			]
		},
		{
			"mesh":15,
			"name":"Object440",
			"translation":[
				-5.333987712860107,
				-2.0500078201293945,
				-0.8049319386482239
			]
		},
		{
			"mesh":16,
			"name":"Object441",
			"translation":[
				-5.333987712860107,
				-2.0500078201293945,
				-0.8049319386482239
			]
		},
		{
			"mesh":17,
			"name":"Object442",
			"translation":[
				-5.333987712860107,
				-2.0500078201293945,
				-0.8049319386482239
			]
		},
		{
			"mesh":18,
			"name":"Object443",
			"translation":[
				-5.333987712860107,
				-2.0500078201293945,
				-0.8049319386482239
			]
		},
		{
			"mesh":19,
			"name":"Object444",
			"translation":[
				-5.333987712860107,
				-2.0500078201293945,
				-0.8049319386482239
			]
		},
		{
			"mesh":20,
			"name":"Object445",
			"translation":[
				-5.333987712860107,
				-2.0500078201293945,
				-0.8049319386482239
			]
		},
		{
			"mesh":21,
			"name":"Object446",
			"translation":[
				-5.333987712860107,
				-2.0500078201293945,
				-0.8049319386482239
			]
		},
		{
			"mesh":22,
			"name":"Object447",
			"translation":[
				-5.333987712860107,
				-2.0500078201293945,
				-0.8049319386482239
			]
		},
		{
			"mesh":23,
			"name":"Object448",
			"translation":[
				-5.333987712860107,
				-2.0500078201293945,
				-0.8049319386482239
			]
		},
		{
			"mesh":24,
			"name":"Object449",
			"translation":[
				-5.333987712860107,
				-2.0500078201293945,
				-0.8049319386482239
			]
		},
		{
			"mesh":25,
			"name":"Object450",
			"translation":[
				-5.333987712860107,
				-2.0500078201293945,
				-0.8049319386482239
			]
		},
		{
			"mesh":26,
			"name":"Object451",
			"translation":[
				-5.333987712860107,
				-2.0500078201293945,
				-0.8049319386482239
			]
		},
		{
			"mesh":27,
			"name":"Object452",
			"translation":[
				-5.333987712860107,
				-2.0500078201293945,
				-0.8049319386482239
			]
		},
		{
			"mesh":28,
			"name":"Object453",
			"translation":[
				-5.333987712860107,
				-2.0500078201293945,
				-0.8049319386482239
			]
		},
		{
			"mesh":29,
			"name":"Object454",
			"translation":[
				-5.333987712860107,
				-2.0500078201293945,
				-0.8049319386482239
			]
		},
		{
			"mesh":30,
			"name":"Object455",
			"translation":[
				-5.333987712860107,
				-2.0500078201293945,
				-0.8049319386482239
			]
		},
		{
			"mesh":31,
			"name":"Object456",
			"translation":[
				-5.333987712860107,
				-2.0500078201293945,
				-0.8049319386482239
			]
		},
		{
			"children":[
				22,
				23,
				24,
				25,
				26,
				27,
				28,
				29,
				30,
				31,
				32,
				33,
				34,
				35,
				36,
				37,
				38,
				39,
				40,
				41,
				42,
				43,
				44,
				45,
				46
			],
			"name":"rocks",
			"translation":[
				5.333987712860107,
				2.0500078201293945,
				0.8049319386482239
			]
		},
		{
			"children":[
				47
			],
			"name":"transient_assets"
		}
	],
	"materials":[
		{
			"doubleSided":true,
			"extensions":{
				"KHR_materials_specular":{
					"specularFactor":0
				}
			},
			"name":"material_0",
			"pbrMetallicRoughness":{
				"baseColorTexture":{
					"index":0
				},
				"metallicFactor":0
			}
		},
		{
			"doubleSided":true,
			"name":"material_1",
			"pbrMetallicRoughness":{
				"baseColorTexture":{
					"index":1
				},
				"metallicFactor":0
			}
		},
		{
			"doubleSided":true,
			"name":"material_2",
			"pbrMetallicRoughness":{
				"baseColorTexture":{
					"index":2
				},
				"metallicFactor":0
			}
		},
		{
			"doubleSided":true,
			"name":"material_3",
			"pbrMetallicRoughness":{
				"baseColorTexture":{
					"index":3
				},
				"metallicFactor":0
			}
		},
		{
			"doubleSided":true,
			"name":"material_4",
			"pbrMetallicRoughness":{
				"baseColorTexture":{
					"index":4
				},
				"metallicFactor":0
			}
		},
		{
			"doubleSided":true,
			"name":"material_5",
			"pbrMetallicRoughness":{
				"baseColorTexture":{
					"index":5
				},
				"metallicFactor":0
			}
		},
		{
			"doubleSided":true,
			"extensions":{
				"KHR_materials_specular":{
					"specularFactor":0.5322027206420898
				}
			},
			"name":"material_6",
			"pbrMetallicRoughness":{
				"baseColorTexture":{
					"index":6
				},
				"metallicFactor":0
			}
		},
		{
			"doubleSided":true,
			"name":"material_7",
			"pbrMetallicRoughness":{
				"baseColorTexture":{
					"index":7
				},
				"metallicFactor":0
			}
		},
		{
			"doubleSided":true,
			"name":"Diana_O_Material_u1_v1",
			"pbrMetallicRoughness":{
				"baseColorTexture":{
					"index":8
				},
				"metallicFactor":0
			}
		},
		{
			"doubleSided":true,
			"name":"Material.001",
			"pbrMetallicRoughness":{
				"baseColorTexture":{
					"index":9
				},
				"metallicFactor":0,
				"roughnessFactor":0.5
			}
		},
		{
			"doubleSided":true,
			"name":"Sketchfab_Model_Material_u1_v1",
			"pbrMetallicRoughness":{
				"baseColorTexture":{
					"index":10
				},
				"metallicFactor":0,
				"roughnessFactor":0.5
			}
		},
		{
			"doubleSided":true,
			"name":"material_0.002",
			"normalTexture":{
				"index":11
			},
			"pbrMetallicRoughness":{
				"baseColorTexture":{
					"index":12
				},
				"metallicFactor":0,
				"roughnessFactor":0.8570349812507629
			}
		},
		{
			"doubleSided":true,
			"name":"Scene_-_Root",
			"normalTexture":{
				"index":13
			},
			"pbrMetallicRoughness":{
				"baseColorTexture":{
					"index":14
				},
				"metallicFactor":0,
				"metallicRoughnessTexture":{
					"index":15
				}
			}
		},
		{
			"doubleSided":true,
			"extensions":{
				"KHR_materials_specular":{
					"specularTexture":{
						"index":16
					}
				}
			},
			"name":"Material.003",
			"pbrMetallicRoughness":{
				"baseColorTexture":{
					"index":17
				},
				"metallicFactor":0,
				"roughnessFactor":0.5
			}
		},
		{
			"doubleSided":true,
			"extensions":{
				"KHR_materials_specular":{
					"specularColorFactor":[
						0.0,
						0.0,
						0.0
					]
				},
				"KHR_materials_ior":{
					"ior":1.600000023841858
				}
			},
			"name":"Stone cube granite panel n1_E:\\PRODAGA 3D MODELI two\\Decor 3d two\\STONE DECOR two\\Stone cube granite panel n1\\Tex Stone cube granite panel n1\\Stone cube granite panel n1 DifMap Final",
			"pbrMetallicRoughness":{
				"baseColorTexture":{
					"index":18
				},
				"metallicFactor":0,
				"roughnessFactor":0
			}
		}
	],
	"meshes":[
		{
			"name":"Object_0",
			"primitives":[
				{
					"attributes":{
						"POSITION":0,
						"NORMAL":1,
						"TEXCOORD_0":2
					},
					"indices":3,
					"material":0
				},
				{
					"attributes":{
						"POSITION":4,
						"NORMAL":5,
						"TEXCOORD_0":6
					},
					"indices":7,
					"material":1
				},
				{
					"attributes":{
						"POSITION":8,
						"NORMAL":9,
						"TEXCOORD_0":10
					},
					"indices":11,
					"material":2
				},
				{
					"attributes":{
						"POSITION":12,
						"NORMAL":13,
						"TEXCOORD_0":14
					},
					"indices":15,
					"material":3
				},
				{
					"attributes":{
						"POSITION":16,
						"NORMAL":17,
						"TEXCOORD_0":18
					},
					"indices":19,
					"material":4
				},
				{
					"attributes":{
						"POSITION":20,
						"NORMAL":21,
						"TEXCOORD_0":22
					},
					"indices":23,
					"material":5
				},
				{
					"attributes":{
						"POSITION":24,
						"NORMAL":25,
						"TEXCOORD_0":26
					},
					"indices":27,
					"material":6
				},
				{
					"attributes":{
						"POSITION":28,
						"NORMAL":29,
						"TEXCOORD_0":30
					},
					"indices":31,
					"material":7
				}
			]
		},
		{
			"name":"Object_0.001",
			"primitives":[
				{
					"attributes":{
						"POSITION":32,
						"NORMAL":33,
						"TEXCOORD_0":34
					},
					"indices":35,
					"material":8
				}
			]
		},
		{
			"name":"janus",
			"primitives":[
				{
					"attributes":{
						"POSITION":36,
						"NORMAL":37,
						"TEXCOORD_0":38
					},
					"indices":39,
					"material":9
				}
			]
		},
		{
			"name":"Mesh_0",
			"primitives":[
				{
					"attributes":{
						"POSITION":40,
						"NORMAL":41,
						"TEXCOORD_0":42
					},
					"indices":43,
					"material":10
				}
			]
		},
		{
			"name":"Object_2.001",
			"primitives":[
				{
					"attributes":{
						"POSITION":44,
						"NORMAL":45,
						"TEXCOORD_0":46
					},
					"indices":47,
					"material":11
				}
			]
		},
		{
			"name":"Aset_stone_carved_M_tfyhdeyfa_LOD0__0",
			"primitives":[
				{
					"attributes":{
						"POSITION":48,
						"NORMAL":49,
						"TEXCOORD_0":50
					},
					"indices":51,
					"material":12
				}
			]
		},
		{
			"name":"Utah Teapot.001",
			"primitives":[
				{
					"attributes":{
						"POSITION":52,
						"NORMAL":53,
						"TEXCOORD_0":54
					},
					"indices":55,
					"material":13
				}
			]
		},
		{
			"name":"Box019",
			"primitives":[
				{
					"attributes":{
						"POSITION":56,
						"NORMAL":57,
						"TEXCOORD_0":58
					},
					"indices":59,
					"material":14
				}
			]
		},
		{
			"name":"Object433",
			"primitives":[
				{
					"attributes":{
						"POSITION":60,
						"NORMAL":61,
						"TEXCOORD_0":62
					},
					"indices":63,
					"material":14
				}
			]
		},
		{
			"name":"Object434",
			"primitives":[
				{
					"attributes":{
						"POSITION":64,
						"NORMAL":65,
						"TEXCOORD_0":66
					},
					"indices":67,
					"material":14
				}
			]
		},
		{
			"name":"Object435",
			"primitives":[
				{
					"attributes":{
						"POSITION":68,
						"NORMAL":69,
						"TEXCOORD_0":70
					},
					"indices":71,
					"material":14
				}
			]
		},
		{
			"name":"Object436",
			"primitives":[
				{
					"attributes":{
						"POSITION":72,
						"NORMAL":73,
						"TEXCOORD_0":74
					},
					"indices":75,
					"material":14
				}
			]
		},
		{
			"name":"Object437",
			"primitives":[
				{
					"attributes":{
						"POSITION":76,
						"NORMAL":77,
						"TEXCOORD_0":78
					},
					"indices":79,
					"material":14
				}
			]
		},
		{
			"name":"Object438",
			"primitives":[
				{
					"attributes":{
						"POSITION":80,
						"NORMAL":81,
						"TEXCOORD_0":82
					},
					"indices":83,
					"material":14
				}
			]
		},
		{
			"name":"Object439",
			"primitives":[
				{
					"attributes":{
						"POSITION":84,
						"NORMAL":85,
						"TEXCOORD_0":86
					},
					"indices":87,
					"material":14
				}
			]
		},
		{
			"name":"Object440",
			"primitives":[
				{
					"attributes":{
						"POSITION":88,
						"NORMAL":89,
						"TEXCOORD_0":90
					},
					"indices":91,
					"material":14
				}
			]
		},
		{
			"name":"Object441",
			"primitives":[
				{
					"attributes":{
						"POSITION":92,
						"NORMAL":93,
						"TEXCOORD_0":94
					},
					"indices":95,
					"material":14
				}
			]
		},
		{
			"name":"Object442",
			"primitives":[
				{
					"attributes":{
						"POSITION":96,
						"NORMAL":97,
						"TEXCOORD_0":98
					},
					"indices":99,
					"material":14
				}
			]
		},
		{
			"name":"Object443",
			"primitives":[
				{
					"attributes":{
						"POSITION":100,
						"NORMAL":101,
						"TEXCOORD_0":102
					},
					"indices":103,
					"material":14
				}
			]
		},
		{
			"name":"Object444",
			"primitives":[
				{
					"attributes":{
						"POSITION":104,
						"NORMAL":105,
						"TEXCOORD_0":106
					},
					"indices":107,
					"material":14
				}
			]
		},
		{
			"name":"Object445",
			"primitives":[
				{
					"attributes":{
						"POSITION":108,
						"NORMAL":109,
						"TEXCOORD_0":110
					},
					"indices":111,
					"material":14
				}
			]
		},
		{
			"name":"Object446",
			"primitives":[
				{
					"attributes":{
						"POSITION":112,
						"NORMAL":113,
						"TEXCOORD_0":114
					},
					"indices":115,
					"material":14
				}
			]
		},
		{
			"name":"Object447",
			"primitives":[
				{
					"attributes":{
						"POSITION":116,
						"NORMAL":117,
						"TEXCOORD_0":118
					},
					"indices":119,
					"material":14
				}
			]
		},
		{
			"name":"Object448",
			"primitives":[
				{
					"attributes":{
						"POSITION":120,
						"NORMAL":121,
						"TEXCOORD_0":122
					},
					"indices":123,
					"material":14
				}
			]
		},
		{
			"name":"Object449",
			"primitives":[
				{
					"attributes":{
						"POSITION":124,
						"NORMAL":125,
						"TEXCOORD_0":126
					},
					"indices":127,
					"material":14
				}
			]
		},
		{
			"name":"Object450",
			"primitives":[
				{
					"attributes":{
						"POSITION":128,
						"NORMAL":129,
						"TEXCOORD_0":130
					},
					"indices":131,
					"material":14
				}
			]
		},
		{
			"name":"Object451",
			"primitives":[
				{
					"attributes":{
						"POSITION":132,
						"NORMAL":133,
						"TEXCOORD_0":134
					},
					"indices":135,
					"material":14
				}
			]
		},
		{
			"name":"Object452",
			"primitives":[
				{
					"attributes":{
						"POSITION":136,
						"NORMAL":137,
						"TEXCOORD_0":138
					},
					"indices":139,
					"material":14
				}
			]
		},
		{
			"name":"Object453",
			"primitives":[
				{
					"attributes":{
						"POSITION":140,
						"NORMAL":141,
						"TEXCOORD_0":142
					},
					"indices":143,
					"material":14
				}
			]
		},
		{
			"name":"Object454",
			"primitives":[
				{
					"attributes":{
						"POSITION":144,
						"NORMAL":145,
						"TEXCOORD_0":146
					},
					"indices":147,
					"material":14
				}
			]
		},
		{
			"name":"Object455",
			"primitives":[
				{
					"attributes":{
						"POSITION":148,
						"NORMAL":149,
						"TEXCOORD_0":150
					},
					"indices":151,
					"material":14
				}
			]
		},
		{
			"name":"Object456",
			"primitives":[
				{
					"attributes":{
						"POSITION":152,
						"NORMAL":153,
						"TEXCOORD_0":154
					},
					"indices":155,
					"material":14
				}
			]
		}
	],
	"textures":[
		{
			"extensions":{
				"EXT_texture_webp":{
					"source":0
				}
			},
			"sampler":0
		},
		{
			"extensions":{
				"EXT_texture_webp":{
					"source":1
				}
			},
			"sampler":0
		},
		{
			"extensions":{
				"EXT_texture_webp":{
					"source":2
				}
			},
			"sampler":0
		},
		{
			"extensions":{
				"EXT_texture_webp":{
					"source":3
				}
			},
			"sampler":0
		},
		{
			"extensions":{
				"EXT_texture_webp":{
					"source":4
				}
			},
			"sampler":0
		},
		{
			"extensions":{
				"EXT_texture_webp":{
					"source":5
				}
			},
			"sampler":0
		},
		{
			"extensions":{
				"EXT_texture_webp":{
					"source":6
				}
			},
			"sampler":0
		},
		{
			"extensions":{
				"EXT_texture_webp":{
					"source":7
				}
			},
			"sampler":0
		},
		{
			"extensions":{
				"EXT_texture_webp":{
					"source":8
				}
			},
			"sampler":0
		},
		{
			"extensions":{
				"EXT_texture_webp":{
					"source":9
				}
			},
			"sampler":0
		},
		{
			"extensions":{
				"EXT_texture_webp":{
					"source":10
				}
			},
			"sampler":0
		},
		{
			"extensions":{
				"EXT_texture_webp":{
					"source":11
				}
			},
			"sampler":0
		},
		{
			"extensions":{
				"EXT_texture_webp":{
					"source":12
				}
			},
			"sampler":0
		},
		{
			"extensions":{
				"EXT_texture_webp":{
					"source":13
				}
			},
			"sampler":0
		},
		{
			"extensions":{
				"EXT_texture_webp":{
					"source":14
				}
			},
			"sampler":0
		},
		{
			"extensions":{
				"EXT_texture_webp":{
					"source":15
				}
			},
			"sampler":0
		},
		{
			"extensions":{
				"EXT_texture_webp":{
					"source":16
				}
			},
			"sampler":0
		},
		{
			"extensions":{
				"EXT_texture_webp":{
					"source":17
				}
			},
			"sampler":0
		},
		{
			"extensions":{
				"EXT_texture_webp":{
					"source":18
				}
			},
			"sampler":0
		}
	],
	"images":[
		{
			"mimeType":"image/webp",
			"name":"material_0_baseColor",
			"uri":"textures/material_0_baseColor.webp"
		},
		{
			"mimeType":"image/webp",
			"name":"material_1_baseColor",
			"uri":"textures/material_1_baseColor.webp"
		},
		{
			"mimeType":"image/webp",
			"name":"material_2_baseColor",
			"uri":"textures/material_2_baseColor.webp"
		},
		{
			"mimeType":"image/webp",
			"name":"material_3_baseColor",
			"uri":"textures/material_3_baseColor.webp"
		},
		{
			"mimeType":"image/webp",
			"name":"material_4_baseColor",
			"uri":"textures/material_4_baseColor.webp"
		},
		{
			"mimeType":"image/webp",
			"name":"material_5_baseColor",
			"uri":"textures/material_5_baseColor.webp"
		},
		{
			"mimeType":"image/webp",
			"name":"material_6_baseColor",
			"uri":"textures/material_6_baseColor.webp"
		},
		{
			"mimeType":"image/webp",
			"name":"material_7_baseColor",
			"uri":"textures/material_7_baseColor.webp"
		},
		{
			"mimeType":"image/webp",
			"name":"Diana_O_Material_u1_v1_baseColor",
			"uri":"textures/Diana_O_Material_u1_v1_baseColor.webp"
		},
		{
			"mimeType":"image/webp",
			"name":"base",
			"uri":"textures/base.webp"
		},
		{
			"mimeType":"image/webp",
			"name":"base",
			"uri":"textures/base-1.webp"
		},
		{
			"mimeType":"image/webp",
			"name":"material_0_normal",
			"uri":"textures/material_0_normal.webp"
		},
		{
			"mimeType":"image/webp",
			"name":"material_0_baseColor",
			"uri":"textures/material_0_baseColor-1.webp"
		},
		{
			"mimeType":"image/webp",
			"name":"Scene_-_Root_normal",
			"uri":"textures/Scene_-_Root_normal.webp"
		},
		{
			"mimeType":"image/webp",
			"name":"Scene_-_Root_baseColor",
			"uri":"textures/Scene_-_Root_baseColor.webp"
		},
		{
			"mimeType":"image/webp",
			"name":"Scene_-_Root_metallicRoughness",
			"uri":"textures/Scene_-_Root_metallicRoughness.webp"
		},
		{
			"mimeType":"image/webp",
			"name":"spec",
			"uri":"textures/spec.webp"
		},
		{
			"mimeType":"image/webp",
			"name":"base",
			"uri":"textures/base-2.webp"
		},
		{
			"mimeType":"image/webp",
			"name":"diff",
			"uri":"textures/diff.webp"
		}
	],
	"accessors":[
		{
			"bufferView":0,
			"componentType":5126,
			"count":35363,
			"max":[
				7.894277572631836,
				9.794134140014648,
				5.743096351623535
			],
			"min":[
				-7.841365814208984,
				-1.71661376953125e-05,
				-5.731790542602539
			],
			"type":"VEC3"
		},
		{
			"bufferView":1,
			"componentType":5126,
			"count":35363,
			"type":"VEC3"
		},
		{
			"bufferView":2,
			"componentType":5126,
			"count":35363,
			"type":"VEC2"
		},
		{
			"bufferView":3,
			"componentType":5123,
			"count":76218,
			"type":"SCALAR"
		},
		{
			"bufferView":4,
			"componentType":5126,
			"count":29587,
			"max":[
				7.897686958312988,
				9.767341613769531,
				5.785303115844727
			],
			"min":[
				-7.838411331176758,
				0.00010251998901367188,
				-5.7466325759887695
			],
			"type":"VEC3"
		},
		{
			"bufferView":5,
			"componentType":5126,
			"count":29587,
			"type":"VEC3"
		},
		{
			"bufferView":6,
			"componentType":5126,
			"count":29587,
			"type":"VEC2"
		},
		{
			"bufferView":7,
			"componentType":5123,
			"count":61671,
			"type":"SCALAR"
		},
		{
			"bufferView":8,
			"componentType":5126,
			"count":48946,
			"max":[
				7.895452499389648,
				9.791585922241211,
				5.79414176940918
			],
			"min":[
				-7.908631324768066,
				-3.337860107421875e-05,
				-5.796648979187012
			],
			"type":"VEC3"
		},
		{
			"bufferView":9,
			"componentType":5126,
			"count":48946,
			"type":"VEC3"
		},
		{
			"bufferView":10,
			"componentType":5126,
			"count":48946,
			"type":"VEC2"
		},
		{
			"bufferView":11,
			"componentType":5123,
			"count":104373,
			"type":"SCALAR"
		},
		{
			"bufferView":12,
			"componentType":5126,
			"count":67976,
			"max":[
				7.908631324768066,
				9.775382995605469,
				5.785303115844727
			],
			"min":[
				-7.905200004577637,
				-3.147125244140625e-05,
				-5.798295974731445
			],
			"type":"VEC3"
		},
		{
			"bufferView":13,
			"componentType":5126,
			"count":67976,
			"type":"VEC3"
		},
		{
			"bufferView":14,
			"componentType":5126,
			"count":67976,
			"type":"VEC2"
		},
		{
			"bufferView":15,
			"componentType":5125,
			"count":163851,
			"type":"SCALAR"
		},
		{
			"bufferView":16,
			"componentType":5126,
			"count":87314,
			"max":[
				7.902287483215332,
				9.782224655151367,
				5.798296928405762
			],
			"min":[
				-7.85941219329834,
				-2.09808349609375e-05,
				-5.796215057373047
			],
			"type":"VEC3"
		},
		{
			"bufferView":17,
			"componentType":5126,
			"count":87314,
			"type":"VEC3"
		},
		{
			"bufferView":18,
			"componentType":5126,
			"count":87314,
			"type":"VEC2"
		},
		{
			"bufferView":19,
			"componentType":5125,
			"count":217971,
			"type":"SCALAR"
		},
		{
			"bufferView":20,
			"componentType":5126,
			"count":78554,
			"max":[
				7.892392158508301,
				9.783611297607422,
				5.7440185546875
			],
			"min":[
				-7.902185440063477,
				-3.337860107421875e-05,
				-5.725541114807129
			],
			"type":"VEC3"
		},
		{
			"bufferView":21,
			"componentType":5126,
			"count":78554,
			"type":"VEC3"
		},
		{
			"bufferView":22,
			"componentType":5126,
			"count":78554,
			"type":"VEC2"
		},
		{
			"bufferView":23,
			"componentType":5125,
			"count":194229,
			"type":"SCALAR"
		},
		{
			"bufferView":24,
			"componentType":5126,
			"count":86035,
			"max":[
				7.86981201171875,
				9.788436889648438,
				5.765663146972656
			],
			"min":[
				-7.822055816650391,
				-0.00018310546875,
				-5.761173248291016
			],
			"type":"VEC3"
		},
		{
			"bufferView":25,
			"componentType":5126,
			"count":86035,
			"type":"VEC3"
		},
		{
			"bufferView":26,
			"componentType":5126,
			"count":86035,
			"type":"VEC2"
		},
		{
			"bufferView":27,
			"componentType":5125,
			"count":216450,
			"type":"SCALAR"
		},
		{
			"bufferView":28,
			"componentType":5126,
			"count":12178,
			"max":[
				7.866004943847656,
				9.763980865478516,
				5.693541526794434
			],
			"min":[
				-7.836647033691406,
				9.72747802734375e-05,
				-5.714032173156738
			],
			"type":"VEC3"
		},
		{
			"bufferView":29,
			"componentType":5126,
			"count":12178,
			"type":"VEC3"
		},
		{
			"bufferView":30,
			"componentType":5126,
			"count":12178,
			"type":"VEC2"
		},
		{
			"bufferView":31,
			"componentType":5123,
			"count":23220,
			"type":"SCALAR"
		},
		{
			"bufferView":32,
			"componentType":5126,
			"count":112437,
			"max":[
				0.5058872699737549,
				1.326342225074768,
				0.4365200400352478
			],
			"min":[
				-0.5354530215263367,
				-1.4569478034973145,
				-0.45352697372436523
			],
			"type":"VEC3"
		},
		{
			"bufferView":33,
			"componentType":5126,
			"count":112437,
			"type":"VEC3"
		},
		{
			"bufferView":34,
			"componentType":5126,
			"count":112437,
			"type":"VEC2"
		},
		{
			"bufferView":35,
			"componentType":5125,
			"count":298107,
			"type":"SCALAR"
		},
		{
			"bufferView":36,
			"componentType":5126,
			"count":16365,
			"max":[
				0.3433682322502136,
				1.0406900644302368,
				0.3559608459472656
			],
			"min":[
				-0.3437637984752655,
				-0.0003604426747187972,
				-0.3563497066497803
			],
			"type":"VEC3"
		},
		{
			"bufferView":37,
			"componentType":5126,
			"count":16365,
			"type":"VEC3"
		},
		{
			"bufferView":38,
			"componentType":5126,
			"count":16365,
			"type":"VEC2"
		},
		{
			"bufferView":39,
			"componentType":5123,
			"count":60174,
			"type":"SCALAR"
		},
		{
			"bufferView":40,
			"componentType":5126,
			"count":69543,
			"max":[
				1.0409023761749268,
				1.40342116355896,
				3.0162479877471924
			],
			"min":[
				-1.0277074575424194,
				-1.1873478889465332,
				-0.7174803018569946
			],
			"type":"VEC3"
		},
		{
			"bufferView":41,
			"componentType":5126,
			"count":69543,
			"type":"VEC3"
		},
		{
			"bufferView":42,
			"componentType":5126,
			"count":69543,
			"type":"VEC2"
		},
		{
			"bufferView":43,
			"componentType":5125,
			"count":167064,
			"type":"SCALAR"
		},
		{
			"bufferView":44,
			"componentType":5126,
			"count":19370,
			"max":[
				0.45662322640419006,
				1.6106497049331665,
				0.4752143621444702
			],
			"min":[
				-0.4720902442932129,
				0.02889728546142578,
				-0.4123750925064087
			],
			"type":"VEC3"
		},
		{
			"bufferView":45,
			"componentType":5126,
			"count":19370,
			"type":"VEC3"
		},
		{
			"bufferView":46,
			"componentType":5126,
			"count":19370,
			"type":"VEC2"
		},
		{
			"bufferView":47,
			"componentType":5123,
			"count":70722,
			"type":"SCALAR"
		},
		{
			"bufferView":48,
			"componentType":5126,
			"count":8520,
			"max":[
				0.5066850781440735,
				1.515463948249817,
				0.4976389408111572
			],
			"min":[
				-0.5063649415969849,
				-0.002552233636379242,
				-0.5091131925582886
			],
			"type":"VEC3"
		},
		{
			"bufferView":49,
			"componentType":5126,
			"count":8520,
			"type":"VEC3"
		},
		{
			"bufferView":50,
			"componentType":5126,
			"count":8520,
			"type":"VEC2"
		},
		{
			"bufferView":51,
			"componentType":5123,
			"count":45189,
			"type":"SCALAR"
		},
		{
			"bufferView":52,
			"componentType":5126,
			"count":5522,
			"max":[
				0.5713271498680115,
				0.6003113389015198,
				0.38115009665489197
			],
			"min":[
				-0.5034717917442322,
				0,
				-0.38115009665489197
			],
			"type":"VEC3"
		},
		{
			"bufferView":53,
			"componentType":5126,
			"count":5522,
			"type":"VEC3"
		},
		{
			"bufferView":54,
			"componentType":5126,
			"count":5522,
			"type":"VEC2"
		},
		{
			"bufferView":55,
			"componentType":5123,
			"count":30294,
			"type":"SCALAR"
		},
		{
			"bufferView":56,
			"componentType":5126,
			"count":555,
			"max":[
				1.3366901874542236,
				1.2307008504867554,
				1.196466326713562
			],
			"min":[
				-1.3920748233795166,
				-1.21242094039917,
				-1.2565823793411255
			],
			"type":"VEC3"
		},
		{
			"bufferView":57,
			"componentType":5126,
			"count":555,
			"type":"VEC3"
		},
		{
			"bufferView":58,
			"componentType":5126,
			"count":555,
			"type":"VEC2"
		},
		{
			"bufferView":59,
			"componentType":5123,
			"count":2334,
			"type":"SCALAR"
		},
		{
			"bufferView":60,
			"componentType":5126,
			"count":565,
			"max":[
				1.1825371980667114,
				1.249092698097229,
				1.2666633129119873
			],
			"min":[
				-1.3396044969558716,
				-1.2340917587280273,
				-1.2482101917266846
			],
			"type":"VEC3"
		},
		{
			"bufferView":61,
			"componentType":5126,
			"count":565,
			"type":"VEC3"
		},
		{
			"bufferView":62,
			"componentType":5126,
			"count":565,
			"type":"VEC2"
		},
		{
			"bufferView":63,
			"componentType":5123,
			"count":2394,
			"type":"SCALAR"
		},
		{
			"bufferView":64,
			"componentType":5126,
			"count":554,
			"max":[
				1.123917579650879,
				1.1909781694412231,
				1.2860658168792725
			],
			"min":[
				-1.3814646005630493,
				-1.2120351791381836,
				-1.2121756076812744
			],
			"type":"VEC3"
		},
		{
			"bufferView":65,
			"componentType":5126,
			"count":554,
			"type":"VEC3"
		},
		{
			"bufferView":66,
			"componentType":5126,
			"count":554,
			"type":"VEC2"
		},
		{
			"bufferView":67,
			"componentType":5123,
			"count":2334,
			"type":"SCALAR"
		},
		{
			"bufferView":68,
			"componentType":5126,
			"count":562,
			"max":[
				1.3058792352676392,
				1.2598305940628052,
				1.3089931011199951
			],
			"min":[
				-1.2127493619918823,
				-1.2247322797775269,
				-1.2031280994415283
			],
			"type":"VEC3"
		},
		{
			"bufferView":69,
			"componentType":5126,
			"count":562,
			"type":"VEC3"
		},
		{
			"bufferView":70,
			"componentType":5126,
			"count":562,
			"type":"VEC2"
		},
		{
			"bufferView":71,
			"componentType":5123,
			"count":2376,
			"type":"SCALAR"
		},
		{
			"bufferView":72,
			"componentType":5126,
			"count":559,
			"max":[
				1.1800798177719116,
				1.2209365367889404,
				1.2341135740280151
			],
			"min":[
				-1.3072389364242554,
				-1.1615808010101318,
				-1.222011685371399
			],
			"type":"VEC3"
		},
		{
			"bufferView":73,
			"componentType":5126,
			"count":559,
			"type":"VEC3"
		},
		{
			"bufferView":74,
			"componentType":5126,
			"count":559,
			"type":"VEC2"
		},
		{
			"bufferView":75,
			"componentType":5123,
			"count":2352,
			"type":"SCALAR"
		},
		{
			"bufferView":76,
			"componentType":5126,
			"count":541,
			"max":[
				1.2990233898162842,
				1.2791637182235718,
				1.2588136196136475
			],
			"min":[
				-1.2825441360473633,
				-1.173575758934021,
				-1.2148840427398682
			],
			"type":"VEC3"
		},
		{
			"bufferView":77,
			"componentType":5126,
			"count":541,
			"type":"VEC3"
		},
		{
			"bufferView":78,
			"componentType":5126,
			"count":541,
			"type":"VEC2"
		},
		{
			"bufferView":79,
			"componentType":5123,
			"count":2286,
			"type":"SCALAR"
		},
		{
			"bufferView":80,
			"componentType":5126,
			"count":560,
			"max":[
				1.3515112400054932,
				1.235000491142273,
				1.19675612449646
			],
			"min":[
				-1.1359317302703857,
				-1.2446485757827759,
				-1.2657225131988525
			],
			"type":"VEC3"
		},
		{
			"bufferView":81,
			"componentType":5126,
			"count":560,
			"type":"VEC3"
		},
		{
			"bufferView":82,
			"componentType":5126,
			"count":560,
			"type":"VEC2"
		},
		{
			"bufferView":83,
			"componentType":5123,
			"count":2364,
			"type":"SCALAR"
		},
		{
			"bufferView":84,
			"componentType":5126,
			"count":545,
			"max":[
				1.3272671699523926,
				1.2017282247543335,
				1.2019809484481812
			],
			"min":[
				-1.2460310459136963,
				-1.248566746711731,
				-1.2351871728897095
			],
			"type":"VEC3"
		},
		{
			"bufferView":85,
			"componentType":5126,
			"count":545,
			"type":"VEC3"
		},
		{
			"bufferView":86,
			"componentType":5126,
			"count":545,
			"type":"VEC2"
		},
		{
			"bufferView":87,
			"componentType":5123,
			"count":2304,
			"type":"SCALAR"
		},
		{
			"bufferView":88,
			"componentType":5126,
			"count":560,
			"max":[
				1.4349645376205444,
				1.2590380907058716,
				1.2542723417282104
			],
			"min":[
				-1.2084885835647583,
				-1.177239179611206,
				-1.2114087343215942
			],
			"type":"VEC3"
		},
		{
			"bufferView":89,
			"componentType":5126,
			"count":560,
			"type":"VEC3"
		},
		{
			"bufferView":90,
			"componentType":5126,
			"count":560,
			"type":"VEC2"
		},
		{
			"bufferView":91,
			"componentType":5123,
			"count":2370,
			"type":"SCALAR"
		},
		{
			"bufferView":92,
			"componentType":5126,
			"count":545,
			"max":[
				1.3782682418823242,
				1.2834008932113647,
				1.2019524574279785
			],
			"min":[
				-1.0653547048568726,
				-1.1977626085281372,
				-1.2569785118103027
			],
			"type":"VEC3"
		},
		{
			"bufferView":93,
			"componentType":5126,
			"count":545,
			"type":"VEC3"
		},
		{
			"bufferView":94,
			"componentType":5126,
			"count":545,
			"type":"VEC2"
		},
		{
			"bufferView":95,
			"componentType":5123,
			"count":2304,
			"type":"SCALAR"
		},
		{
			"bufferView":96,
			"componentType":5126,
			"count":550,
			"max":[
				1.3971768617630005,
				1.2665101289749146,
				1.2719186544418335
			],
			"min":[
				-1.3002146482467651,
				-1.218859076499939,
				-1.1278282403945923
			],
			"type":"VEC3"
		},
		{
			"bufferView":97,
			"componentType":5126,
			"count":550,
			"type":"VEC3"
		},
		{
			"bufferView":98,
			"componentType":5126,
			"count":550,
			"type":"VEC2"
		},
		{
			"bufferView":99,
			"componentType":5123,
			"count":2316,
			"type":"SCALAR"
		},
		{
			"bufferView":100,
			"componentType":5126,
			"count":547,
			"max":[
				1.4170206785202026,
				1.2754968404769897,
				1.2540313005447388
			],
			"min":[
				-1.1906911134719849,
				-1.2195645570755005,
				-1.283532977104187
			],
			"type":"VEC3"
		},
		{
			"bufferView":101,
			"componentType":5126,
			"count":547,
			"type":"VEC3"
		},
		{
			"bufferView":102,
			"componentType":5126,
			"count":547,
			"type":"VEC2"
		},
		{
			"bufferView":103,
			"componentType":5123,
			"count":2322,
			"type":"SCALAR"
		},
		{
			"bufferView":104,
			"componentType":5126,
			"count":549,
			"max":[
				1.2005069255828857,
				1.232234239578247,
				1.2532333135604858
			],
			"min":[
				-1.3847630023956299,
				-1.2097097635269165,
				-1.1787019968032837
			],
			"type":"VEC3"
		},
		{
			"bufferView":105,
			"componentType":5126,
			"count":549,
			"type":"VEC3"
		},
		{
			"bufferView":106,
			"componentType":5126,
			"count":549,
			"type":"VEC2"
		},
		{
			"bufferView":107,
			"componentType":5123,
			"count":2310,
			"type":"SCALAR"
		},
		{
			"bufferView":108,
			"componentType":5126,
			"count":544,
			"max":[
				1.289888620376587,
				1.186875820159912,
				1.2522724866867065
			],
			"min":[
				-1.1542308330535889,
				-1.2392295598983765,
				-1.2688709497451782
			],
			"type":"VEC3"
		},
		{
			"bufferView":109,
			"componentType":5126,
			"count":544,
			"type":"VEC3"
		},
		{
			"bufferView":110,
			"componentType":5126,
			"count":544,
			"type":"VEC2"
		},
		{
			"bufferView":111,
			"componentType":5123,
			"count":2286,
			"type":"SCALAR"
		},
		{
			"bufferView":112,
			"componentType":5126,
			"count":533,
			"max":[
				1.3190481662750244,
				1.2464244365692139,
				1.211857557296753
			],
			"min":[
				-1.1713906526565552,
				-1.1941845417022705,
				-1.3291053771972656
			],
			"type":"VEC3"
		},
		{
			"bufferView":113,
			"componentType":5126,
			"count":533,
			"type":"VEC3"
		},
		{
			"bufferView":114,
			"componentType":5126,
			"count":533,
			"type":"VEC2"
		},
		{
			"bufferView":115,
			"componentType":5123,
			"count":2250,
			"type":"SCALAR"
		},
		{
			"bufferView":116,
			"componentType":5126,
			"count":529,
			"max":[
				1.3487344980239868,
				1.229630708694458,
				1.2259812355041504
			],
			"min":[
				-1.1786236763000488,
				-1.278475284576416,
				-1.2541875839233398
			],
			"type":"VEC3"
		},
		{
			"bufferView":117,
			"componentType":5126,
			"count":529,
			"type":"VEC3"
		},
		{
			"bufferView":118,
			"componentType":5126,
			"count":529,
			"type":"VEC2"
		},
		{
			"bufferView":119,
			"componentType":5123,
			"count":2226,
			"type":"SCALAR"
		},
		{
			"bufferView":120,
			"componentType":5126,
			"count":530,
			"max":[
				1.2931183576583862,
				1.164812445640564,
				1.2353674173355103
			],
			"min":[
				-1.2083313465118408,
				-1.260048508644104,
				-1.1971434354782104
			],
			"type":"VEC3"
		},
		{
			"bufferView":121,
			"componentType":5126,
			"count":530,
			"type":"VEC3"
		},
		{
			"bufferView":122,
			"componentType":5126,
			"count":530,
			"type":"VEC2"
		},
		{
			"bufferView":123,
			"componentType":5123,
			"count":2226,
			"type":"SCALAR"
		},
		{
			"bufferView":124,
			"componentType":5126,
			"count":537,
			"max":[
				1.2827024459838867,
				1.2092536687850952,
				1.3049873113632202
			],
			"min":[
				-1.2852990627288818,
				-1.2558284997940063,
				-1.1960359811782837
			],
			"type":"VEC3"
		},
		{
			"bufferView":125,
			"componentType":5126,
			"count":537,
			"type":"VEC3"
		},
		{
			"bufferView":126,
			"componentType":5126,
			"count":537,
			"type":"VEC2"
		},
		{
			"bufferView":127,
			"componentType":5123,
			"count":2274,
			"type":"SCALAR"
		},
		{
			"bufferView":128,
			"componentType":5126,
			"count":553,
			"max":[
				1.3480916023254395,
				1.2700482606887817,
				1.2152879238128662
			],
			"min":[
				-1.2119215726852417,
				-1.219802737236023,
				-1.2193148136138916
			],
			"type":"VEC3"
		},
		{
			"bufferView":129,
			"componentType":5126,
			"count":553,
			"type":"VEC3"
		},
		{
			"bufferView":130,
			"componentType":5126,
			"count":553,
			"type":"VEC2"
		},
		{
			"bufferView":131,
			"componentType":5123,
			"count":2346,
			"type":"SCALAR"
		},
		{
			"bufferView":132,
			"componentType":5126,
			"count":530,
			"max":[
				1.3441190719604492,
				1.1904139518737793,
				1.3535493612289429
			],
			"min":[
				-1.1210336685180664,
				-1.2266147136688232,
				-1.165061593055725
			],
			"type":"VEC3"
		},
		{
			"bufferView":133,
			"componentType":5126,
			"count":530,
			"type":"VEC3"
		},
		{
			"bufferView":134,
			"componentType":5126,
			"count":530,
			"type":"VEC2"
		},
		{
			"bufferView":135,
			"componentType":5123,
			"count":2244,
			"type":"SCALAR"
		},
		{
			"bufferView":136,
			"componentType":5126,
			"count":526,
			"max":[
				1.308137059211731,
				1.2390767335891724,
				1.2770823240280151
			],
			"min":[
				-1.147375464439392,
				-1.2108296155929565,
				-1.2235890626907349
			],
			"type":"VEC3"
		},
		{
			"bufferView":137,
			"componentType":5126,
			"count":526,
			"type":"VEC3"
		},
		{
			"bufferView":138,
			"componentType":5126,
			"count":526,
			"type":"VEC2"
		},
		{
			"bufferView":139,
			"componentType":5123,
			"count":2226,
			"type":"SCALAR"
		},
		{
			"bufferView":140,
			"componentType":5126,
			"count":540,
			"max":[
				1.1986429691314697,
				1.2835416793823242,
				1.2798110246658325
			],
			"min":[
				-1.3363289833068848,
				-1.2439231872558594,
				-1.1335991621017456
			],
			"type":"VEC3"
		},
		{
			"bufferView":141,
			"componentType":5126,
			"count":540,
			"type":"VEC3"
		},
		{
			"bufferView":142,
			"componentType":5126,
			"count":540,
			"type":"VEC2"
		},
		{
			"bufferView":143,
			"componentType":5123,
			"count":2268,
			"type":"SCALAR"
		},
		{
			"bufferView":144,
			"componentType":5126,
			"count":549,
			"max":[
				1.177988886833191,
				1.21917724609375,
				1.1773101091384888
			],
			"min":[
				-1.3100749254226685,
				-1.2506325244903564,
				-1.302824854850769
			],
			"type":"VEC3"
		},
		{
			"bufferView":145,
			"componentType":5126,
			"count":549,
			"type":"VEC3"
		},
		{
			"bufferView":146,
			"componentType":5126,
			"count":549,
			"type":"VEC2"
		},
		{
			"bufferView":147,
			"componentType":5123,
			"count":2316,
			"type":"SCALAR"
		},
		{
			"bufferView":148,
			"componentType":5126,
			"count":552,
			"max":[
				1.2216664552688599,
				1.2896583080291748,
				1.2365840673446655
			],
			"min":[
				-1.3405922651290894,
				-1.2130608558654785,
				-1.215753197669983
			],
			"type":"VEC3"
		},
		{
			"bufferView":149,
			"componentType":5126,
			"count":552,
			"type":"VEC3"
		},
		{
			"bufferView":150,
			"componentType":5126,
			"count":552,
			"type":"VEC2"
		},
		{
			"bufferView":151,
			"componentType":5123,
			"count":2334,
			"type":"SCALAR"
		},
		{
			"bufferView":152,
			"componentType":5126,
			"count":555,
			"max":[
				1.2603634595870972,
				1.2937331199645996,
				1.2395516633987427
			],
			"min":[
				-1.2087410688400269,
				-1.1814072132110596,
				-1.2898825407028198
			],
			"type":"VEC3"
		},
		{
			"bufferView":153,
			"componentType":5126,
			"count":555,
			"type":"VEC3"
		},
		{
			"bufferView":154,
			"componentType":5126,
			"count":555,
			"type":"VEC2"
		},
		{
			"bufferView":155,
			"componentType":5123,
			"count":2340,
			"type":"SCALAR"
		}
	],
	"bufferViews":[
		{
			"buffer":0,
			"byteLength":424356,
			"byteOffset":0,
			"target":34962
		},
		{
			"buffer":0,
			"byteLength":424356,
			"byteOffset":424356,
			"target":34962
		},
		{
			"buffer":0,
			"byteLength":282904,
			"byteOffset":848712,
			"target":34962
		},
		{
			"buffer":0,
			"byteLength":152436,
			"byteOffset":1131616,
			"target":34963
		},
		{
			"buffer":0,
			"byteLength":355044,
			"byteOffset":1284052,
			"target":34962
		},
		{
			"buffer":0,
			"byteLength":355044,
			"byteOffset":1639096,
			"target":34962
		},
		{
			"buffer":0,
			"byteLength":236696,
			"byteOffset":1994140,
			"target":34962
		},
		{
			"buffer":0,
			"byteLength":123342,
			"byteOffset":2230836,
			"target":34963
		},
		{
			"buffer":0,
			"byteLength":587352,
			"byteOffset":2354180,
			"target":34962
		},
		{
			"buffer":0,
			"byteLength":587352,
			"byteOffset":2941532,
			"target":34962
		},
		{
			"buffer":0,
			"byteLength":391568,
			"byteOffset":3528884,
			"target":34962
		},
		{
			"buffer":0,
			"byteLength":208746,
			"byteOffset":3920452,
			"target":34963
		},
		{
			"buffer":0,
			"byteLength":815712,
			"byteOffset":4129200,
			"target":34962
		},
		{
			"buffer":0,
			"byteLength":815712,
			"byteOffset":4944912,
			"target":34962
		},
		{
			"buffer":0,
			"byteLength":543808,
			"byteOffset":5760624,
			"target":34962
		},
		{
			"buffer":0,
			"byteLength":655404,
			"byteOffset":6304432,
			"target":34963
		},
		{
			"buffer":0,
			"byteLength":1047768,
			"byteOffset":6959836,
			"target":34962
		},
		{
			"buffer":0,
			"byteLength":1047768,
			"byteOffset":8007604,
			"target":34962
		},
		{
			"buffer":0,
			"byteLength":698512,
			"byteOffset":9055372,
			"target":34962
		},
		{
			"buffer":0,
			"byteLength":871884,
			"byteOffset":9753884,
			"target":34963
		},
		{
			"buffer":0,
			"byteLength":942648,
			"byteOffset":10625768,
			"target":34962
		},
		{
			"buffer":0,
			"byteLength":942648,
			"byteOffset":11568416,
			"target":34962
		},
		{
			"buffer":0,
			"byteLength":628432,
			"byteOffset":12511064,
			"target":34962
		},
		{
			"buffer":0,
			"byteLength":776916,
			"byteOffset":13139496,
			"target":34963
		},
		{
			"buffer":0,
			"byteLength":1032420,
			"byteOffset":13916412,
			"target":34962
		},
		{
			"buffer":0,
			"byteLength":1032420,
			"byteOffset":14948832,
			"target":34962
		},
		{
			"buffer":0,
			"byteLength":688280,
			"byteOffset":15981252,
			"target":34962
		},
		{
			"buffer":0,
			"byteLength":865800,
			"byteOffset":16669532,
			"target":34963
		},
		{
			"buffer":0,
			"byteLength":146136,
			"byteOffset":17535332,
			"target":34962
		},
		{
			"buffer":0,
			"byteLength":146136,
			"byteOffset":17681468,
			"target":34962
		},
		{
			"buffer":0,
			"byteLength":97424,
			"byteOffset":17827604,
			"target":34962
		},
		{
			"buffer":0,
			"byteLength":46440,
			"byteOffset":17925028,
			"target":34963
		},
		{
			"buffer":0,
			"byteLength":1349244,
			"byteOffset":17971468,
			"target":34962
		},
		{
			"buffer":0,
			"byteLength":1349244,
			"byteOffset":19320712,
			"target":34962
		},
		{
			"buffer":0,
			"byteLength":899496,
			"byteOffset":20669956,
			"target":34962
		},
		{
			"buffer":0,
			"byteLength":1192428,
			"byteOffset":21569452,
			"target":34963
		},
		{
			"buffer":0,
			"byteLength":196380,
			"byteOffset":22761880,
			"target":34962
		},
		{
			"buffer":0,
			"byteLength":196380,
			"byteOffset":22958260,
			"target":34962
		},
		{
			"buffer":0,
			"byteLength":130920,
			"byteOffset":23154640,
			"target":34962
		},
		{
			"buffer":0,
			"byteLength":120348,
			"byteOffset":23285560,
			"target":34963
		},
		{
			"buffer":0,
			"byteLength":834516,
			"byteOffset":23405908,
			"target":34962
		},
		{
			"buffer":0,
			"byteLength":834516,
			"byteOffset":24240424,
			"target":34962
		},
		{
			"buffer":0,
			"byteLength":556344,
			"byteOffset":25074940,
			"target":34962
		},
		{
			"buffer":0,
			"byteLength":668256,
			"byteOffset":25631284,
			"target":34963
		},
		{
			"buffer":0,
			"byteLength":232440,
			"byteOffset":26299540,
			"target":34962
		},
		{
			"buffer":0,
			"byteLength":232440,
			"byteOffset":26531980,
			"target":34962
		},
		{
			"buffer":0,
			"byteLength":154960,
			"byteOffset":26764420,
			"target":34962
		},
		{
			"buffer":0,
			"byteLength":141444,
			"byteOffset":26919380,
			"target":34963
		},
		{
			"buffer":0,
			"byteLength":102240,
			"byteOffset":27060824,
			"target":34962
		},
		{
			"buffer":0,
			"byteLength":102240,
			"byteOffset":27163064,
			"target":34962
		},
		{
			"buffer":0,
			"byteLength":68160,
			"byteOffset":27265304,
			"target":34962
		},
		{
			"buffer":0,
			"byteLength":90378,
			"byteOffset":27333464,
			"target":34963
		},
		{
			"buffer":0,
			"byteLength":66264,
			"byteOffset":27423844,
			"target":34962
		},
		{
			"buffer":0,
			"byteLength":66264,
			"byteOffset":27490108,
			"target":34962
		},
		{
			"buffer":0,
			"byteLength":44176,
			"byteOffset":27556372,
			"target":34962
		},
		{
			"buffer":0,
			"byteLength":60588,
			"byteOffset":27600548,
			"target":34963
		},
		{
			"buffer":0,
			"byteLength":6660,
			"byteOffset":27661136,
			"target":34962
		},
		{
			"buffer":0,
			"byteLength":6660,
			"byteOffset":27667796,
			"target":34962
		},
		{
			"buffer":0,
			"byteLength":4440,
			"byteOffset":27674456,
			"target":34962
		},
		{
			"buffer":0,
			"byteLength":4668,
			"byteOffset":27678896,
			"target":34963
		},
		{
			"buffer":0,
			"byteLength":6780,
			"byteOffset":27683564,
			"target":34962
		},
		{
			"buffer":0,
			"byteLength":6780,
			"byteOffset":27690344,
			"target":34962
		},
		{
			"buffer":0,
			"byteLength":4520,
			"byteOffset":27697124,
			"target":34962
		},
		{
			"buffer":0,
			"byteLength":4788,
			"byteOffset":27701644,
			"target":34963
		},
		{
			"buffer":0,
			"byteLength":6648,
			"byteOffset":27706432,
			"target":34962
		},
		{
			"buffer":0,
			"byteLength":6648,
			"byteOffset":27713080,
			"target":34962
		},
		{
			"buffer":0,
			"byteLength":4432,
			"byteOffset":27719728,
			"target":34962
		},
		{
			"buffer":0,
			"byteLength":4668,
			"byteOffset":27724160,
			"target":34963
		},
		{
			"buffer":0,
			"byteLength":6744,
			"byteOffset":27728828,
			"target":34962
		},
		{
			"buffer":0,
			"byteLength":6744,
			"byteOffset":27735572,
			"target":34962
		},
		{
			"buffer":0,
			"byteLength":4496,
			"byteOffset":27742316,
			"target":34962
		},
		{
			"buffer":0,
			"byteLength":4752,
			"byteOffset":27746812,
			"target":34963
		},
		{
			"buffer":0,
			"byteLength":6708,
			"byteOffset":27751564,
			"target":34962
		},
		{
			"buffer":0,
			"byteLength":6708,
			"byteOffset":27758272,
			"target":34962
		},
		{
			"buffer":0,
			"byteLength":4472,
			"byteOffset":27764980,
			"target":34962
		},
		{
			"buffer":0,
			"byteLength":4704,
			"byteOffset":27769452,
			"target":34963
		},
		{
			"buffer":0,
			"byteLength":6492,
			"byteOffset":27774156,
			"target":34962
		},
		{
			"buffer":0,
			"byteLength":6492,
			"byteOffset":27780648,
			"target":34962
		},
		{
			"buffer":0,
			"byteLength":4328,
			"byteOffset":27787140,
			"target":34962
		},
		{
			"buffer":0,
			"byteLength":4572,
			"byteOffset":27791468,
			"target":34963
		},
		{
			"buffer":0,
			"byteLength":6720,
			"byteOffset":27796040,
			"target":34962
		},
		{
			"buffer":0,
			"byteLength":6720,
			"byteOffset":27802760,
			"target":34962
		},
		{
			"buffer":0,
			"byteLength":4480,
			"byteOffset":27809480,
			"target":34962
		},
		{
			"buffer":0,
			"byteLength":4728,
			"byteOffset":27813960,
			"target":34963
		},
		{
			"buffer":0,
			"byteLength":6540,
			"byteOffset":27818688,
			"target":34962
		},
		{
			"buffer":0,
			"byteLength":6540,
			"byteOffset":27825228,
			"target":34962
		},
		{
			"buffer":0,
			"byteLength":4360,
			"byteOffset":27831768,
			"target":34962
		},
		{
			"buffer":0,
			"byteLength":4608,
			"byteOffset":27836128,
			"target":34963
		},
		{
			"buffer":0,
			"byteLength":6720,
			"byteOffset":27840736,
			"target":34962
		},
		{
			"buffer":0,
			"byteLength":6720,
			"byteOffset":27847456,
			"target":34962
		},
		{
			"buffer":0,
			"byteLength":4480,
			"byteOffset":27854176,
			"target":34962
		},
		{
			"buffer":0,
			"byteLength":4740,
			"byteOffset":27858656,
			"target":34963
		},
		{
			"buffer":0,
			"byteLength":6540,
			"byteOffset":27863396,
			"target":34962
		},
		{
			"buffer":0,
			"byteLength":6540,
			"byteOffset":27869936,
			"target":34962
		},
		{
			"buffer":0,
			"byteLength":4360,
			"byteOffset":27876476,
			"target":34962
		},
		{
			"buffer":0,
			"byteLength":4608,
			"byteOffset":27880836,
			"target":34963
		},
		{
			"buffer":0,
			"byteLength":6600,
			"byteOffset":27885444,
			"target":34962
		},
		{
			"buffer":0,
			"byteLength":6600,
			"byteOffset":27892044,
			"target":34962
		},
		{
			"buffer":0,
			"byteLength":4400,
			"byteOffset":27898644,
			"target":34962
		},
		{
			"buffer":0,
			"byteLength":4632,
			"byteOffset":27903044,
			"target":34963
		},
		{
			"buffer":0,
			"byteLength":6564,
			"byteOffset":27907676,
			"target":34962
		},
		{
			"buffer":0,
			"byteLength":6564,
			"byteOffset":27914240,
			"target":34962
		},
		{
			"buffer":0,
			"byteLength":4376,
			"byteOffset":27920804,
			"target":34962
		},
		{
			"buffer":0,
			"byteLength":4644,
			"byteOffset":27925180,
			"target":34963
		},
		{
			"buffer":0,
			"byteLength":6588,
			"byteOffset":27929824,
			"target":34962
		},
		{
			"buffer":0,
			"byteLength":6588,
			"byteOffset":27936412,
			"target":34962
		},
		{
			"buffer":0,
			"byteLength":4392,
			"byteOffset":27943000,
			"target":34962
		},
		{
			"buffer":0,
			"byteLength":4620,
			"byteOffset":27947392,
			"target":34963
		},
		{
			"buffer":0,
			"byteLength":6528,
			"byteOffset":27952012,
			"target":34962
		},
		{
			"buffer":0,
			"byteLength":6528,
			"byteOffset":27958540,
			"target":34962
		},
		{
			"buffer":0,
			"byteLength":4352,
			"byteOffset":27965068,
			"target":34962
		},
		{
			"buffer":0,
			"byteLength":4572,
			"byteOffset":27969420,
			"target":34963
		},
		{
			"buffer":0,
			"byteLength":6396,
			"byteOffset":27973992,
			"target":34962
		},
		{
			"buffer":0,
			"byteLength":6396,
			"byteOffset":27980388,
			"target":34962
		},
		{
			"buffer":0,
			"byteLength":4264,
			"byteOffset":27986784,
			"target":34962
		},
		{
			"buffer":0,
			"byteLength":4500,
			"byteOffset":27991048,
			"target":34963
		},
		{
			"buffer":0,
			"byteLength":6348,
			"byteOffset":27995548,
			"target":34962
		},
		{
			"buffer":0,
			"byteLength":6348,
			"byteOffset":28001896,
			"target":34962
		},
		{
			"buffer":0,
			"byteLength":4232,
			"byteOffset":28008244,
			"target":34962
		},
		{
			"buffer":0,
			"byteLength":4452,
			"byteOffset":28012476,
			"target":34963
		},
		{
			"buffer":0,
			"byteLength":6360,
			"byteOffset":28016928,
			"target":34962
		},
		{
			"buffer":0,
			"byteLength":6360,
			"byteOffset":28023288,
			"target":34962
		},
		{
			"buffer":0,
			"byteLength":4240,
			"byteOffset":28029648,
			"target":34962
		},
		{
			"buffer":0,
			"byteLength":4452,
			"byteOffset":28033888,
			"target":34963
		},
		{
			"buffer":0,
			"byteLength":6444,
			"byteOffset":28038340,
			"target":34962
		},
		{
			"buffer":0,
			"byteLength":6444,
			"byteOffset":28044784,
			"target":34962
		},
		{
			"buffer":0,
			"byteLength":4296,
			"byteOffset":28051228,
			"target":34962
		},
		{
			"buffer":0,
			"byteLength":4548,
			"byteOffset":28055524,
			"target":34963
		},
		{
			"buffer":0,
			"byteLength":6636,
			"byteOffset":28060072,
			"target":34962
		},
		{
			"buffer":0,
			"byteLength":6636,
			"byteOffset":28066708,
			"target":34962
		},
		{
			"buffer":0,
			"byteLength":4424,
			"byteOffset":28073344,
			"target":34962
		},
		{
			"buffer":0,
			"byteLength":4692,
			"byteOffset":28077768,
			"target":34963
		},
		{
			"buffer":0,
			"byteLength":6360,
			"byteOffset":28082460,
			"target":34962
		},
		{
			"buffer":0,
			"byteLength":6360,
			"byteOffset":28088820,
			"target":34962
		},
		{
			"buffer":0,
			"byteLength":4240,
			"byteOffset":28095180,
			"target":34962
		},
		{
			"buffer":0,
			"byteLength":4488,
			"byteOffset":28099420,
			"target":34963
		},
		{
			"buffer":0,
			"byteLength":6312,
			"byteOffset":28103908,
			"target":34962
		},
		{
			"buffer":0,
			"byteLength":6312,
			"byteOffset":28110220,
			"target":34962
		},
		{
			"buffer":0,
			"byteLength":4208,
			"byteOffset":28116532,
			"target":34962
		},
		{
			"buffer":0,
			"byteLength":4452,
			"byteOffset":28120740,
			"target":34963
		},
		{
			"buffer":0,
			"byteLength":6480,
			"byteOffset":28125192,
			"target":34962
		},
		{
			"buffer":0,
			"byteLength":6480,
			"byteOffset":28131672,
			"target":34962
		},
		{
			"buffer":0,
			"byteLength":4320,
			"byteOffset":28138152,
			"target":34962
		},
		{
			"buffer":0,
			"byteLength":4536,
			"byteOffset":28142472,
			"target":34963
		},
		{
			"buffer":0,
			"byteLength":6588,
			"byteOffset":28147008,
			"target":34962
		},
		{
			"buffer":0,
			"byteLength":6588,
			"byteOffset":28153596,
			"target":34962
		},
		{
			"buffer":0,
			"byteLength":4392,
			"byteOffset":28160184,
			"target":34962
		},
		{
			"buffer":0,
			"byteLength":4632,
			"byteOffset":28164576,
			"target":34963
		},
		{
			"buffer":0,
			"byteLength":6624,
			"byteOffset":28169208,
			"target":34962
		},
		{
			"buffer":0,
			"byteLength":6624,
			"byteOffset":28175832,
			"target":34962
		},
		{
			"buffer":0,
			"byteLength":4416,
			"byteOffset":28182456,
			"target":34962
		},
		{
			"buffer":0,
			"byteLength":4668,
			"byteOffset":28186872,
			"target":34963
		},
		{
			"buffer":0,
			"byteLength":6660,
			"byteOffset":28191540,
			"target":34962
		},
		{
			"buffer":0,
			"byteLength":6660,
			"byteOffset":28198200,
			"target":34962
		},
		{
			"buffer":0,
			"byteLength":4440,
			"byteOffset":28204860,
			"target":34962
		},
		{
			"buffer":0,
			"byteLength":4680,
			"byteOffset":28209300,
			"target":34963
		}
	],
	"samplers":[
		{
			"magFilter":9729,
			"minFilter":9987
		}
	],
	"buffers":[
		{
			"byteLength":28213980,
			"uri":"janus.bin"
		}
	]
}
