{
	"asset":{
		"generator":"Khronos glTF Blender I/O v5.1.20",
		"version":"2.0"
	},
	"scene":0,
	"scenes":[
		{
			"name":"Scene",
			"nodes":[
				0
			]
		}
	],
	"nodes":[
		{
			"mesh":0,
			"name":"evora_phys"
		}
	],
	"meshes":[
		{
			"name":"Object_0",
			"primitives":[
				{
					"attributes":{
						"POSITION":0
					},
					"indices":1
				}
			]
		}
	],
	"accessors":[
		{
			"bufferView":0,
			"componentType":5126,
			"count":5881,
			"max":[
				7.856635093688965,
				9.790783882141113,
				5.711086750030518
			],
			"min":[
				-7.824824333190918,
				-0.0421411469578743,
				-5.730682373046875
			],
			"type":"VEC3"
		},
		{
			"bufferView":1,
			"componentType":5123,
			"count":35220,
			"type":"SCALAR"
		}
	],
	"bufferViews":[
		{
			"buffer":0,
			"byteLength":70572,
			"byteOffset":0,
			"target":34962
		},
		{
			"buffer":0,
			"byteLength":70440,
			"byteOffset":70572,
			"target":34963
		}
	],
	"buffers":[
		{
			"byteLength":141012,
			"uri":"phys.bin"
		}
	]
}
