{
	"asset":{
		"generator":"Khronos glTF Blender I/O v5.1.20",
		"version":"2.0"
	},
	"extensionsUsed":[
		"EXT_texture_webp"
	],
	"extensionsRequired":[
		"EXT_texture_webp"
	],
	"scene":0,
	"scenes":[
		{
			"name":"Scene",
			"nodes":[
				0
			]
		}
	],
	"nodes":[
		{
			"mesh":0,
			"name":"sledge_hammer",
			"rotation":[
				0.7071068286895752,
				0,
				0,
				0.7071068286895752
			],
			"translation":[
				0,
				1.7505218982696533,
				0.002068743109703064
			]
		}
	],
	"materials":[
		{
			"doubleSided":true,
			"name":"sledge_hammer",
			"normalTexture":{
				"index":0
			},
			"pbrMetallicRoughness":{
				"baseColorTexture":{
					"index":1
				}
			}
		}
	],
	"meshes":[
		{
			"name":"Cube",
			"primitives":[
				{
					"attributes":{
						"POSITION":0,
						"NORMAL":1,
						"TEXCOORD_0":2
					},
					"indices":3,
					"material":0
				}
			]
		}
	],
	"textures":[
		{
			"extensions":{
				"EXT_texture_webp":{
					"source":0
				}
			},
			"sampler":0
		},
		{
			"extensions":{
				"EXT_texture_webp":{
					"source":1
				}
			},
			"sampler":0
		}
	],
	"images":[
		{
			"mimeType":"image/webp",
			"name":"norm",
			"uri":"textures/norm.webp"
		},
		{
			"mimeType":"image/webp",
			"name":"base",
			"uri":"textures/base.webp"
		}
	],
	"accessors":[
		{
			"bufferView":0,
			"componentType":5126,
			"count":802,
			"max":[
				0.5405978560447693,
				0.21766486763954163,
				2.666083574295044
			],
			"min":[
				-0.5405978560447693,
				-0.21766476333141327,
				-1.500504970550537
			],
			"type":"VEC3"
		},
		{
			"bufferView":1,
			"componentType":5126,
			"count":802,
			"type":"VEC3"
		},
		{
			"bufferView":2,
			"componentType":5126,
			"count":802,
			"type":"VEC2"
		},
		{
			"bufferView":3,
			"componentType":5123,
			"count":3600,
			"type":"SCALAR"
		}
	],
	"bufferViews":[
		{
			"buffer":0,
			"byteLength":9624,
			"byteOffset":0,
			"target":34962
		},
		{
			"buffer":0,
			"byteLength":9624,
			"byteOffset":9624,
			"target":34962
		},
		{
			"buffer":0,
			"byteLength":6416,
			"byteOffset":19248,
			"target":34962
		},
		{
			"buffer":0,
			"byteLength":7200,
			"byteOffset":25664,
			"target":34963
		}
	],
	"samplers":[
		{
			"magFilter":9729,
			"minFilter":9987
		}
	],
	"buffers":[
		{
			"byteLength":32864,
			"uri":"hammer.bin"
		}
	]
}
