{
    "extensionsRequired": [
        "EXT_texture_webp"
    ],
    "asset": {
        "generator": "Khronos glTF Blender I/O v4.0.44",
        "version": "2.0"
    },
    "extensionsUsed": [
        "EXT_texture_webp",
        "KHR_materials_specular",
        "KHR_materials_ior"
    ],
	"scene":0,
	"scenes":[
		{
			"name":"Scene",
			"nodes":[
				0
			]
		}
	],
	"nodes":[
		{
			"mesh":0,
			"name":"duck",
			"rotation":[
				0.70710688829422,
				0,
				0,
				0.7071066498756409
			]
		}
	],
	"materials":[
		{
			"doubleSided":true,
			"extensions":{
				"KHR_materials_specular":{
					"specularColorFactor":[
						2.0,
						2.0,
						2.0
					]
				},
				"KHR_materials_ior":{
					"ior":1.4500000476837158
				}
			},
			"name":"Material",
			"pbrMetallicRoughness":{
				"baseColorTexture":{
					"index":0
				},
				"metallicFactor":0,
				"roughnessFactor":0.7171573042869568
			}
		}
	],
	"meshes":[
		{
			"name":"duck",
			"primitives":[
				{
					"attributes":{
						"POSITION":0,
						"NORMAL":1,
						"TEXCOORD_0":2
					},
					"indices":3,
					"material":0
				}
			]
		}
	],
	"textures":[
        {
            "sampler": 0,
            "extensions": {
                "EXT_texture_webp": {
                    "source": 0
                }
            }
        }
	],
	"images":[
		{
			"mimeType":"image/webp",
			"name":"base",
			"uri":"textures/base.webp"
		}
	],
	"accessors":[
		{
			"bufferView":0,
			"componentType":5126,
			"count":1938,
			"max":[
				1.565721035003662,
				2.2088820934295654,
				1.8621690273284912
			],
			"min":[
				-1.5657180547714233,
				-1.169042944908142,
				-2.0973880290985107
			],
			"type":"VEC3"
		},
		{
			"bufferView":1,
			"componentType":5126,
			"count":1938,
			"type":"VEC3"
		},
		{
			"bufferView":2,
			"componentType":5126,
			"count":1938,
			"type":"VEC2"
		},
		{
			"bufferView":3,
			"componentType":5123,
			"count":4572,
			"type":"SCALAR"
		}
	],
	"bufferViews":[
		{
			"buffer":0,
			"byteLength":23256,
			"byteOffset":0,
			"target":34962
		},
		{
			"buffer":0,
			"byteLength":23256,
			"byteOffset":23256,
			"target":34962
		},
		{
			"buffer":0,
			"byteLength":15504,
			"byteOffset":46512,
			"target":34962
		},
		{
			"buffer":0,
			"byteLength":9144,
			"byteOffset":62016,
			"target":34963
		}
	],
	"samplers":[
		{
			"magFilter":9729,
			"minFilter":9987
		}
	],
	"buffers":[
		{
			"byteLength":71160,
			"uri":"duck.bin"
		}
	]
}
