{
	"asset":{
		"generator":"Khronos glTF Blender I/O v5.1.20",
		"version":"2.0"
	},
	"scene":0,
	"scenes":[
		{
			"name":"Scene",
			"nodes":[
				0
			]
		}
	],
	"nodes":[
		{
			"mesh":0,
			"name":"aniel",
			"rotation":[
				0,
				-1,
				0,
				7.549789415861596e-08
			],
			"scale":[
				0.009999999776482582,
				0.009999999776482582,
				0.009999999776482582
			]
		}
	],
	"materials":[
		{
			"doubleSided":true,
			"name":"wings",
			"normalTexture":{
				"index":0
			},
			"pbrMetallicRoughness":{
				"baseColorTexture":{
					"index":1
				},
				"metallicFactor":0,
				"roughnessFactor":0.5
			}
		},
		{
			"doubleSided":true,
			"name":"Body",
			"normalTexture":{
				"index":2
			},
			"pbrMetallicRoughness":{
				"baseColorTexture":{
					"index":3
				},
				"metallicFactor":0,
				"roughnessFactor":0.5
			}
		},
		{
			"doubleSided":true,
			"name":"hair",
			"normalTexture":{
				"index":4
			},
			"pbrMetallicRoughness":{
				"baseColorTexture":{
					"index":5
				},
				"metallicFactor":0,
				"roughnessFactor":0.5
			}
		}
	],
	"meshes":[
		{
			"name":"Untitled.005",
			"primitives":[
				{
					"attributes":{
						"POSITION":0,
						"NORMAL":1,
						"TEXCOORD_0":2
					},
					"indices":3,
					"material":0
				},
				{
					"attributes":{
						"POSITION":4,
						"NORMAL":5,
						"TEXCOORD_0":6
					},
					"indices":7,
					"material":1
				},
				{
					"attributes":{
						"POSITION":8,
						"NORMAL":9,
						"TEXCOORD_0":10
					},
					"indices":11,
					"material":2
				}
			]
		}
	],
	"textures":[
		{
			"sampler":0,
			"source":0
		},
		{
			"sampler":0,
			"source":1
		},
		{
			"sampler":0,
			"source":2
		},
		{
			"sampler":0,
			"source":3
		},
		{
			"sampler":0,
			"source":4
		},
		{
			"sampler":0,
			"source":5
		}
	],
	"images":[
		{
			"mimeType":"image/png",
			"name":"wings_new_1NormalsMapFlipped",
			"uri":"textures/wings_new_1NormalsMapFlipped.png"
		},
		{
			"mimeType":"image/png",
			"name":"wing_tiff",
			"uri":"textures/wing_tiff.png"
		},
		{
			"mimeType":"image/png",
			"name":"aniol_0NormalsMapFliped",
			"uri":"textures/aniol_0NormalsMapFliped.png"
		},
		{
			"mimeType":"image/png",
			"name":"aniol_diff",
			"uri":"textures/aniol_diff.png"
		},
		{
			"mimeType":"image/png",
			"name":"hair_new_0NormalsMapFlipped",
			"uri":"textures/hair_new_0NormalsMapFlipped.png"
		},
		{
			"mimeType":"image/png",
			"name":"hair_diff",
			"uri":"textures/hair_diff.png"
		}
	],
	"accessors":[
		{
			"bufferView":0,
			"componentType":5126,
			"count":29156,
			"max":[
				52.49842071533203,
				153.94656372070312,
				-4.156539440155029
			],
			"min":[
				-52.49842071533203,
				49.179298400878906,
				-37.36521530151367
			],
			"type":"VEC3"
		},
		{
			"bufferView":1,
			"componentType":5126,
			"count":29156,
			"type":"VEC3"
		},
		{
			"bufferView":2,
			"componentType":5126,
			"count":29156,
			"type":"VEC2"
		},
		{
			"bufferView":3,
			"componentType":5123,
			"count":170976,
			"type":"SCALAR"
		},
		{
			"bufferView":4,
			"componentType":5126,
			"count":39061,
			"max":[
				30.921632766723633,
				174.70697021484375,
				23.000316619873047
			],
			"min":[
				-29.35310173034668,
				9.5367431640625e-07,
				-32.207393646240234
			],
			"type":"VEC3"
		},
		{
			"bufferView":5,
			"componentType":5126,
			"count":39061,
			"type":"VEC3"
		},
		{
			"bufferView":6,
			"componentType":5126,
			"count":39061,
			"type":"VEC2"
		},
		{
			"bufferView":7,
			"componentType":5123,
			"count":226332,
			"type":"SCALAR"
		},
		{
			"bufferView":8,
			"componentType":5126,
			"count":2835,
			"max":[
				14.377799987792969,
				175.78216552734375,
				1.9278985261917114
			],
			"min":[
				-12.198699951171875,
				135.34915161132812,
				-17.639602661132812
			],
			"type":"VEC3"
		},
		{
			"bufferView":9,
			"componentType":5126,
			"count":2835,
			"type":"VEC3"
		},
		{
			"bufferView":10,
			"componentType":5126,
			"count":2835,
			"type":"VEC2"
		},
		{
			"bufferView":11,
			"componentType":5123,
			"count":16314,
			"type":"SCALAR"
		}
	],
	"bufferViews":[
		{
			"buffer":0,
			"byteLength":349872,
			"byteOffset":0,
			"target":34962
		},
		{
			"buffer":0,
			"byteLength":349872,
			"byteOffset":349872,
			"target":34962
		},
		{
			"buffer":0,
			"byteLength":233248,
			"byteOffset":699744,
			"target":34962
		},
		{
			"buffer":0,
			"byteLength":341952,
			"byteOffset":932992,
			"target":34963
		},
		{
			"buffer":0,
			"byteLength":468732,
			"byteOffset":1274944,
			"target":34962
		},
		{
			"buffer":0,
			"byteLength":468732,
			"byteOffset":1743676,
			"target":34962
		},
		{
			"buffer":0,
			"byteLength":312488,
			"byteOffset":2212408,
			"target":34962
		},
		{
			"buffer":0,
			"byteLength":452664,
			"byteOffset":2524896,
			"target":34963
		},
		{
			"buffer":0,
			"byteLength":34020,
			"byteOffset":2977560,
			"target":34962
		},
		{
			"buffer":0,
			"byteLength":34020,
			"byteOffset":3011580,
			"target":34962
		},
		{
			"buffer":0,
			"byteLength":22680,
			"byteOffset":3045600,
			"target":34962
		},
		{
			"buffer":0,
			"byteLength":32628,
			"byteOffset":3068280,
			"target":34963
		}
	],
	"samplers":[
		{
			"magFilter":9729,
			"minFilter":9987
		}
	],
	"buffers":[
		{
			"byteLength":3100908,
			"uri":"aniel.bin"
		}
	]
}
