{
	"asset":{
		"generator":"Khronos glTF Blender I/O v5.1.20",
		"version":"2.0"
	},
	"scene":0,
	"scenes":[
		{
			"name":"Scene",
			"nodes":[
				0
			]
		}
	],
	"nodes":[
		{
			"mesh":0,
			"name":"model_0"
		}
	],
	"materials":[
		{
			"doubleSided":true,
			"name":"Material.001",
			"pbrMetallicRoughness":{
				"baseColorTexture":{
					"index":0
				},
				"metallicFactor":0,
				"roughnessFactor":0.5
			}
		}
	],
	"meshes":[
		{
			"name":"model_0",
			"primitives":[
				{
					"attributes":{
						"POSITION":0,
						"NORMAL":1,
						"TEXCOORD_0":2
					},
					"indices":3,
					"material":0
				}
			]
		}
	],
	"textures":[
		{
			"sampler":0,
			"source":0
		}
	],
	"images":[
		{
			"mimeType":"image/jpeg",
			"name":"texture",
			"uri":"texture.jpg"
		}
	],
	"accessors":[
		{
			"bufferView":0,
			"componentType":5126,
			"count":33032,
			"max":[
				2.864253520965576,
				8.672416687011719,
				2.969129800796509
			],
			"min":[
				-2.8584682941436768,
				0.0010717795230448246,
				-2.9690675735473633
			],
			"type":"VEC3"
		},
		{
			"bufferView":1,
			"componentType":5126,
			"count":33032,
			"type":"VEC3"
		},
		{
			"bufferView":2,
			"componentType":5126,
			"count":33032,
			"type":"VEC2"
		},
		{
			"bufferView":3,
			"componentType":5123,
			"count":154323,
			"type":"SCALAR"
		}
	],
	"bufferViews":[
		{
			"buffer":0,
			"byteLength":396384,
			"byteOffset":0,
			"target":34962
		},
		{
			"buffer":0,
			"byteLength":396384,
			"byteOffset":396384,
			"target":34962
		},
		{
			"buffer":0,
			"byteLength":264256,
			"byteOffset":792768,
			"target":34962
		},
		{
			"buffer":0,
			"byteLength":308646,
			"byteOffset":1057024,
			"target":34963
		}
	],
	"samplers":[
		{
			"magFilter":9729,
			"minFilter":9987
		}
	],
	"buffers":[
		{
			"byteLength":1365672,
			"uri":"janus_lod.bin"
		}
	]
}
