{
	"asset":{
		"generator":"Khronos glTF Blender I/O v5.1.20",
		"version":"2.0"
	},
	"extensionsUsed":[
		"EXT_texture_webp",
		"KHR_materials_specular"
	],
	"extensionsRequired":[
		"EXT_texture_webp"
	],
	"scene":0,
	"scenes":[
		{
			"name":"Scene",
			"nodes":[
				0
			]
		}
	],
	"nodes":[
		{
			"mesh":0,
			"name":"Utah Teapot",
			"rotation":[
				0.70710688829422,
				0,
				0,
				0.7071066498756409
			]
		}
	],
	"materials":[
		{
			"doubleSided":true,
			"extensions":{
				"KHR_materials_specular":{
					"specularTexture":{
						"index":0
					}
				}
			},
			"name":"Material.002",
			"pbrMetallicRoughness":{
				"baseColorTexture":{
					"index":1
				},
				"metallicFactor":0,
				"roughnessFactor":0.5
			}
		}
	],
	"meshes":[
		{
			"name":"Utah Teapot",
			"primitives":[
				{
					"attributes":{
						"POSITION":0,
						"NORMAL":1,
						"TEXCOORD_0":2
					},
					"indices":3,
					"material":0
				}
			]
		}
	],
	"textures":[
		{
			"extensions":{
				"EXT_texture_webp":{
					"source":0
				}
			},
			"sampler":0
		},
		{
			"extensions":{
				"EXT_texture_webp":{
					"source":1
				}
			},
			"sampler":0
		}
	],
	"images":[
		{
			"mimeType":"image/webp",
			"name":"teapot_spec",
			"uri":"textures/marble_teapot_spec.webp"
		},
		{
			"mimeType":"image/webp",
			"name":"teapot_diff",
			"uri":"textures/marble_teapot_diff.webp"
		}
	],
	"accessors":[
		{
			"bufferView":0,
			"componentType":5126,
			"count":5522,
			"max":[
				3.4450173377990723,
				3.1500000953674316,
				2
			],
			"min":[
				-3,
				0,
				-2
			],
			"type":"VEC3"
		},
		{
			"bufferView":1,
			"componentType":5126,
			"count":5522,
			"type":"VEC3"
		},
		{
			"bufferView":2,
			"componentType":5126,
			"count":5522,
			"type":"VEC2"
		},
		{
			"bufferView":3,
			"componentType":5123,
			"count":30294,
			"type":"SCALAR"
		}
	],
	"bufferViews":[
		{
			"buffer":0,
			"byteLength":66264,
			"byteOffset":0,
			"target":34962
		},
		{
			"buffer":0,
			"byteLength":66264,
			"byteOffset":66264,
			"target":34962
		},
		{
			"buffer":0,
			"byteLength":44176,
			"byteOffset":132528,
			"target":34962
		},
		{
			"buffer":0,
			"byteLength":60588,
			"byteOffset":176704,
			"target":34963
		}
	],
	"samplers":[
		{
			"magFilter":9729,
			"minFilter":9987
		}
	],
	"buffers":[
		{
			"byteLength":237292,
			"uri":"marble_teapot.bin"
		}
	]
}
