{
	"asset":{
		"generator":"Khronos glTF Blender I/O v5.1.20",
		"version":"2.0"
	},
	"extensionsUsed":[
		"KHR_materials_specular",
		"KHR_materials_ior",
		"EXT_texture_webp"
	],
    "extensionsRequired": [
        "EXT_texture_webp"
    ],
	"scene":0,
	"scenes":[
		{
			"name":"Scene",
			"nodes":[
				0,
				1,
				2,
				3,
				4,
				5,
				6,
				7,
				8,
				9,
				10,
				11,
				12,
				13,
				14,
				15,
				16,
				17,
				18,
				19,
				20,
				21,
				22,
				23,
				24
			]
		}
	],
	"nodes":[
		{
			"mesh":0,
			"name":"Box019",
			"scale":[
				14.387938499450684,
				14.387938499450684,
				14.387938499450684
			],
			"translation":[
				-579.2701416015625,
				335.1173095703125,
				-5.00244140625
			]
		},
		{
			"mesh":1,
			"name":"Object433",
			"scale":[
				14.387938499450684,
				14.387938499450684,
				14.387938499450684
			],
			"translation":[
				-543.2550048828125,
				335.293701171875,
				-6.4410400390625
			]
		},
		{
			"mesh":2,
			"name":"Object434",
			"scale":[
				14.387938499450684,
				14.387938499450684,
				14.387938499450684
			],
			"translation":[
				-543.5911254882812,
				371.71875,
				3.59844970703125
			]
		},
		{
			"mesh":3,
			"name":"Object435",
			"scale":[
				14.387938499450684,
				14.387938499450684,
				14.387938499450684
			],
			"translation":[
				-468.8678894042969,
				408.6726379394531,
				-2.960540771484375
			]
		},
		{
			"mesh":4,
			"name":"Object436",
			"scale":[
				14.387938499450684,
				14.387938499450684,
				14.387938499450684
			],
			"translation":[
				-543.5791015625,
				261.8131103515625,
				2.522247314453125
			]
		},
		{
			"mesh":5,
			"name":"Object437",
			"scale":[
				14.387938499450684,
				14.387938499450684,
				14.387938499450684
			],
			"translation":[
				-505.93426513671875,
				372.033447265625,
				-6.20526123046875
			]
		},
		{
			"mesh":6,
			"name":"Object438",
			"scale":[
				14.387938499450684,
				14.387938499450684,
				14.387938499450684
			],
			"translation":[
				-468.64080810546875,
				335.3912353515625,
				0.4940185546875
			]
		},
		{
			"mesh":7,
			"name":"Object439",
			"scale":[
				14.387938499450684,
				14.387938499450684,
				14.387938499450684
			],
			"translation":[
				-543.0829467773438,
				408.2161865234375,
				-0.792236328125
			]
		},
		{
			"mesh":8,
			"name":"Object440",
			"scale":[
				14.387938499450684,
				14.387938499450684,
				14.387938499450684
			],
			"translation":[
				-616.3850708007812,
				335.1296081542969,
				-2.42425537109375
			]
		},
		{
			"mesh":9,
			"name":"Object441",
			"scale":[
				14.387938499450684,
				14.387938499450684,
				14.387938499450684
			],
			"translation":[
				-505.12469482421875,
				298.2703552246094,
				1.105438232421875
			]
		},
		{
			"mesh":10,
			"name":"Object442",
			"scale":[
				14.387938499450684,
				14.387938499450684,
				14.387938499450684
			],
			"translation":[
				-617.0637817382812,
				261.96234130859375,
				-0.802825927734375
			]
		},
		{
			"mesh":11,
			"name":"Object443",
			"scale":[
				14.387938499450684,
				14.387938499450684,
				14.387938499450684
			],
			"translation":[
				-468.9692077636719,
				262.1588134765625,
				-2.74273681640625
			]
		},
		{
			"mesh":12,
			"name":"Object444",
			"scale":[
				14.387938499450684,
				14.387938499450684,
				14.387938499450684
			],
			"translation":[
				-469.01910400390625,
				371.82720947265625,
				3.2952728271484375
			]
		},
		{
			"mesh":13,
			"name":"Object445",
			"scale":[
				14.387938499450684,
				14.387938499450684,
				14.387938499450684
			],
			"translation":[
				-468.59918212890625,
				298.6327209472656,
				-6.790790557861328
			]
		},
		{
			"mesh":14,
			"name":"Object446",
			"scale":[
				14.387938499450684,
				14.387938499450684,
				14.387938499450684
			],
			"translation":[
				-580.0123901367188,
				298.3729553222656,
				-0.13698196411132812
			]
		},
		{
			"mesh":15,
			"name":"Object447",
			"scale":[
				14.387938499450684,
				14.387938499450684,
				14.387938499450684
			],
			"translation":[
				-505.3033447265625,
				334.7853698730469,
				1.7760772705078125
			]
		},
		{
			"mesh":16,
			"name":"Object448",
			"scale":[
				14.387938499450684,
				14.387938499450684,
				14.387938499450684
			],
			"translation":[
				-506.5626220703125,
				262.02587890625,
				-5.385124206542969
			]
		},
		{
			"mesh":17,
			"name":"Object449",
			"scale":[
				14.387938499450684,
				14.387938499450684,
				14.387938499450684
			],
			"translation":[
				-580.3916625976562,
				408.594482421875,
				-4.2633514404296875
			]
		},
		{
			"mesh":18,
			"name":"Object450",
			"scale":[
				14.387938499450684,
				14.387938499450684,
				14.387938499450684
			],
			"translation":[
				-579.5118408203125,
				261.8236083984375,
				1.8819580078125
			]
		},
		{
			"mesh":19,
			"name":"Object451",
			"scale":[
				14.387938499450684,
				14.387938499450684,
				14.387938499450684
			],
			"translation":[
				-543.1673583984375,
				298.4879455566406,
				4.0962371826171875
			]
		},
		{
			"mesh":20,
			"name":"Object452",
			"scale":[
				14.387938499450684,
				14.387938499450684,
				14.387938499450684
			],
			"translation":[
				-616.7255859375,
				408.39739990234375,
				0.899017333984375
			]
		},
		{
			"mesh":21,
			"name":"Object453",
			"scale":[
				14.387938499450684,
				14.387938499450684,
				14.387938499450684
			],
			"translation":[
				-506.494140625,
				408.317626953125,
				0.81103515625
			]
		},
		{
			"mesh":22,
			"name":"Object454",
			"scale":[
				14.387938499450684,
				14.387938499450684,
				14.387938499450684
			],
			"translation":[
				-617.1553344726562,
				298.75543212890625,
				6.338836669921875
			]
		},
		{
			"mesh":23,
			"name":"Object455",
			"scale":[
				14.387938499450684,
				14.387938499450684,
				14.387938499450684
			],
			"translation":[
				-616.966796875,
				371.69769287109375,
				-5.7667236328125
			]
		},
		{
			"mesh":24,
			"name":"Object456",
			"scale":[
				14.387938499450684,
				14.387938499450684,
				14.387938499450684
			],
			"translation":[
				-579.7439575195312,
				372.2519226074219,
				5.77154541015625
			]
		}
	],
	"materials":[
		{
			"doubleSided":true,
			"extensions":{
				"KHR_materials_specular":{
					"specularColorFactor":[
						0.0,
						0.0,
						0.0
					]
				},
				"KHR_materials_ior":{
					"ior":1.600000023841858
				}
			},
			"name":"Stone cube granite panel n1_E:\\PRODAGA 3D MODELI two\\Decor 3d two\\STONE DECOR two\\Stone cube granite panel n1\\Tex Stone cube granite panel n1\\Stone cube granite panel n1 DifMap Final",
			"pbrMetallicRoughness":{
				"baseColorTexture":{
					"index":0
				},
				"metallicFactor":0,
				"roughnessFactor":0
			}
		}
	],
	"meshes":[
		{
			"name":"Box019",
			"primitives":[
				{
					"attributes":{
						"POSITION":0,
						"NORMAL":1,
						"TEXCOORD_0":2
					},
					"indices":3,
					"material":0
				}
			]
		},
		{
			"name":"Object433",
			"primitives":[
				{
					"attributes":{
						"POSITION":4,
						"NORMAL":5,
						"TEXCOORD_0":6
					},
					"indices":7,
					"material":0
				}
			]
		},
		{
			"name":"Object434",
			"primitives":[
				{
					"attributes":{
						"POSITION":8,
						"NORMAL":9,
						"TEXCOORD_0":10
					},
					"indices":11,
					"material":0
				}
			]
		},
		{
			"name":"Object435",
			"primitives":[
				{
					"attributes":{
						"POSITION":12,
						"NORMAL":13,
						"TEXCOORD_0":14
					},
					"indices":15,
					"material":0
				}
			]
		},
		{
			"name":"Object436",
			"primitives":[
				{
					"attributes":{
						"POSITION":16,
						"NORMAL":17,
						"TEXCOORD_0":18
					},
					"indices":19,
					"material":0
				}
			]
		},
		{
			"name":"Object437",
			"primitives":[
				{
					"attributes":{
						"POSITION":20,
						"NORMAL":21,
						"TEXCOORD_0":22
					},
					"indices":23,
					"material":0
				}
			]
		},
		{
			"name":"Object438",
			"primitives":[
				{
					"attributes":{
						"POSITION":24,
						"NORMAL":25,
						"TEXCOORD_0":26
					},
					"indices":27,
					"material":0
				}
			]
		},
		{
			"name":"Object439",
			"primitives":[
				{
					"attributes":{
						"POSITION":28,
						"NORMAL":29,
						"TEXCOORD_0":30
					},
					"indices":31,
					"material":0
				}
			]
		},
		{
			"name":"Object440",
			"primitives":[
				{
					"attributes":{
						"POSITION":32,
						"NORMAL":33,
						"TEXCOORD_0":34
					},
					"indices":35,
					"material":0
				}
			]
		},
		{
			"name":"Object441",
			"primitives":[
				{
					"attributes":{
						"POSITION":36,
						"NORMAL":37,
						"TEXCOORD_0":38
					},
					"indices":39,
					"material":0
				}
			]
		},
		{
			"name":"Object442",
			"primitives":[
				{
					"attributes":{
						"POSITION":40,
						"NORMAL":41,
						"TEXCOORD_0":42
					},
					"indices":43,
					"material":0
				}
			]
		},
		{
			"name":"Object443",
			"primitives":[
				{
					"attributes":{
						"POSITION":44,
						"NORMAL":45,
						"TEXCOORD_0":46
					},
					"indices":47,
					"material":0
				}
			]
		},
		{
			"name":"Object444",
			"primitives":[
				{
					"attributes":{
						"POSITION":48,
						"NORMAL":49,
						"TEXCOORD_0":50
					},
					"indices":51,
					"material":0
				}
			]
		},
		{
			"name":"Object445",
			"primitives":[
				{
					"attributes":{
						"POSITION":52,
						"NORMAL":53,
						"TEXCOORD_0":54
					},
					"indices":55,
					"material":0
				}
			]
		},
		{
			"name":"Object446",
			"primitives":[
				{
					"attributes":{
						"POSITION":56,
						"NORMAL":57,
						"TEXCOORD_0":58
					},
					"indices":59,
					"material":0
				}
			]
		},
		{
			"name":"Object447",
			"primitives":[
				{
					"attributes":{
						"POSITION":60,
						"NORMAL":61,
						"TEXCOORD_0":62
					},
					"indices":63,
					"material":0
				}
			]
		},
		{
			"name":"Object448",
			"primitives":[
				{
					"attributes":{
						"POSITION":64,
						"NORMAL":65,
						"TEXCOORD_0":66
					},
					"indices":67,
					"material":0
				}
			]
		},
		{
			"name":"Object449",
			"primitives":[
				{
					"attributes":{
						"POSITION":68,
						"NORMAL":69,
						"TEXCOORD_0":70
					},
					"indices":71,
					"material":0
				}
			]
		},
		{
			"name":"Object450",
			"primitives":[
				{
					"attributes":{
						"POSITION":72,
						"NORMAL":73,
						"TEXCOORD_0":74
					},
					"indices":75,
					"material":0
				}
			]
		},
		{
			"name":"Object451",
			"primitives":[
				{
					"attributes":{
						"POSITION":76,
						"NORMAL":77,
						"TEXCOORD_0":78
					},
					"indices":79,
					"material":0
				}
			]
		},
		{
			"name":"Object452",
			"primitives":[
				{
					"attributes":{
						"POSITION":80,
						"NORMAL":81,
						"TEXCOORD_0":82
					},
					"indices":83,
					"material":0
				}
			]
		},
		{
			"name":"Object453",
			"primitives":[
				{
					"attributes":{
						"POSITION":84,
						"NORMAL":85,
						"TEXCOORD_0":86
					},
					"indices":87,
					"material":0
				}
			]
		},
		{
			"name":"Object454",
			"primitives":[
				{
					"attributes":{
						"POSITION":88,
						"NORMAL":89,
						"TEXCOORD_0":90
					},
					"indices":91,
					"material":0
				}
			]
		},
		{
			"name":"Object455",
			"primitives":[
				{
					"attributes":{
						"POSITION":92,
						"NORMAL":93,
						"TEXCOORD_0":94
					},
					"indices":95,
					"material":0
				}
			]
		},
		{
			"name":"Object456",
			"primitives":[
				{
					"attributes":{
						"POSITION":96,
						"NORMAL":97,
						"TEXCOORD_0":98
					},
					"indices":99,
					"material":0
				}
			]
		}
	],
	"textures":[
		{
			"sampler":0,
			"source":0
		}
	],
	"images":[
		{
			"mimeType":"image/webp",
			"name":"diff",
			"uri":"textures/diff.webp"
		}
	],
	"accessors":[
		{
			"bufferView":0,
			"componentType":5126,
			"count":555,
			"max":[
				1.3654122352600098,
				1.2194093465805054,
				1.2271881103515625
			],
			"min":[
				-1.3633527755737305,
				-1.22371244430542,
				-1.225860595703125
			],
			"type":"VEC3"
		},
		{
			"bufferView":1,
			"componentType":5126,
			"count":555,
			"type":"VEC3"
		},
		{
			"bufferView":2,
			"componentType":5126,
			"count":555,
			"type":"VEC2"
		},
		{
			"bufferView":3,
			"componentType":5123,
			"count":2334,
			"type":"SCALAR"
		},
		{
			"bufferView":4,
			"componentType":5126,
			"count":565,
			"max":[
				1.2610297203063965,
				1.2413902282714844,
				1.2570419311523438
			],
			"min":[
				-1.2611119747161865,
				-1.241794228553772,
				-1.2578315734863281
			],
			"type":"VEC3"
		},
		{
			"bufferView":5,
			"componentType":5126,
			"count":565,
			"type":"VEC3"
		},
		{
			"bufferView":6,
			"componentType":5126,
			"count":565,
			"type":"VEC2"
		},
		{
			"bufferView":7,
			"componentType":5123,
			"count":2394,
			"type":"SCALAR"
		},
		{
			"bufferView":8,
			"componentType":5126,
			"count":554,
			"max":[
				1.253143548965454,
				1.2019140720367432,
				1.2491989135742188
			],
			"min":[
				-1.2522386312484741,
				-1.2010992765426636,
				-1.2490425109863281
			],
			"type":"VEC3"
		},
		{
			"bufferView":9,
			"componentType":5126,
			"count":554,
			"type":"VEC3"
		},
		{
			"bufferView":10,
			"componentType":5126,
			"count":554,
			"type":"VEC2"
		},
		{
			"bufferView":11,
			"componentType":5123,
			"count":2334,
			"type":"SCALAR"
		},
		{
			"bufferView":12,
			"componentType":5126,
			"count":562,
			"max":[
				1.25947904586792,
				1.2327704429626465,
				1.2559928894042969
			],
			"min":[
				-1.2591495513916016,
				-1.2517924308776855,
				-1.2561283111572266
			],
			"type":"VEC3"
		},
		{
			"bufferView":13,
			"componentType":5126,
			"count":562,
			"type":"VEC3"
		},
		{
			"bufferView":14,
			"componentType":5126,
			"count":562,
			"type":"VEC2"
		},
		{
			"bufferView":15,
			"componentType":5123,
			"count":2376,
			"type":"SCALAR"
		},
		{
			"bufferView":16,
			"componentType":5126,
			"count":559,
			"max":[
				1.2507917881011963,
				1.19111967086792,
				1.2282733917236328
			],
			"min":[
				-1.2365269660949707,
				-1.1913976669311523,
				-1.2278518676757812
			],
			"type":"VEC3"
		},
		{
			"bufferView":17,
			"componentType":5126,
			"count":559,
			"type":"VEC3"
		},
		{
			"bufferView":18,
			"componentType":5126,
			"count":559,
			"type":"VEC2"
		},
		{
			"bufferView":19,
			"componentType":5123,
			"count":2352,
			"type":"SCALAR"
		},
		{
			"bufferView":20,
			"componentType":5126,
			"count":541,
			"max":[
				1.2907583713531494,
				1.2268478870391846,
				1.2393207550048828
			],
			"min":[
				-1.290809154510498,
				-1.2258915901184082,
				-1.2343769073486328
			],
			"type":"VEC3"
		},
		{
			"bufferView":21,
			"componentType":5126,
			"count":541,
			"type":"VEC3"
		},
		{
			"bufferView":22,
			"componentType":5126,
			"count":541,
			"type":"VEC2"
		},
		{
			"bufferView":23,
			"componentType":5123,
			"count":2286,
			"type":"SCALAR"
		},
		{
			"bufferView":24,
			"componentType":5126,
			"count":560,
			"max":[
				1.2439765930175781,
				1.239552617073059,
				1.2308979034423828
			],
			"min":[
				-1.2434663772583008,
				-1.2400964498519897,
				-1.2315807342529297
			],
			"type":"VEC3"
		},
		{
			"bufferView":25,
			"componentType":5126,
			"count":560,
			"type":"VEC3"
		},
		{
			"bufferView":26,
			"componentType":5126,
			"count":560,
			"type":"VEC2"
		},
		{
			"bufferView":27,
			"componentType":5123,
			"count":2364,
			"type":"SCALAR"
		},
		{
			"bufferView":28,
			"componentType":5126,
			"count":545,
			"max":[
				1.287784218788147,
				1.2252178192138672,
				1.2183647155761719
			],
			"min":[
				-1.285513997077942,
				-1.2250771522521973,
				-1.2188034057617188
			],
			"type":"VEC3"
		},
		{
			"bufferView":29,
			"componentType":5126,
			"count":545,
			"type":"VEC3"
		},
		{
			"bufferView":30,
			"componentType":5126,
			"count":545,
			"type":"VEC2"
		},
		{
			"bufferView":31,
			"componentType":5123,
			"count":2304,
			"type":"SCALAR"
		},
		{
			"bufferView":32,
			"componentType":5126,
			"count":560,
			"max":[
				1.3217096328735352,
				1.2178181409835815,
				1.2357864379882812
			],
			"min":[
				-1.3217434883117676,
				-1.218459129333496,
				-1.2298946380615234
			],
			"type":"VEC3"
		},
		{
			"bufferView":33,
			"componentType":5126,
			"count":560,
			"type":"VEC3"
		},
		{
			"bufferView":34,
			"componentType":5126,
			"count":560,
			"type":"VEC2"
		},
		{
			"bufferView":35,
			"componentType":5123,
			"count":2370,
			"type":"SCALAR"
		},
		{
			"bufferView":36,
			"componentType":5126,
			"count":545,
			"max":[
				1.2223050594329834,
				1.240427017211914,
				1.2291755676269531
			],
			"min":[
				-1.2213178873062134,
				-1.240736484527588,
				-1.2297554016113281
			],
			"type":"VEC3"
		},
		{
			"bufferView":37,
			"componentType":5126,
			"count":545,
			"type":"VEC3"
		},
		{
			"bufferView":38,
			"componentType":5126,
			"count":545,
			"type":"VEC2"
		},
		{
			"bufferView":39,
			"componentType":5123,
			"count":2304,
			"type":"SCALAR"
		},
		{
			"bufferView":40,
			"componentType":5126,
			"count":550,
			"max":[
				1.347783088684082,
				1.2426705360412598,
				1.198740005493164
			],
			"min":[
				-1.3496084213256836,
				-1.2426986694335938,
				-1.2010068893432617
			],
			"type":"VEC3"
		},
		{
			"bufferView":41,
			"componentType":5126,
			"count":550,
			"type":"VEC3"
		},
		{
			"bufferView":42,
			"componentType":5126,
			"count":550,
			"type":"VEC2"
		},
		{
			"bufferView":43,
			"componentType":5123,
			"count":2316,
			"type":"SCALAR"
		},
		{
			"bufferView":44,
			"componentType":5126,
			"count":547,
			"max":[
				1.304133415222168,
				1.2475433349609375,
				1.2818326950073242
			],
			"min":[
				-1.3035783767700195,
				-1.2475180625915527,
				-1.2557315826416016
			],
			"type":"VEC3"
		},
		{
			"bufferView":45,
			"componentType":5126,
			"count":547,
			"type":"VEC3"
		},
		{
			"bufferView":46,
			"componentType":5126,
			"count":547,
			"type":"VEC2"
		},
		{
			"bufferView":47,
			"componentType":5123,
			"count":2322,
			"type":"SCALAR"
		},
		{
			"bufferView":48,
			"componentType":5126,
			"count":549,
			"max":[
				1.291210651397705,
				1.2283248901367188,
				1.2159113883972168
			],
			"min":[
				-1.2940592765808105,
				-1.2136191129684448,
				-1.2160239219665527
			],
			"type":"VEC3"
		},
		{
			"bufferView":49,
			"componentType":5126,
			"count":549,
			"type":"VEC3"
		},
		{
			"bufferView":50,
			"componentType":5126,
			"count":549,
			"type":"VEC2"
		},
		{
			"bufferView":51,
			"componentType":5123,
			"count":2310,
			"type":"SCALAR"
		},
		{
			"bufferView":52,
			"componentType":5126,
			"count":544,
			"max":[
				1.2295794486999512,
				1.2126306295394897,
				1.2605699300765991
			],
			"min":[
				-1.2145400047302246,
				-1.2134747505187988,
				-1.2605735063552856
			],
			"type":"VEC3"
		},
		{
			"bufferView":53,
			"componentType":5126,
			"count":544,
			"type":"VEC3"
		},
		{
			"bufferView":54,
			"componentType":5126,
			"count":544,
			"type":"VEC2"
		},
		{
			"bufferView":55,
			"componentType":5123,
			"count":2286,
			"type":"SCALAR"
		},
		{
			"bufferView":56,
			"componentType":5126,
			"count":533,
			"max":[
				1.2422393560409546,
				1.2203474044799805,
				1.271153211593628
			],
			"min":[
				-1.248199462890625,
				-1.220261573791504,
				-1.2698097229003906
			],
			"type":"VEC3"
		},
		{
			"bufferView":57,
			"componentType":5126,
			"count":533,
			"type":"VEC3"
		},
		{
			"bufferView":58,
			"componentType":5126,
			"count":533,
			"type":"VEC2"
		},
		{
			"bufferView":59,
			"componentType":5123,
			"count":2250,
			"type":"SCALAR"
		},
		{
			"bufferView":60,
			"componentType":5126,
			"count":529,
			"max":[
				1.2633473873138428,
				1.2532950639724731,
				1.2396049499511719
			],
			"min":[
				-1.2640107870101929,
				-1.2548109292984009,
				-1.2405638694763184
			],
			"type":"VEC3"
		},
		{
			"bufferView":61,
			"componentType":5126,
			"count":529,
			"type":"VEC3"
		},
		{
			"bufferView":62,
			"componentType":5126,
			"count":529,
			"type":"VEC2"
		},
		{
			"bufferView":63,
			"componentType":5123,
			"count":2226,
			"type":"SCALAR"
		},
		{
			"bufferView":64,
			"componentType":5126,
			"count":530,
			"max":[
				1.2491717338562012,
				1.2133655548095703,
				1.2157983779907227
			],
			"min":[
				-1.2522779703140259,
				-1.2114953994750977,
				-1.216712474822998
			],
			"type":"VEC3"
		},
		{
			"bufferView":65,
			"componentType":5126,
			"count":530,
			"type":"VEC3"
		},
		{
			"bufferView":66,
			"componentType":5126,
			"count":530,
			"type":"VEC2"
		},
		{
			"bufferView":67,
			"componentType":5123,
			"count":2226,
			"type":"SCALAR"
		},
		{
			"bufferView":68,
			"componentType":5126,
			"count":537,
			"max":[
				1.28346586227417,
				1.2320222854614258,
				1.2504863739013672
			],
			"min":[
				-1.2845356464385986,
				-1.2330598831176758,
				-1.2505369186401367
			],
			"type":"VEC3"
		},
		{
			"bufferView":69,
			"componentType":5126,
			"count":537,
			"type":"VEC3"
		},
		{
			"bufferView":70,
			"componentType":5126,
			"count":537,
			"type":"VEC2"
		},
		{
			"bufferView":71,
			"componentType":5123,
			"count":2274,
			"type":"SCALAR"
		},
		{
			"bufferView":72,
			"componentType":5126,
			"count":553,
			"max":[
				1.2806602716445923,
				1.245147705078125,
				1.2177906036376953
			],
			"min":[
				-1.2793529033660889,
				-1.2447032928466797,
				-1.2168121337890625
			],
			"type":"VEC3"
		},
		{
			"bufferView":73,
			"componentType":5126,
			"count":553,
			"type":"VEC3"
		},
		{
			"bufferView":74,
			"componentType":5126,
			"count":553,
			"type":"VEC2"
		},
		{
			"bufferView":75,
			"componentType":5123,
			"count":2346,
			"type":"SCALAR"
		},
		{
			"bufferView":76,
			"componentType":5126,
			"count":530,
			"max":[
				1.2318320274353027,
				1.1996023654937744,
				1.2592840194702148
			],
			"min":[
				-1.233320713043213,
				-1.2174263000488281,
				-1.2593269348144531
			],
			"type":"VEC3"
		},
		{
			"bufferView":77,
			"componentType":5126,
			"count":530,
			"type":"VEC3"
		},
		{
			"bufferView":78,
			"componentType":5126,
			"count":530,
			"type":"VEC2"
		},
		{
			"bufferView":79,
			"componentType":5123,
			"count":2244,
			"type":"SCALAR"
		},
		{
			"bufferView":80,
			"componentType":5126,
			"count":526,
			"max":[
				1.227609634399414,
				1.2249836921691895,
				1.2502670288085938
			],
			"min":[
				-1.227902889251709,
				-1.2249226570129395,
				-1.2504043579101562
			],
			"type":"VEC3"
		},
		{
			"bufferView":81,
			"componentType":5126,
			"count":526,
			"type":"VEC3"
		},
		{
			"bufferView":82,
			"componentType":5126,
			"count":526,
			"type":"VEC2"
		},
		{
			"bufferView":83,
			"componentType":5123,
			"count":2226,
			"type":"SCALAR"
		},
		{
			"bufferView":84,
			"componentType":5126,
			"count":540,
			"max":[
				1.2681324481964111,
				1.2633910179138184,
				1.2060928344726562
			],
			"min":[
				-1.2668395042419434,
				-1.2640738487243652,
				-1.2073173522949219
			],
			"type":"VEC3"
		},
		{
			"bufferView":85,
			"componentType":5126,
			"count":540,
			"type":"VEC3"
		},
		{
			"bufferView":86,
			"componentType":5126,
			"count":540,
			"type":"VEC2"
		},
		{
			"bufferView":87,
			"componentType":5123,
			"count":2268,
			"type":"SCALAR"
		},
		{
			"bufferView":88,
			"componentType":5126,
			"count":549,
			"max":[
				1.2442278861999512,
				1.2357463836669922,
				1.2402477264404297
			],
			"min":[
				-1.2438359260559082,
				-1.2340633869171143,
				-1.2398872375488281
			],
			"type":"VEC3"
		},
		{
			"bufferView":89,
			"componentType":5126,
			"count":549,
			"type":"VEC3"
		},
		{
			"bufferView":90,
			"componentType":5126,
			"count":549,
			"type":"VEC2"
		},
		{
			"bufferView":91,
			"componentType":5123,
			"count":2316,
			"type":"SCALAR"
		},
		{
			"bufferView":92,
			"componentType":5126,
			"count":552,
			"max":[
				1.2793617248535156,
				1.2519147396087646,
				1.226511001586914
			],
			"min":[
				-1.2828969955444336,
				-1.2508044242858887,
				-1.2258262634277344
			],
			"type":"VEC3"
		},
		{
			"bufferView":93,
			"componentType":5126,
			"count":552,
			"type":"VEC3"
		},
		{
			"bufferView":94,
			"componentType":5126,
			"count":552,
			"type":"VEC2"
		},
		{
			"bufferView":95,
			"componentType":5123,
			"count":2334,
			"type":"SCALAR"
		},
		{
			"bufferView":96,
			"componentType":5126,
			"count":555,
			"max":[
				1.2350142002105713,
				1.2378742694854736,
				1.2658615112304688
			],
			"min":[
				-1.2340903282165527,
				-1.2372660636901855,
				-1.2635726928710938
			],
			"type":"VEC3"
		},
		{
			"bufferView":97,
			"componentType":5126,
			"count":555,
			"type":"VEC3"
		},
		{
			"bufferView":98,
			"componentType":5126,
			"count":555,
			"type":"VEC2"
		},
		{
			"bufferView":99,
			"componentType":5123,
			"count":2340,
			"type":"SCALAR"
		}
	],
	"bufferViews":[
		{
			"buffer":0,
			"byteLength":6660,
			"byteOffset":0,
			"target":34962
		},
		{
			"buffer":0,
			"byteLength":6660,
			"byteOffset":6660,
			"target":34962
		},
		{
			"buffer":0,
			"byteLength":4440,
			"byteOffset":13320,
			"target":34962
		},
		{
			"buffer":0,
			"byteLength":4668,
			"byteOffset":17760,
			"target":34963
		},
		{
			"buffer":0,
			"byteLength":6780,
			"byteOffset":22428,
			"target":34962
		},
		{
			"buffer":0,
			"byteLength":6780,
			"byteOffset":29208,
			"target":34962
		},
		{
			"buffer":0,
			"byteLength":4520,
			"byteOffset":35988,
			"target":34962
		},
		{
			"buffer":0,
			"byteLength":4788,
			"byteOffset":40508,
			"target":34963
		},
		{
			"buffer":0,
			"byteLength":6648,
			"byteOffset":45296,
			"target":34962
		},
		{
			"buffer":0,
			"byteLength":6648,
			"byteOffset":51944,
			"target":34962
		},
		{
			"buffer":0,
			"byteLength":4432,
			"byteOffset":58592,
			"target":34962
		},
		{
			"buffer":0,
			"byteLength":4668,
			"byteOffset":63024,
			"target":34963
		},
		{
			"buffer":0,
			"byteLength":6744,
			"byteOffset":67692,
			"target":34962
		},
		{
			"buffer":0,
			"byteLength":6744,
			"byteOffset":74436,
			"target":34962
		},
		{
			"buffer":0,
			"byteLength":4496,
			"byteOffset":81180,
			"target":34962
		},
		{
			"buffer":0,
			"byteLength":4752,
			"byteOffset":85676,
			"target":34963
		},
		{
			"buffer":0,
			"byteLength":6708,
			"byteOffset":90428,
			"target":34962
		},
		{
			"buffer":0,
			"byteLength":6708,
			"byteOffset":97136,
			"target":34962
		},
		{
			"buffer":0,
			"byteLength":4472,
			"byteOffset":103844,
			"target":34962
		},
		{
			"buffer":0,
			"byteLength":4704,
			"byteOffset":108316,
			"target":34963
		},
		{
			"buffer":0,
			"byteLength":6492,
			"byteOffset":113020,
			"target":34962
		},
		{
			"buffer":0,
			"byteLength":6492,
			"byteOffset":119512,
			"target":34962
		},
		{
			"buffer":0,
			"byteLength":4328,
			"byteOffset":126004,
			"target":34962
		},
		{
			"buffer":0,
			"byteLength":4572,
			"byteOffset":130332,
			"target":34963
		},
		{
			"buffer":0,
			"byteLength":6720,
			"byteOffset":134904,
			"target":34962
		},
		{
			"buffer":0,
			"byteLength":6720,
			"byteOffset":141624,
			"target":34962
		},
		{
			"buffer":0,
			"byteLength":4480,
			"byteOffset":148344,
			"target":34962
		},
		{
			"buffer":0,
			"byteLength":4728,
			"byteOffset":152824,
			"target":34963
		},
		{
			"buffer":0,
			"byteLength":6540,
			"byteOffset":157552,
			"target":34962
		},
		{
			"buffer":0,
			"byteLength":6540,
			"byteOffset":164092,
			"target":34962
		},
		{
			"buffer":0,
			"byteLength":4360,
			"byteOffset":170632,
			"target":34962
		},
		{
			"buffer":0,
			"byteLength":4608,
			"byteOffset":174992,
			"target":34963
		},
		{
			"buffer":0,
			"byteLength":6720,
			"byteOffset":179600,
			"target":34962
		},
		{
			"buffer":0,
			"byteLength":6720,
			"byteOffset":186320,
			"target":34962
		},
		{
			"buffer":0,
			"byteLength":4480,
			"byteOffset":193040,
			"target":34962
		},
		{
			"buffer":0,
			"byteLength":4740,
			"byteOffset":197520,
			"target":34963
		},
		{
			"buffer":0,
			"byteLength":6540,
			"byteOffset":202260,
			"target":34962
		},
		{
			"buffer":0,
			"byteLength":6540,
			"byteOffset":208800,
			"target":34962
		},
		{
			"buffer":0,
			"byteLength":4360,
			"byteOffset":215340,
			"target":34962
		},
		{
			"buffer":0,
			"byteLength":4608,
			"byteOffset":219700,
			"target":34963
		},
		{
			"buffer":0,
			"byteLength":6600,
			"byteOffset":224308,
			"target":34962
		},
		{
			"buffer":0,
			"byteLength":6600,
			"byteOffset":230908,
			"target":34962
		},
		{
			"buffer":0,
			"byteLength":4400,
			"byteOffset":237508,
			"target":34962
		},
		{
			"buffer":0,
			"byteLength":4632,
			"byteOffset":241908,
			"target":34963
		},
		{
			"buffer":0,
			"byteLength":6564,
			"byteOffset":246540,
			"target":34962
		},
		{
			"buffer":0,
			"byteLength":6564,
			"byteOffset":253104,
			"target":34962
		},
		{
			"buffer":0,
			"byteLength":4376,
			"byteOffset":259668,
			"target":34962
		},
		{
			"buffer":0,
			"byteLength":4644,
			"byteOffset":264044,
			"target":34963
		},
		{
			"buffer":0,
			"byteLength":6588,
			"byteOffset":268688,
			"target":34962
		},
		{
			"buffer":0,
			"byteLength":6588,
			"byteOffset":275276,
			"target":34962
		},
		{
			"buffer":0,
			"byteLength":4392,
			"byteOffset":281864,
			"target":34962
		},
		{
			"buffer":0,
			"byteLength":4620,
			"byteOffset":286256,
			"target":34963
		},
		{
			"buffer":0,
			"byteLength":6528,
			"byteOffset":290876,
			"target":34962
		},
		{
			"buffer":0,
			"byteLength":6528,
			"byteOffset":297404,
			"target":34962
		},
		{
			"buffer":0,
			"byteLength":4352,
			"byteOffset":303932,
			"target":34962
		},
		{
			"buffer":0,
			"byteLength":4572,
			"byteOffset":308284,
			"target":34963
		},
		{
			"buffer":0,
			"byteLength":6396,
			"byteOffset":312856,
			"target":34962
		},
		{
			"buffer":0,
			"byteLength":6396,
			"byteOffset":319252,
			"target":34962
		},
		{
			"buffer":0,
			"byteLength":4264,
			"byteOffset":325648,
			"target":34962
		},
		{
			"buffer":0,
			"byteLength":4500,
			"byteOffset":329912,
			"target":34963
		},
		{
			"buffer":0,
			"byteLength":6348,
			"byteOffset":334412,
			"target":34962
		},
		{
			"buffer":0,
			"byteLength":6348,
			"byteOffset":340760,
			"target":34962
		},
		{
			"buffer":0,
			"byteLength":4232,
			"byteOffset":347108,
			"target":34962
		},
		{
			"buffer":0,
			"byteLength":4452,
			"byteOffset":351340,
			"target":34963
		},
		{
			"buffer":0,
			"byteLength":6360,
			"byteOffset":355792,
			"target":34962
		},
		{
			"buffer":0,
			"byteLength":6360,
			"byteOffset":362152,
			"target":34962
		},
		{
			"buffer":0,
			"byteLength":4240,
			"byteOffset":368512,
			"target":34962
		},
		{
			"buffer":0,
			"byteLength":4452,
			"byteOffset":372752,
			"target":34963
		},
		{
			"buffer":0,
			"byteLength":6444,
			"byteOffset":377204,
			"target":34962
		},
		{
			"buffer":0,
			"byteLength":6444,
			"byteOffset":383648,
			"target":34962
		},
		{
			"buffer":0,
			"byteLength":4296,
			"byteOffset":390092,
			"target":34962
		},
		{
			"buffer":0,
			"byteLength":4548,
			"byteOffset":394388,
			"target":34963
		},
		{
			"buffer":0,
			"byteLength":6636,
			"byteOffset":398936,
			"target":34962
		},
		{
			"buffer":0,
			"byteLength":6636,
			"byteOffset":405572,
			"target":34962
		},
		{
			"buffer":0,
			"byteLength":4424,
			"byteOffset":412208,
			"target":34962
		},
		{
			"buffer":0,
			"byteLength":4692,
			"byteOffset":416632,
			"target":34963
		},
		{
			"buffer":0,
			"byteLength":6360,
			"byteOffset":421324,
			"target":34962
		},
		{
			"buffer":0,
			"byteLength":6360,
			"byteOffset":427684,
			"target":34962
		},
		{
			"buffer":0,
			"byteLength":4240,
			"byteOffset":434044,
			"target":34962
		},
		{
			"buffer":0,
			"byteLength":4488,
			"byteOffset":438284,
			"target":34963
		},
		{
			"buffer":0,
			"byteLength":6312,
			"byteOffset":442772,
			"target":34962
		},
		{
			"buffer":0,
			"byteLength":6312,
			"byteOffset":449084,
			"target":34962
		},
		{
			"buffer":0,
			"byteLength":4208,
			"byteOffset":455396,
			"target":34962
		},
		{
			"buffer":0,
			"byteLength":4452,
			"byteOffset":459604,
			"target":34963
		},
		{
			"buffer":0,
			"byteLength":6480,
			"byteOffset":464056,
			"target":34962
		},
		{
			"buffer":0,
			"byteLength":6480,
			"byteOffset":470536,
			"target":34962
		},
		{
			"buffer":0,
			"byteLength":4320,
			"byteOffset":477016,
			"target":34962
		},
		{
			"buffer":0,
			"byteLength":4536,
			"byteOffset":481336,
			"target":34963
		},
		{
			"buffer":0,
			"byteLength":6588,
			"byteOffset":485872,
			"target":34962
		},
		{
			"buffer":0,
			"byteLength":6588,
			"byteOffset":492460,
			"target":34962
		},
		{
			"buffer":0,
			"byteLength":4392,
			"byteOffset":499048,
			"target":34962
		},
		{
			"buffer":0,
			"byteLength":4632,
			"byteOffset":503440,
			"target":34963
		},
		{
			"buffer":0,
			"byteLength":6624,
			"byteOffset":508072,
			"target":34962
		},
		{
			"buffer":0,
			"byteLength":6624,
			"byteOffset":514696,
			"target":34962
		},
		{
			"buffer":0,
			"byteLength":4416,
			"byteOffset":521320,
			"target":34962
		},
		{
			"buffer":0,
			"byteLength":4668,
			"byteOffset":525736,
			"target":34963
		},
		{
			"buffer":0,
			"byteLength":6660,
			"byteOffset":530404,
			"target":34962
		},
		{
			"buffer":0,
			"byteLength":6660,
			"byteOffset":537064,
			"target":34962
		},
		{
			"buffer":0,
			"byteLength":4440,
			"byteOffset":543724,
			"target":34962
		},
		{
			"buffer":0,
			"byteLength":4680,
			"byteOffset":548164,
			"target":34963
		}
	],
	"samplers":[
		{
			"magFilter":9729,
			"minFilter":9987
		}
	],
	"buffers":[
		{
			"byteLength":552844,
			"uri":"rocks_concave.bin"
		}
	]
}
