{
	"asset":{
		"generator":"Khronos glTF Blender I/O v5.1.20",
		"version":"2.0"
	},
	"extensionsUsed":[
		"KHR_materials_specular",
		"KHR_texture_transform",
		"EXT_texture_webp"
	],
	"extensionsRequired":[
		"KHR_texture_transform",
		"EXT_texture_webp"
	],
	"scene":0,
	"scenes":[
		{
			"name":"Scene",
			"nodes":[
				0
			]
		}
	],
	"nodes":[
		{
			"mesh":0,
			"name":"roman_coin",
			"rotation":[
				1,
				0,
				0,
				4.371138828673793e-08
			],
			"scale":[
				0.009999999776482582,
				0.009999999776482582,
				0.009999999776482582
			]
		}
	],
	"materials":[
		{
			"doubleSided":true,
			"extensions":{
				"KHR_materials_specular":{
					"specularColorFactor":[
						2.0,
						2.0,
						2.0
					]
				}
			},
			"name":"ancient coin 10",
			"pbrMetallicRoughness":{
				"baseColorTexture":{
					"extensions":{
						"KHR_texture_transform":{
							"offset":[
								0,
								-1
							]
						}
					},
					"index":0
				},
				"metallicFactor":0,
				"roughnessFactor":0
			}
		}
	],
	"meshes":[
		{
			"name":"Mesh",
			"primitives":[
				{
					"attributes":{
						"POSITION":0,
						"NORMAL":1,
						"TEXCOORD_0":2
					},
					"indices":3,
					"material":0
				}
			]
		}
	],
	"textures":[
		{
			"extensions":{
				"EXT_texture_webp":{
					"source":0
				}
			},
			"sampler":0
		}
	],
	"images":[
		{
			"mimeType":"image/webp",
			"name":"base",
			"uri":"textures/base.webp"
		}
	],
	"accessors":[
		{
			"bufferView":0,
			"componentType":5126,
			"count":283,
			"max":[
				3.8647773265838623,
				3.8647773265838623,
				0.15521422028541565
			],
			"min":[
				-3.8647773265838623,
				-3.8647773265838623,
				-0.1551995575428009
			],
			"type":"VEC3"
		},
		{
			"bufferView":1,
			"componentType":5126,
			"count":283,
			"type":"VEC3"
		},
		{
			"bufferView":2,
			"componentType":5126,
			"count":283,
			"type":"VEC2"
		},
		{
			"bufferView":3,
			"componentType":5123,
			"count":1218,
			"type":"SCALAR"
		}
	],
	"bufferViews":[
		{
			"buffer":0,
			"byteLength":3396,
			"byteOffset":0,
			"target":34962
		},
		{
			"buffer":0,
			"byteLength":3396,
			"byteOffset":3396,
			"target":34962
		},
		{
			"buffer":0,
			"byteLength":2264,
			"byteOffset":6792,
			"target":34962
		},
		{
			"buffer":0,
			"byteLength":2436,
			"byteOffset":9056,
			"target":34963
		}
	],
	"samplers":[
		{
			"magFilter":9729,
			"minFilter":9987
		}
	],
	"buffers":[
		{
			"byteLength":11492,
			"uri":"roman_coin.bin"
		}
	]
}
